<svg xmlns="http://www.w3.org/2000/svg" width="24" height="24"><defs><clipPath id="a"><path d="M0 0h24v24H0z"/></clipPath></defs><g clip-path="url(#a)" stroke-linecap="round" stroke-linejoin="round"><g transform="translate(6 10.796)" fill="none" stroke="#707070" stroke-width="1.5"><circle cx="4.5" cy="4.5" r="4.5" stroke="none"/><circle cx="4.5" cy="4.5" r="3.75"/></g><g fill="#707070"><path d="M10.775 10.464l1.361-2.726 2.13 1.002-1.11 2.455-2.381-.731z"/><path d="M13.278 9.104l-.798-.375-.639 1.278.904.277.533-1.18m1.975-.728l-1.685 3.73-3.86-1.185 2.085-4.174 3.46 1.63z"/></g><path d="M11.534 7.46l-2.4-1.258-2.34 3.133m6.917 3.578h2.84l-.127 5.515" fill="none" stroke="#707070" stroke-width="1.5"/><g transform="translate(13.476 4.204)" fill="#707070" stroke="#707070"><circle cx="1.709" cy="1.709" r="1.709" stroke="none"/><circle cx="1.709" cy="1.709" r="1.209" fill="none"/></g></g></svg>