<svg xmlns="http://www.w3.org/2000/svg" width="24" height="24"><defs><clipPath id="a"><path d="M0 0h24v24H0z"/></clipPath></defs><g clip-path="url(#a)"><path d="M12 20a7.083 7.083 0 0 1-7.075-7.076A7.083 7.083 0 0 1 12 5.849a7.083 7.083 0 0 1 7.076 7.075A7.084 7.084 0 0 1 12 20zm-.436-11.633a.664.664 0 0 0-.663.663v4.211a.664.664 0 0 0 .3.555.71.71 0 0 0 .054.034l1.915 1.105a.663.663 0 0 0 .331.089.667.667 0 0 0 .575-.331.661.661 0 0 0 .066-.5.657.657 0 0 0-.309-.4l-1.606-.927v-3.83a.664.664 0 0 0-.663-.67z" fill="#707070"/><path fill="none" stroke="#707070" stroke-linecap="round" stroke-width="1.5" d="m7.5 4.5-3 3m12-3 3 3"/></g></svg>