<svg xmlns="http://www.w3.org/2000/svg" width="24" height="24"><defs><clipPath id="a"><path d="M0 0h24v24H0z"/></clipPath></defs><g clip-path="url(#a)"><path d="M12 20a7.083 7.083 0 01-7.075-7.076A7.083 7.083 0 0112 5.849a7.083 7.083 0 017.076 7.075A7.084 7.084 0 0112 20zm-.436-11.633a.664.664 0 00-.663.663v4.211a.664.664 0 00.3.555.71.71 0 00.054.034l1.915 1.105a.663.663 0 00.331.089.667.667 0 00.575-.331.661.661 0 00.066-.5.657.657 0 00-.309-.4l-1.606-.927v-3.83a.664.664 0 00-.663-.67z" fill="#707070"/><path fill="none" stroke="#707070" stroke-linecap="round" stroke-width="1.5" d="M7.5 4.5l-3 3m12-3l3 3"/></g></svg>