<svg xmlns="http://www.w3.org/2000/svg" width="24" height="24"><defs><clipPath id="a"><path d="M0 0h24v24H0z"/></clipPath></defs><g fill="#707070" clip-path="url(#a)"><path d="M10.621 11.663a2.1 2.1 0 001.224-2.074c0-1.848-1.374-2.548-3.245-2.548H4v9.919h4.622c1.774 0 3.523-.874 3.523-2.873a2.286 2.286 0 00-1.524-2.424zM6.3 8.741h2.022c.775 0 1.524.2 1.524 1.149 0 .775-.575 1.074-1.324 1.074H6.3zm2.2 6.52H6.3v-2.648h2.247c.924 0 1.524.35 1.524 1.374 0 .949-.724 1.274-1.571 1.274zM16.567 9.365c-2.473 0-3.648 1.649-3.648 3.8a3.422 3.422 0 003.648 3.773 3.157 3.157 0 003.352-2.326h-1.928a1.431 1.431 0 01-1.349.824 1.673 1.673 0 01-1.824-1.8h5.172c.129-2.222-.9-4.271-3.423-4.271zm-1.724 3.048a1.5 1.5 0 011.6-1.5c.949 0 1.424.5 1.624 1.5z"/><path d="M14.418 8.441h4.022v-1h-4.022z" fill-rule="evenodd"/></g></svg>