<svg xmlns="http://www.w3.org/2000/svg" width="24" height="24"><defs><clipPath id="a"><path d="M0 0h24v24H0z"/></clipPath></defs><g data-name="Group 56" clip-path="url(#a)"><g data-name="Path 27" fill="#707070"><path d="M12 16.25c-1.909 0-3.29-.087-4.22-.266-.959-.184-1.126-.411-1.142-.437-.087-.138.224-.783.39-1.13.322-.667.722-1.499.722-2.417v-2A4.255 4.255 0 0112 5.75 4.255 4.255 0 0116.25 10v2c0 .918.4 1.75.722 2.418.166.346.477.991.39 1.13-.016.025-.183.252-1.142.436-.93.18-2.311.266-4.22.266z"/><path d="M12 6.5c-1.93 0-3.5 1.57-3.5 3.5v2c0 1.09-.441 2.006-.796 2.743a16.43 16.43 0 00-.194.414c.518.146 1.729.343 4.49.343s3.972-.197 4.49-.343a16.43 16.43 0 00-.194-.414c-.355-.737-.796-1.654-.796-2.743v-2c0-1.93-1.57-3.5-3.5-3.5M12 5a5 5 0 015 5v2c0 2.761 4.66 5-5 5s-5-2.239-5-5v-2a5 5 0 015-5z"/></g><g data-name="Ellipse 11" transform="translate(11 4)" fill="none" stroke="#707070" stroke-width="1.5"><circle cx="1" cy="1" r="1" stroke="none"/><circle cx="1" cy="1" r=".25"/></g><g data-name="Path 28" fill="none"><path d="M13.586 18a1.5 1.5 0 01-3 0z"/><path d="M10.586 18h3a1.5 1.5 0 11-3 0z" fill="#707070"/></g></g></svg>