<svg xmlns="http://www.w3.org/2000/svg" width="24" height="24"><defs><clipPath id="a"><path d="M0 0h24v24H0z"/></clipPath></defs><g clip-path="url(#a)" fill="none" stroke-linecap="round" stroke-linejoin="round"><path d="M12.002 5.032a5.161 5.161 0 015.161 5.161v2.065c0 2.851 4.81 5.161-5.161 5.161s-5.164-2.311-5.164-5.161v-2.065a5.161 5.161 0 015.164-5.161z"/><path d="M12 6.532a3.665 3.665 0 00-3.662 3.661v2.065c0 1.113-.453 2.054-.816 2.81-.068.141-.154.32-.224.48.512.153 1.757.371 4.702.371 2.944 0 4.189-.218 4.7-.372a13.902 13.902 0 00-.223-.479c-.363-.756-.816-1.697-.816-2.81v-2.065A3.665 3.665 0 0012 6.532m0-1.5a5.16 5.16 0 015.16 5.161v2.065c0 2.85 4.81 5.161-5.16 5.161-9.972 0-5.162-2.31-5.162-5.161v-2.065A5.162 5.162 0 0112 5.032z" fill="#707070"/><g transform="translate(11 4)" stroke="#707070" stroke-width="1.5"><circle cx="1" cy="1" r="1" stroke="none"/><circle cx="1" cy="1" r=".25"/></g><path d="M13.552 18.452a1.55 1.55 0 01-3.1 0z"/><path d="M10.452 18.452h3.097a1.548 1.548 0 01-3.097 0z" fill="#707070"/></g></svg>