<svg xmlns="http://www.w3.org/2000/svg" width="24" height="24"><defs><clipPath id="a"><path d="M0 0h24v24H0z"/></clipPath></defs><g data-name="Group 56" clip-path="url(#a)"><g data-name="Path 27" fill="#707070"><path d="M12 16.67c-1.972 0-3.399-.09-4.36-.276-1.001-.192-1.179-.434-1.196-.462-.097-.153.215-.802.402-1.189.33-.687.742-1.543.742-2.485v-2.065A4.416 4.416 0 0112 5.782a4.416 4.416 0 014.41 4.411v2.065c0 .942.412 1.798.743 2.485.187.387.499 1.036.402 1.19-.017.027-.195.27-1.195.461-.962.185-2.388.275-4.36.275z"/><path d="M12 6.532a3.665 3.665 0 00-3.662 3.661v2.065c0 1.113-.453 2.054-.816 2.81-.068.141-.154.32-.224.48.512.153 1.757.371 4.702.371 2.944 0 4.189-.218 4.7-.372a13.902 13.902 0 00-.223-.479c-.363-.756-.816-1.697-.816-2.81v-2.065A3.665 3.665 0 0012 6.532m0-1.5a5.16 5.16 0 015.16 5.161v2.065c0 2.85 4.81 5.161-5.16 5.161-9.972 0-5.162-2.31-5.162-5.161v-2.065A5.162 5.162 0 0112 5.032z"/></g><g data-name="Ellipse 11" transform="translate(11 4)" fill="none" stroke="#707070" stroke-width="1.5"><circle cx="1" cy="1" r="1" stroke="none"/><circle cx="1" cy="1" r=".25"/></g><g data-name="Path 28" fill="none"><path d="M13.552 18.452a1.55 1.55 0 01-3.1 0z"/><path d="M10.452 18.452h3.097a1.548 1.548 0 01-3.097 0z" fill="#707070"/></g></g></svg>