<svg xmlns="http://www.w3.org/2000/svg" xmlns:xlink="http://www.w3.org/1999/xlink" width="24" height="24" viewBox="0 0 24 24">
  <defs>
    <clipPath id="clip-bell_solid">
      <rect width="24" height="24"/>
    </clipPath>
  </defs>
  <g id="bell_solid" clip-path="url(#clip-bell_solid)">
    <g id="Group_56" data-name="Group 56">
      <g id="Path_27" data-name="Path 27" transform="translate(7 5)" fill="#707070">
        <path d="M 5.000000953674316 11.25 C 3.091100931167603 11.25 1.710820913314819 11.16308975219727 0.7802709341049194 10.984299659729 C -0.1789190471172333 10.80000019073486 -0.346159040927887 10.57266998291016 -0.3620690405368805 10.54734992980957 C -0.4487590491771698 10.40944004058838 -0.1383190453052521 9.764269828796387 0.02846095338463783 9.417659759521484 C 0.3499309420585632 8.749580383300781 0.7500009536743164 7.918139934539795 0.7500009536743164 7 L 0.7500009536743164 5 C 0.7500009536743164 2.656539916992188 2.656540870666504 0.75 5.000000953674316 0.75 C 7.343461036682129 0.75 9.250000953674316 2.656539916992188 9.250000953674316 5 L 9.250000953674316 7 C 9.250000953674316 7.918139934539795 9.650071144104004 8.749580383300781 9.971541404724121 9.417659759521484 C 10.13832092285156 9.764269828796387 10.44876098632812 10.40944004058838 10.36207103729248 10.54734992980957 C 10.34616088867188 10.57266998291016 10.17892074584961 10.80000019073486 9.219731330871582 10.984299659729 C 8.289180755615234 11.16308975219727 6.908900737762451 11.25 5.000000953674316 11.25 Z" stroke="none"/>
        <path d="M 5.000000953674316 1.5 C 3.070090770721436 1.5 1.500000953674316 3.070090293884277 1.500000953674316 5 L 1.500000953674316 7 C 1.500000953674316 8.089189529418945 1.05880069732666 9.006099700927734 0.7042913436889648 9.742859840393066 C 0.6456079483032227 9.864810943603516 0.5726203918457031 10.01649761199951 0.5100727081298828 10.15665054321289 C 1.027734756469727 10.30254936218262 2.238595485687256 10.5 5.000000953674316 10.5 C 7.761406421661377 10.5 8.972267150878906 10.30254936218262 9.48992919921875 10.15665054321289 C 9.42738151550293 10.01649761199951 9.35439395904541 9.864810943603516 9.295710563659668 9.742859840393066 C 8.941201210021973 9.006099700927734 8.500000953674316 8.089189529418945 8.500000953674316 7 L 8.500000953674316 5 C 8.500000953674316 3.070090293884277 6.929910659790039 1.5 5.000000953674316 1.5 M 5.000000953674316 0 C 7.761421203613281 0 10.00000095367432 2.238579750061035 10.00000095367432 5 L 10.00000095367432 7 C 10.00000095367432 9.761420249938965 14.6598014831543 12 5.000000953674316 12 C -4.659798622131348 12 9.5367431640625e-07 9.761420249938965 9.5367431640625e-07 7 L 9.5367431640625e-07 5 C 9.5367431640625e-07 2.238579750061035 2.238571166992188 0 5.000000953674316 0 Z" stroke="none" fill="#707070"/>
      </g>
      <g id="Ellipse_11" data-name="Ellipse 11" transform="translate(11 4)" fill="none" stroke="#707070" stroke-width="1.5">
        <circle cx="1" cy="1" r="1" stroke="none"/>
        <circle cx="1" cy="1" r="0.25" fill="none"/>
      </g>
      <g id="Path_28" data-name="Path 28" transform="translate(10.586 17)" fill="none">
        <path d="M3,1A1.5,1.5,0,0,1,0,1Z" stroke="none"/>
        <path d="M 0 0.9999997615814209 C 1.479239940643311 0.9999997615814209 1.595229983329773 0.9999997615814209 3 0.9999997615814209 C 3 1.828429937362671 2.328429937362671 2.5 1.5 2.5 C 0.6715700626373291 2.5 0 1.828429937362671 0 0.9999997615814209 Z" stroke="none" fill="#707070"/>
      </g>
    </g>
  </g>
</svg>
