<svg xmlns="http://www.w3.org/2000/svg" xmlns:xlink="http://www.w3.org/1999/xlink" width="24" height="24" viewBox="0 0 24 24">
  <defs>
    <clipPath id="clip-bolt_solid">
      <rect width="24" height="24"/>
    </clipPath>
  </defs>
  <g id="bolt_solid" clip-path="url(#clip-bolt_solid)">
    <g id="Union_6" data-name="Union 6" transform="translate(258.002 292.303)" fill="#6e6e6e">
      <path d="M -246.6348114013672 -274.9176025390625 L -246.6348114013672 -278.0000915527344 L -246.6348114013672 -278.7500915527344 L -247.3848114013672 -278.7500915527344 L -250.3981018066406 -278.7500915527344 L -245.3655090332031 -285.6885681152344 L -245.3655090332031 -282.6054077148438 L -245.3655090332031 -281.8554077148438 L -244.6155090332031 -281.8554077148438 L -241.6045684814453 -281.8554077148438 L -246.6348114013672 -274.9176025390625 Z" stroke="none"/>
      <path d="M -245.8848114013672 -277.2297058105469 L -243.0747528076172 -281.1054077148438 L -244.6155090332031 -281.1054077148438 L -246.1155090332031 -281.1054077148438 L -246.1155090332031 -282.6054077148438 L -246.1155090332031 -283.3771667480469 L -248.9276123046875 -279.5000915527344 L -247.3848114013672 -279.5000915527344 L -245.8848114013672 -279.5000915527344 L -245.8848114013672 -278.0000915527344 L -245.8848114013672 -277.2297058105469 M -247.3848114013672 -272.6054992675781 L -247.3848114013672 -278.0000915527344 L -251.8686065673828 -278.0000915527344 L -244.6155090332031 -288 L -244.6155090332031 -282.6054077148438 L -240.1343994140625 -282.6054077148438 L -247.3848114013672 -272.6054992675781 Z" stroke="none" fill="#707070"/>
    </g>
  </g>
</svg>
