<svg xmlns="http://www.w3.org/2000/svg" width="24" height="24"><defs><clipPath id="a"><path d="M0 0h24v24H0z"/></clipPath></defs><g clip-path="url(#a)"><path d="M12 20a8.009 8.009 0 01-8-8 8.009 8.009 0 018-8 8.009 8.009 0 018 8 8.009 8.009 0 01-8 8zm-2.513-8.626a.867.867 0 00-.618.257.867.867 0 00-.256.617.869.869 0 00.256.619l1.59 1.591a.877.877 0 00.563.255h.065a.874.874 0 00.62-.256l3.712-3.712a.876.876 0 000-1.238.869.869 0 00-.619-.256.869.869 0 00-.619.256l-3.1 3.1-.977-.976a.868.868 0 00-.617-.256z" fill="#707070"/></g></svg>