<svg xmlns="http://www.w3.org/2000/svg" width="24" height="24"><defs><clipPath id="a"><path d="M0 0h24v24H0z"/></clipPath></defs><g clip-path="url(#a)"><path d="M12 4a8.009 8.009 0 018 8 8.009 8.009 0 01-8 8 8.009 8.009 0 01-8-8 8.009 8.009 0 018-8zm-.029 5.07h-.034a.743.743 0 00-.529.219L8.227 12.47a.751.751 0 000 1.061.746.746 0 00.53.219.744.744 0 00.53-.219l2.681-2.68 2.68 2.68a.745.745 0 00.53.219.745.745 0 00.53-.219.745.745 0 00.219-.53.745.745 0 00-.219-.53L12.527 9.29a.745.745 0 00-.53-.219z" fill="#707070"/></g></svg>