<svg xmlns="http://www.w3.org/2000/svg" width="24" height="24"><defs><clipPath id="a"><path d="M0 0h24v24H0z"/></clipPath></defs><g clip-path="url(#a)"><path d="M4 12a8.009 8.009 0 018-8 8.009 8.009 0 018 8 8.009 8.009 0 01-8 8 8.009 8.009 0 01-8-8zm5.07.029v.034a.743.743 0 00.219.529l3.181 3.181a.751.751 0 001.061 0 .746.746 0 00.219-.53.744.744 0 00-.219-.53l-2.68-2.681 2.68-2.68a.745.745 0 00.219-.53.745.745 0 00-.219-.53.745.745 0 00-.53-.219.745.745 0 00-.53.219L9.29 11.473a.745.745 0 00-.219.53z" fill="#707070"/></g></svg>