<svg xmlns="http://www.w3.org/2000/svg" width="24" height="24"><defs><clipPath id="a"><path d="M0 0h24v24H0z"/></clipPath></defs><g clip-path="url(#a)"><path d="M20 12a8.009 8.009 0 0 1-8 8 8.009 8.009 0 0 1-8-8 8.009 8.009 0 0 1 8-8 8.009 8.009 0 0 1 8 8zm-5.07-.029v-.034a.743.743 0 0 0-.219-.529L11.53 8.227a.751.751 0 0 0-1.061 0 .746.746 0 0 0-.219.53.744.744 0 0 0 .219.53l2.68 2.681-2.68 2.68a.745.745 0 0 0-.219.53.745.745 0 0 0 .219.53.745.745 0 0 0 .53.219.745.745 0 0 0 .53-.219l3.181-3.181a.745.745 0 0 0 .219-.53z" fill="#707070"/></g></svg>