<svg xmlns="http://www.w3.org/2000/svg" xmlns:xlink="http://www.w3.org/1999/xlink" width="24" height="24" viewBox="0 0 24 24">
  <defs>
    <clipPath id="clip-codepen">
      <rect width="24" height="24"/>
    </clipPath>
  </defs>
  <g id="codepen" clip-path="url(#clip-codepen)">
    <g id="Group_106" data-name="Group 106" transform="translate(4.155 68)">
      <path id="Path_269" data-name="Path 269" d="M8.359-63.834a1.291,1.291,0,0,0-1.431.025L.552-59.365A1.232,1.232,0,0,0,0-58.336v4.795a1.266,1.266,0,0,0,.577,1.054l6.5,4.318a1.3,1.3,0,0,0,1.406,0l6.627-4.368a1.266,1.266,0,0,0,.577-1.054v-4.719a1.266,1.266,0,0,0-.577-1.054Zm4.945,5.2L10.87-57.006,8.56-58.662v-3.289ZM6.9-61.926v3.213l-2.36,1.632L2.209-58.662ZM1.556-57.081l1.506,1.029L1.556-55Zm5.372,6.853L2.209-53.391l2.36-1.657,2.36,1.582Zm-.9-5.849,1.531-1.079,1.782,1.18L7.757-54.922Zm2.586,5.849v-3.238l2.259-1.506L13.3-53.366Zm5.372-4.719L12.376-56l1.607-1.079Z" transform="translate(0 0)" fill="#707070"/>
    </g>
  </g>
</svg>
