<svg xmlns="http://www.w3.org/2000/svg" width="24" height="24"><defs><clipPath id="a"><path d="M0 0h24v24H0z"/></clipPath></defs><g data-name="Group 106" clip-path="url(#a)"><path data-name="Path 269" d="M12.514 4.166a1.291 1.291 0 00-1.431.025L4.707 8.635a1.232 1.232 0 00-.552 1.029v4.795a1.266 1.266 0 00.577 1.054l6.5 4.318a1.3 1.3 0 001.406 0l6.627-4.368a1.266 1.266 0 00.577-1.054V9.69a1.266 1.266 0 00-.577-1.054zm4.945 5.2l-2.434 1.628-2.31-1.656V6.049zm-6.404-3.292v3.213l-2.36 1.632-2.331-1.581zm-5.344 4.845l1.506 1.029L5.711 13zm5.372 6.853l-4.719-3.163 2.36-1.657 2.36 1.582zm-.9-5.849l1.531-1.079 1.782 1.18-1.584 1.054zm2.586 5.849v-3.238l2.259-1.506 2.427 1.606zm5.372-4.719L16.531 12l1.607-1.079z" fill="#707070"/></g></svg>