<svg xmlns="http://www.w3.org/2000/svg" xmlns:xlink="http://www.w3.org/1999/xlink" width="24" height="24" viewBox="0 0 24 24">
  <defs>
    <clipPath id="clip-dribbble">
      <rect width="24" height="24"/>
    </clipPath>
  </defs>
  <g id="dribbble" clip-path="url(#clip-dribbble)">
    <g id="Group_107" data-name="Group 107" transform="translate(4 68)">
      <path id="Path_270" data-name="Path 270" d="M8-64a7.991,7.991,0,0,0-8,8,7.991,7.991,0,0,0,8,8,7.991,7.991,0,0,0,8-8A7.991,7.991,0,0,0,8-64Zm5.25,3.875a6.781,6.781,0,0,1,1.425,3.95A14.245,14.245,0,0,0,10-56.3q-.263-.6-.525-1.125A9.753,9.753,0,0,0,13.25-60.125ZM8-62.675a6.584,6.584,0,0,1,4.325,1.6A8.553,8.553,0,0,1,8.85-58.6a34.387,34.387,0,0,0-2.425-3.9A6.474,6.474,0,0,1,8-62.675Zm-2.875.65A35.7,35.7,0,0,1,7.6-58.2a22.958,22.958,0,0,1-6.1.65A6.688,6.688,0,0,1,5.125-62.025ZM1.325-56v-.225H1.35A24.7,24.7,0,0,0,8.225-57c.15.325.325.65.475,1a10.441,10.441,0,0,0-5.725,4.4A6.7,6.7,0,0,1,1.325-56ZM8-49.325A6.705,6.705,0,0,1,3.95-50.7,9.134,9.134,0,0,1,9.2-54.775a23.6,23.6,0,0,1,1.35,4.95A6.719,6.719,0,0,1,8-49.325ZM11.775-50.5a25.868,25.868,0,0,0-1.25-4.55,12.807,12.807,0,0,1,4.075.175A6.752,6.752,0,0,1,11.775-50.5Z" fill="#707070"/>
    </g>
  </g>
</svg>
