<svg xmlns="http://www.w3.org/2000/svg" width="24" height="24"><defs><clipPath id="a"><path d="M0 0h24v24H0z"/></clipPath></defs><g clip-path="url(#a)"><path d="M12 4a7.991 7.991 0 00-8 8 7.991 7.991 0 008 8 7.991 7.991 0 008-8 7.991 7.991 0 00-8-8zm5.25 3.875a6.781 6.781 0 011.425 3.95A14.245 14.245 0 0014 11.7q-.263-.6-.525-1.125a9.753 9.753 0 003.775-2.7zM12 5.325a6.584 6.584 0 014.325 1.6A8.553 8.553 0 0112.85 9.4a34.387 34.387 0 00-2.425-3.9A6.474 6.474 0 0112 5.325zm-2.875.65A35.7 35.7 0 0111.6 9.8a22.958 22.958 0 01-6.1.65 6.688 6.688 0 013.625-4.475zM5.325 12v-.225h.025A24.7 24.7 0 0012.225 11c.15.325.325.65.475 1a10.441 10.441 0 00-5.725 4.4 6.7 6.7 0 01-1.65-4.4zM12 18.675A6.705 6.705 0 017.95 17.3a9.134 9.134 0 015.25-4.075 23.6 23.6 0 011.35 4.95 6.719 6.719 0 01-2.55.5zm3.775-1.175a25.868 25.868 0 00-1.25-4.55 12.807 12.807 0 014.075.175 6.752 6.752 0 01-2.825 4.375z" fill="#707070"/></g></svg>