<svg xmlns="http://www.w3.org/2000/svg" width="24" height="24"><defs><clipPath id="a"><path d="M0 0h24v24H0z"/></clipPath></defs><g clip-path="url(#a)"><path d="M12 4a7.991 7.991 0 0 0-8 8 7.991 7.991 0 0 0 8 8 7.991 7.991 0 0 0 8-8 7.991 7.991 0 0 0-8-8zm5.25 3.875a6.781 6.781 0 0 1 1.425 3.95A14.245 14.245 0 0 0 14 11.7q-.263-.6-.525-1.125a9.753 9.753 0 0 0 3.775-2.7zM12 5.325a6.584 6.584 0 0 1 4.325 1.6A8.553 8.553 0 0 1 12.85 9.4a34.387 34.387 0 0 0-2.425-3.9A6.474 6.474 0 0 1 12 5.325zm-2.875.65A35.7 35.7 0 0 1 11.6 9.8a22.958 22.958 0 0 1-6.1.65 6.688 6.688 0 0 1 3.625-4.475zM5.325 12v-.225h.025A24.7 24.7 0 0 0 12.225 11c.15.325.325.65.475 1a10.441 10.441 0 0 0-5.725 4.4 6.7 6.7 0 0 1-1.65-4.4zM12 18.675A6.705 6.705 0 0 1 7.95 17.3a9.134 9.134 0 0 1 5.25-4.075 23.6 23.6 0 0 1 1.35 4.95 6.719 6.719 0 0 1-2.55.5zm3.775-1.175a25.868 25.868 0 0 0-1.25-4.55 12.807 12.807 0 0 1 4.075.175 6.752 6.752 0 0 1-2.825 4.375z" fill="#707070"/></g></svg>