<svg xmlns="http://www.w3.org/2000/svg" xmlns:xlink="http://www.w3.org/1999/xlink" width="24" height="24" viewBox="0 0 24 24">
  <defs>
    <clipPath id="clip-drop">
      <rect width="24" height="24"/>
    </clipPath>
  </defs>
  <g id="drop" clip-path="url(#clip-drop)">
    <g id="Path_17" data-name="Path 17" transform="translate(6 7)" fill="none">
      <path d="M6-3s6,4,6,9.6A6.21,6.21,0,0,1,6,13,6.21,6.21,0,0,1,0,6.6C0,1,6-3,6-3Z" stroke="none"/>
      <path d="M 5.999928951263428 -1.114521980285645 C 4.499433994293213 0.1237945556640625 1.499999046325684 3.044244766235352 1.499999046325684 6.599999904632568 C 1.499999046325684 9.301870346069336 3.518689155578613 11.5 5.999999523162842 11.5 C 8.48130989074707 11.5 10.5 9.301870346069336 10.5 6.599999904632568 C 10.5 3.044484615325928 7.500336170196533 0.123809814453125 5.999928951263428 -1.114521980285645 M 5.999999523162842 -3 C 5.999999523162842 -3 12 0.995880126953125 12 6.599999904632568 C 12 10.13461971282959 9.313709259033203 13 5.999999523162842 13 C 2.68628978729248 13 -9.5367431640625e-07 10.13461971282959 -9.5367431640625e-07 6.599999904632568 C -9.5367431640625e-07 0.9950704574584961 5.999999523162842 -3 5.999999523162842 -3 Z" stroke="none" fill="#707070"/>
    </g>
  </g>
</svg>
