<svg xmlns="http://www.w3.org/2000/svg" xmlns:xlink="http://www.w3.org/1999/xlink" width="24" height="24" viewBox="0 0 24 24">
  <defs>
    <clipPath id="clip-drop_solid">
      <rect width="24" height="24"/>
    </clipPath>
  </defs>
  <g id="drop_solid" clip-path="url(#clip-drop_solid)">
    <g id="Path_17" data-name="Path 17" transform="translate(6 7)" fill="#707070">
      <path d="M 5.999999523162842 12.25 C 3.105139493942261 12.25 0.7499995231628418 9.715419769287109 0.7499995231628418 6.599999904632568 C 0.7499995231628418 3.951479911804199 2.26604962348938 1.669870018959045 3.537849426269531 0.2222200036048889 C 4.496052742004395 -0.8684712052345276 5.466569423675537 -1.666873097419739 5.99997091293335 -2.073148488998413 C 6.533141613006592 -1.666991710662842 7.50373649597168 -0.8684626221656799 8.462119102478027 0.2224999964237213 C 9.733939170837402 1.670250058174133 11.25 3.951879978179932 11.25 6.599999904632568 C 11.25 9.715419769287109 8.894859313964844 12.25 5.999999523162842 12.25 Z" stroke="none"/>
      <path d="M 5.999928951263428 -1.114521980285645 C 4.499433994293213 0.1237945556640625 1.499999046325684 3.044244766235352 1.499999046325684 6.599999904632568 C 1.499999046325684 9.301870346069336 3.518689155578613 11.5 5.999999523162842 11.5 C 8.48130989074707 11.5 10.5 9.301870346069336 10.5 6.599999904632568 C 10.5 3.044484615325928 7.500336170196533 0.123809814453125 5.999928951263428 -1.114521980285645 M 5.999999523162842 -3 C 5.999999523162842 -3 12 0.995880126953125 12 6.599999904632568 C 12 10.13461971282959 9.313709259033203 13 5.999999523162842 13 C 2.68628978729248 13 -9.5367431640625e-07 10.13461971282959 -9.5367431640625e-07 6.599999904632568 C -9.5367431640625e-07 0.9950704574584961 5.999999523162842 -3 5.999999523162842 -3 Z" stroke="none" fill="#707070"/>
    </g>
  </g>
</svg>
