<svg xmlns="http://www.w3.org/2000/svg" width="24" height="24"><defs><clipPath id="a"><path d="M0 0h24v24H0z"/></clipPath></defs><g data-name="Path 17" fill="#707070" clip-path="url(#a)"><path d="M12 19.25c-2.895 0-5.25-2.535-5.25-5.65 0-2.649 1.516-4.93 2.788-6.378A17.41 17.41 0 0112 4.927a17.415 17.415 0 012.462 2.295c1.272 1.448 2.788 3.73 2.788 6.378 0 3.115-2.355 5.65-5.25 5.65z"/><path d="M12 5.885c-1.5 1.239-4.5 4.16-4.5 7.715 0 2.702 2.019 4.9 4.5 4.9s4.5-2.198 4.5-4.9c0-3.556-3-6.476-4.5-7.715M12 4s6 3.996 6 9.6c0 3.535-2.686 6.4-6 6.4s-6-2.865-6-6.4C6 7.995 12 4 12 4z"/></g></svg>