<svg xmlns="http://www.w3.org/2000/svg" width="24" height="24"><defs><clipPath id="a"><path d="M0 0h24v24H0z"/></clipPath></defs><g clip-path="url(#a)"><path d="M19.781 19.731h-15.5V9.601l7.779-5.188 7.722 5.188V19.73zM12 14.507h0a.363.363 0 00.044 0 .66.66 0 00.319-.082l6.457-3.519a.777.777 0 00.307-1.009.7.7 0 00-.625-.41.657.657 0 00-.318.082l-6.183 3.37L5.818 9.57a.657.657 0 00-.318-.082.7.7 0 00-.625.41.777.777 0 00.306 1.009l6.458 3.518a.666.666 0 00.316.082z" fill="#6b6b6b" stroke="#6b6b6b" stroke-linecap="round" stroke-linejoin="round" stroke-width=".5"/></g></svg>