<svg xmlns="http://www.w3.org/2000/svg" width="24" height="24"><defs><clipPath id="a"><path d="M0 0h24v24H0z"/></clipPath></defs><g fill="#707070" stroke-linecap="round" stroke-linejoin="round" clip-path="url(#a)"><path d="M19 17.25H5a.25.25 0 01-.25-.25V9.023c.088.195.218.37.384.515l5.849 5.084a1.493 1.493 0 001.065.368c.363 0 .712-.131.985-.369l5.848-5.083c.157-.137.281-.301.369-.483V17a.25.25 0 01-.25.25zm-6.992-5.712L7.102 7.274a1.498 1.498 0 00-2.352.515V7A.25.25 0 015 6.75h14a.25.25 0 01.25.25v.757a1.505 1.505 0 00-1.353-.851c-.36 0-.71.13-.983.366l-4.906 4.266z"/><path d="M18.5 16.5v-5.637l-4.974 4.323a2.247 2.247 0 01-1.478.554H11.965a2.243 2.243 0 01-1.474-.552L5.5 10.849v5.65h13m-6.492-5.955l3.5-3.044H8.506l3.503 3.044M19 18H5c-.552 0-1-.449-1-1V7c0-.551.448-1 1-1h14c.551 0 1 .449 1 1v10c0 .551-.449 1-1 1zm-6.992-3.761h.04a.747.747 0 00.492-.183l5.849-5.084a.745.745 0 00.256-.514.75.75 0 00-1.24-.618l-5.397 4.691L6.61 7.84a.749.749 0 00-1.24.618c.014.2.105.383.256.514l5.849 5.084c.136.118.31.184.49.184l.043-.001z"/></g></svg>