<svg xmlns="http://www.w3.org/2000/svg" xmlns:xlink="http://www.w3.org/1999/xlink" width="24" height="24" viewBox="0 0 24 24">
  <defs>
    <clipPath id="clip-etsy">
      <rect width="24" height="24"/>
    </clipPath>
  </defs>
  <g id="etsy" clip-path="url(#clip-etsy)">
    <g id="Group_116" data-name="Group 116" transform="translate(4.969 68)">
      <path id="Path_281" data-name="Path 281" d="M4.811-56.575V-62.25c0-.4,0-.4.425-.4,1.6,0,3.175.025,4.75,0a1.379,1.379,0,0,1,1.35.825,4.692,4.692,0,0,1,.3.75c.125.45.225.9.375,1.35a.376.376,0,0,0,.225.25,7.5,7.5,0,0,0,.75,0c.125-1.525.2-3.025.3-4.525a130.708,130.708,0,0,1-13.275.125c0,.275-.025.55,0,.8a.441.441,0,0,0,.225.2c.325.075.675.125,1,.2.8.15,1,.4,1.025,1.2.025,1.425.05,2.85.05,4.3,0,2.3-.025,4.6-.05,6.9a1.93,1.93,0,0,1-.05.375.657.657,0,0,1-.425.55,1.659,1.659,0,0,1-.5.15c-.425.1-.825.175-1.225.25V-48H.536c1.1-.025,2.2-.1,3.325-.1,3.075.025,6.175.075,9.25.1.4,0,.4,0,.425-.375.125-1.05.25-2.125.375-3.175.05-.4.1-.775.15-1.2a2.686,2.686,0,0,1-.45,0c-.3-.05-.45.075-.575.375q-.375.938-.825,1.875a2.041,2.041,0,0,1-1.825,1.275c-1.425.05-2.85.075-4.3.025-.925-.025-1.275-.475-1.275-1.4v-4.475a1.65,1.65,0,0,1,.025-.35.189.189,0,0,1,.1-.025c1,.025,2,.025,3,.05a1.051,1.051,0,0,1,1.1.8c.075.25.125.5.175.75.175.675.175.675.875.675.25,0,.3-.1.3-.3,0-1.675.025-3.35.05-5.025v-.425a6.994,6.994,0,0,1-.725,0c-.175-.025-.25.075-.3.225l-.3,1.275c-.15.575-.35.75-.95.775-.425.025-.85.075-1.3.075Z" transform="translate(0)" fill="#707070"/>
    </g>
  </g>
</svg>
