<svg xmlns="http://www.w3.org/2000/svg" width="24" height="24"><defs><clipPath id="a"><path d="M0 0h24v24H0z"/></clipPath></defs><g fill="#707070" clip-path="url(#a)"><path d="M20 11.618c0-.65-.725-.95-.95-.95h-4.9a25.3 25.3 0 00.5-2.8 5.855 5.855 0 00-.85-2.4 1.162 1.162 0 00-1.275.125l.1 2.25s-1.15 2.05-1.8 3.075a5.34 5.34 0 01-1.5 1.525v5.175h.45c.15 0 .725.525 1.15.525h6.1c.525 0 1.4-.05 1.4-.9a.822.822 0 00-.35-.7v-.1s.85-.275.85-1.025a.751.751 0 00-.35-.625l.05-.2a1.237 1.237 0 00.8-1.05c0-.475-.325-.55-.325-.55l.05-.225c.05-.05.85-.375.85-1.15zM7.725 11.743H4.8a.79.79 0 00-.8.8l.525 5.325a.79.79 0 00.8.8h2.4a.79.79 0 00.8-.8v-5.325a.806.806 0 00-.8-.8z"/></g></svg>