<svg xmlns="http://www.w3.org/2000/svg" xmlns:xlink="http://www.w3.org/1999/xlink" width="24" height="24" viewBox="0 0 24 24">
  <defs>
    <clipPath id="clip-facebook_solid">
      <rect width="24" height="24"/>
    </clipPath>
  </defs>
  <g id="facebook_solid" clip-path="url(#clip-facebook_solid)">
    <g id="Group_128" data-name="Group 128" transform="translate(4 20.625)">
      <path id="Path_303" data-name="Path 303" d="M16-15.732a.932.932,0,0,0-.893-.893H.857A.9.9,0,0,0,0-15.732v14.25a.869.869,0,0,0,.857.857H8.536V-6.8H6.429V-9.232H8.536v-1.786A2.909,2.909,0,0,1,11.643-14.2a14.828,14.828,0,0,1,1.857.107v2.143H12.214c-1,0-1.179.5-1.179,1.179v1.536h2.393L13.107-6.8H11.036V-.625h4.071A.9.9,0,0,0,16-1.482Z" transform="translate(0)" fill="#707070"/>
    </g>
  </g>
</svg>
