<svg xmlns="http://www.w3.org/2000/svg" xmlns:xlink="http://www.w3.org/1999/xlink" width="24" height="24" viewBox="0 0 24 24">
  <defs>
    <clipPath id="clip-flickr">
      <rect width="24" height="24"/>
    </clipPath>
  </defs>
  <g id="flickr" clip-path="url(#clip-flickr)">
    <g id="Group_113" data-name="Group 113" transform="translate(4 36.5)">
      <path id="Path_278" data-name="Path 278" d="M3.525-28A3.516,3.516,0,0,0,0-24.5,3.516,3.516,0,0,0,3.525-21,3.516,3.516,0,0,0,7.05-24.5,3.548,3.548,0,0,0,3.525-28ZM12.5-28A3.51,3.51,0,0,0,9-24.5,3.51,3.51,0,0,0,12.5-21,3.51,3.51,0,0,0,16-24.5,3.51,3.51,0,0,0,12.5-28Z" transform="translate(0 0)" fill="#707070"/>
    </g>
  </g>
</svg>
