<svg xmlns="http://www.w3.org/2000/svg" xmlns:xlink="http://www.w3.org/1999/xlink" width="24" height="24" viewBox="0 0 24 24">
  <defs>
    <clipPath id="clip-foursquare">
      <rect width="24" height="24"/>
    </clipPath>
  </defs>
  <g id="foursquare" clip-path="url(#clip-foursquare)">
    <g id="Group_109" data-name="Group 109" transform="translate(6.279 68.045)">
      <path id="Path_274" data-name="Path 274" d="M10.043-64.045H1.524A1.411,1.411,0,0,0,0-62.6v13.54a.986.986,0,0,0,.525.949.942.942,0,0,0,1.024-.225S5.571-53,5.646-53.078c.1-.1.1-.1.2-.1h2.6a1.292,1.292,0,0,0,1.374-1.249c.1-.375,1.174-5.846,1.524-7.595C11.642-63.32,11.292-64.045,10.043-64.045Zm-.2,9.618c.1-.375,1.174-5.846,1.524-7.595m-1.824.275-.35,1.874a.622.622,0,0,1-.525.425H5.346a.61.61,0,0,0-.65.625v.4a.63.63,0,0,0,.65.65H8.169a.515.515,0,0,1,.475.575c-.05.275-.325,1.674-.35,1.824a.546.546,0,0,1-.525.425h-2.3a.807.807,0,0,0-.824.4c-.275.35-2.8,3.373-2.8,3.373-.025.025-.05.025-.05,0V-61.771a.527.527,0,0,1,.525-.525H9.169A.473.473,0,0,1,9.543-61.747Z" transform="translate(0)" fill="#707070"/>
    </g>
  </g>
</svg>
