<svg xmlns="http://www.w3.org/2000/svg" width="24" height="24"><defs><clipPath id="a"><path d="M0 0h24v24H0z"/></clipPath></defs><g clip-path="url(#a)"><path d="M13.283 18.656h-2.461l-1.435-2.363H6.848l-1.152-2.162L6.847 12 5.696 9.889l1.151-1.89h2.539l1.435-2.443h2.461L14.543 8h2.7l1.114 1.89-1.114 2.111 1.114 2.131-1.345 2.165h-2.473l-1.261 2.363zm-1.282-9.16a2.5 2.5 0 00-2.5 2.5 2.5 2.5 0 002.5 2.5 2.5 2.5 0 002.5-2.5A2.5 2.5 0 0011.996 9.5z" fill="#707070" stroke="#707070" stroke-linecap="round" stroke-linejoin="round" stroke-width="1.5"/></g></svg>