<svg xmlns="http://www.w3.org/2000/svg" xmlns:xlink="http://www.w3.org/1999/xlink" width="24" height="24" viewBox="0 0 24 24">
  <defs>
    <clipPath id="clip-gear">
      <rect width="24" height="24"/>
    </clipPath>
  </defs>
  <g id="gear" clip-path="url(#clip-gear)">
    <g id="Subtraction_8" data-name="Subtraction 8" transform="translate(200.75 148.75)" fill="none">
      <path d="M-187.086-129.5h-3.328l-1.331-2.23H-194.3l-1.7-2.908,1.261-2.111L-196-138.862l1.7-2.908h2.553l1.331-2.23h3.328l1.331,2.23h2.552l1.7,2.908-1.26,2.112,1.26,2.111-1.7,2.908h-2.552l-1.331,2.23Zm-1.664-8.583a1.335,1.335,0,0,0-1.334,1.334,1.335,1.335,0,0,0,1.334,1.333,1.334,1.334,0,0,0,1.333-1.333A1.335,1.335,0,0,0-188.75-138.083Z" stroke="none"/>
      <path d="M -187.9372863769531 -131.0001220703125 L -187.0426177978516 -132.4990692138672 L -186.6061859130859 -133.2303009033203 L -185.7546081542969 -133.2303009033203 L -184.0623321533203 -133.2303009033203 L -183.24267578125 -134.6307830810547 L -184.0483856201172 -135.9809112548828 L -184.5069885253906 -136.7494201660156 L -184.0485229492188 -137.5180206298828 L -183.2425689697266 -138.8691558837891 L -184.0623168945312 -140.2697906494141 L -185.7546081542969 -140.2697906494141 L -186.6061859130859 -140.2697906494141 L -187.0426330566406 -141.0010375976562 L -187.9372863769531 -142.5 L -189.5623168945312 -142.5 L -190.4569854736328 -141.0010375976562 L -190.8934326171875 -140.2697906494141 L -191.7450103759766 -140.2697906494141 L -193.4381866455078 -140.2697906494141 L -194.2577667236328 -138.8694305419922 L -193.4513092041016 -137.5184173583984 L -192.9922943115234 -136.7494201660156 L -193.4514617919922 -135.9805145263672 L -194.2576599121094 -134.6305084228516 L -193.4381866455078 -133.2303009033203 L -191.7450103759766 -133.2303009033203 L -190.8934326171875 -133.2303009033203 L -190.4570007324219 -132.4990692138672 L -189.5623321533203 -131.0001220703125 L -187.9372863769531 -131.0001220703125 M -188.7498016357422 -139.5833892822266 C -187.1877288818359 -139.5833892822266 -185.9169006347656 -138.3121643066406 -185.9169006347656 -136.7496032714844 C -185.9169006347656 -135.1875305175781 -187.1877288818359 -133.9167022705078 -188.7498016357422 -133.9167022705078 C -190.3123779296875 -133.9167022705078 -191.5836181640625 -135.1875305175781 -191.5836181640625 -136.7496032714844 C -191.5836181640625 -138.3121643066406 -190.3123779296875 -139.5833892822266 -188.7498016357422 -139.5833892822266 M -187.0857086181641 -129.5001220703125 L -187.0862731933594 -129.5001220703125 L -190.4139099121094 -129.5001220703125 L -191.7450103759766 -131.7303009033203 L -194.2983093261719 -131.7303009033203 L -196.0001831054688 -134.6382141113281 L -194.7393035888672 -136.7495880126953 L -196.0001831054688 -138.8619079589844 L -194.2983093261719 -141.7697906494141 L -191.7450103759766 -141.7697906494141 L -190.4139099121094 -144 L -187.0857086181641 -144 L -185.7546081542969 -141.7697906494141 L -183.2022094726562 -141.7697906494141 L -181.5003051757812 -138.8619079589844 L -182.7602996826172 -136.7495880126953 L -181.5003051757812 -134.6381988525391 L -183.2022094726562 -131.7303009033203 L -185.7546081542969 -131.7303009033203 L -187.0854187011719 -129.5006103515625 L -187.0857086181641 -129.5001220703125 Z M -188.7498016357422 -138.0833892822266 C -189.4852752685547 -138.0833892822266 -190.0836181640625 -137.4850616455078 -190.0836181640625 -136.7496032714844 C -190.0836181640625 -136.0146331787109 -189.4852752685547 -135.4167022705078 -188.7498016357422 -135.4167022705078 C -188.0148468017578 -135.4167022705078 -187.4169006347656 -136.0146331787109 -187.4169006347656 -136.7496032714844 C -187.4169006347656 -137.4850616455078 -188.0148468017578 -138.0833892822266 -188.7498016357422 -138.0833892822266 Z" stroke="none" fill="#707070"/>
    </g>
  </g>
</svg>
