<svg xmlns="http://www.w3.org/2000/svg" width="24" height="24"><defs><clipPath id="a"><path d="M0 0h24v24H0z"/></clipPath></defs><g data-name="Subtraction 8" fill="none" clip-path="url(#a)"><path d="M13.664 19.25h-3.328l-1.331-2.23H6.45l-1.7-2.908 1.261-2.111L4.75 9.888l1.7-2.908h2.553l1.331-2.23h3.328l1.331 2.23h2.552l1.7 2.908L17.985 12l1.26 2.111-1.7 2.908h-2.552l-1.331 2.23zM12 10.667a1.335 1.335 0 00-1.334 1.334A1.335 1.335 0 0012 13.334a1.334 1.334 0 001.333-1.333A1.335 1.335 0 0012 10.667z"/><path d="M12.813 17.75l.894-1.5.437-.73h2.544l.82-1.4-.806-1.35-.459-.77.458-.768.806-1.351-.82-1.4h-2.543l-.437-.732-.894-1.499h-1.625l-.895 1.499-.436.731H7.312l-.82 1.4.807 1.352.459.769-.46.768-.806 1.35.82 1.4h2.545l.436.732.895 1.499h1.625M12 9.167A2.837 2.837 0 0114.833 12 2.836 2.836 0 0112 14.833 2.837 2.837 0 019.166 12 2.837 2.837 0 0112 9.167m1.664 10.083h-3.328l-1.331-2.23H6.452L4.75 14.112 6.01 12 4.75 9.888 6.452 6.98h2.553l1.331-2.23h3.328l1.331 2.23h2.553l1.702 2.908L17.99 12l1.26 2.112-1.702 2.908h-2.553l-1.33 2.23zM12 10.667c-.735 0-1.334.598-1.334 1.333s.599 1.333 1.334 1.333a1.334 1.334 0 000-2.666z" fill="#707070"/></g></svg>