<svg xmlns="http://www.w3.org/2000/svg" width="24" height="24"><defs><clipPath id="a"><path d="M0 0h24v24H0z"/></clipPath></defs><g data-name="Subtraction 8" fill="#707070" clip-path="url(#a)"><path d="M13.239 18.5h-2.477l-1.113-1.865-.218-.365H6.882l-1.26-2.154 1.033-1.731.23-.384-.23-.385L5.62 9.884 6.88 7.73h2.552l.218-.365L10.762 5.5h2.477l1.112 1.865.219.365h2.548l1.26 2.154-1.032 1.732-.23.384.23.385 1.033 1.73-1.261 2.155H14.57l-.219.365L13.24 18.5zM12 8.917A3.087 3.087 0 008.916 12c0 1.7 1.384 3.083 3.084 3.083 1.7 0 3.083-1.383 3.083-3.083 0-1.7-1.383-3.083-3.083-3.083z"/><path d="M12.813 17.75l.894-1.5.437-.73h2.544l.82-1.4-.806-1.35-.459-.77.458-.768.806-1.351-.82-1.4h-2.543l-.437-.732-.894-1.499h-1.625l-.895 1.499-.436.731H7.312l-.82 1.4.807 1.352.459.769-.46.768-.806 1.35.82 1.4h2.545l.436.732.895 1.499h1.625M12 8.167A3.838 3.838 0 0115.833 12 3.837 3.837 0 0112 15.833 3.838 3.838 0 018.166 12 3.838 3.838 0 0112 8.167m1.664 11.083h-3.328l-1.331-2.23H6.452L4.75 14.112 6.01 12 4.75 9.888 6.452 6.98h2.553l1.331-2.23h3.328l1.331 2.23h2.553l1.702 2.908L17.99 12l1.26 2.112-1.702 2.908h-2.553l-1.33 2.23zM12 9.667A2.336 2.336 0 009.666 12 2.336 2.336 0 0012 14.333 2.335 2.335 0 0014.333 12 2.336 2.336 0 0012 9.667z"/></g></svg>