<svg xmlns="http://www.w3.org/2000/svg" xmlns:xlink="http://www.w3.org/1999/xlink" width="24" height="24" viewBox="0 0 24 24">
  <defs>
    <clipPath id="clip-gear_solid">
      <rect width="24" height="24"/>
    </clipPath>
  </defs>
  <g id="gear_solid" clip-path="url(#clip-gear_solid)">
    <g id="Subtraction_8" data-name="Subtraction 8" transform="translate(200.75 148.75)" fill="#707070">
      <path d="M -187.5114898681641 -130.2501220703125 L -189.9881286621094 -130.2501220703125 L -191.1009979248047 -132.1146850585938 L -191.3192291259766 -132.4803009033203 L -191.7450103759766 -132.4803009033203 L -193.8682403564453 -132.4803009033203 L -195.1289215087891 -134.6343536376953 L -194.0953826904297 -136.3650512695312 L -193.8657989501953 -136.7494964599609 L -194.0953216552734 -137.1340026855469 L -195.1289672851562 -138.8656616210938 L -193.8682403564453 -141.0197906494141 L -191.7450103759766 -141.0197906494141 L -191.3192291259766 -141.0197906494141 L -191.1009979248047 -141.3854064941406 L -189.9881286621094 -143.25 L -187.5114898681641 -143.25 L -186.3986206054688 -141.3854064941406 L -186.1803894042969 -141.0197906494141 L -185.7546081542969 -141.0197906494141 L -183.6322784423828 -141.0197906494141 L -182.3714447021484 -138.8655242919922 L -183.4044189453125 -137.1338043212891 L -183.6336517333984 -136.74951171875 L -183.4043426513672 -136.3652496337891 L -182.3714904785156 -134.6344909667969 L -183.6322784423828 -132.4803009033203 L -185.7546081542969 -132.4803009033203 L -186.1803894042969 -132.4803009033203 L -186.3986206054688 -132.1146850585938 L -187.5114898681641 -130.2501220703125 Z M -188.7498016357422 -138.8333892822266 C -189.8988189697266 -138.8333892822266 -190.8336181640625 -137.8986053466797 -190.8336181640625 -136.7496032714844 C -190.8336181640625 -135.6010894775391 -189.8988189697266 -134.6667022705078 -188.7498016357422 -134.6667022705078 C -187.6012878417969 -134.6667022705078 -186.6669006347656 -135.6010894775391 -186.6669006347656 -136.7496032714844 C -186.6669006347656 -137.8986053466797 -187.6012878417969 -138.8333892822266 -188.7498016357422 -138.8333892822266 Z" stroke="none"/>
      <path d="M -187.9372863769531 -131.0001220703125 L -187.0426177978516 -132.4990692138672 L -186.6061859130859 -133.2303009033203 L -185.7546081542969 -133.2303009033203 L -184.0623321533203 -133.2303009033203 L -183.24267578125 -134.6307830810547 L -184.0483856201172 -135.9809112548828 L -184.5069885253906 -136.7494201660156 L -184.0485229492188 -137.5180206298828 L -183.2425689697266 -138.8691558837891 L -184.0623168945312 -140.2697906494141 L -185.7546081542969 -140.2697906494141 L -186.6061859130859 -140.2697906494141 L -187.0426330566406 -141.0010375976562 L -187.9372863769531 -142.5 L -189.5623168945312 -142.5 L -190.4569854736328 -141.0010375976562 L -190.8934326171875 -140.2697906494141 L -191.7450103759766 -140.2697906494141 L -193.4381866455078 -140.2697906494141 L -194.2577667236328 -138.8694305419922 L -193.4513092041016 -137.5184173583984 L -192.9922943115234 -136.7494201660156 L -193.4514617919922 -135.9805145263672 L -194.2576599121094 -134.6305084228516 L -193.4381866455078 -133.2303009033203 L -191.7450103759766 -133.2303009033203 L -190.8934326171875 -133.2303009033203 L -190.4570007324219 -132.4990692138672 L -189.5623321533203 -131.0001220703125 L -187.9372863769531 -131.0001220703125 M -188.7498016357422 -139.5833892822266 C -187.1877288818359 -139.5833892822266 -185.9169006347656 -138.3121643066406 -185.9169006347656 -136.7496032714844 C -185.9169006347656 -135.1875305175781 -187.1877288818359 -133.9167022705078 -188.7498016357422 -133.9167022705078 C -190.3123779296875 -133.9167022705078 -191.5836181640625 -135.1875305175781 -191.5836181640625 -136.7496032714844 C -191.5836181640625 -138.3121643066406 -190.3123779296875 -139.5833892822266 -188.7498016357422 -139.5833892822266 M -187.0857086181641 -129.5001220703125 L -187.0862731933594 -129.5001220703125 L -190.4139099121094 -129.5001220703125 L -191.7450103759766 -131.7303009033203 L -194.2983093261719 -131.7303009033203 L -196.0001831054688 -134.6382141113281 L -194.7393035888672 -136.7495880126953 L -196.0001831054688 -138.8619079589844 L -194.2983093261719 -141.7697906494141 L -191.7450103759766 -141.7697906494141 L -190.4139099121094 -144 L -187.0857086181641 -144 L -185.7546081542969 -141.7697906494141 L -183.2022094726562 -141.7697906494141 L -181.5003051757812 -138.8619079589844 L -182.7602996826172 -136.7495880126953 L -181.5003051757812 -134.6381988525391 L -183.2022094726562 -131.7303009033203 L -185.7546081542969 -131.7303009033203 L -187.0854187011719 -129.5006103515625 L -187.0857086181641 -129.5001220703125 Z M -188.7498016357422 -138.0833892822266 C -189.4852752685547 -138.0833892822266 -190.0836181640625 -137.4850616455078 -190.0836181640625 -136.7496032714844 C -190.0836181640625 -136.0146331787109 -189.4852752685547 -135.4167022705078 -188.7498016357422 -135.4167022705078 C -188.0148468017578 -135.4167022705078 -187.4169006347656 -136.0146331787109 -187.4169006347656 -136.7496032714844 C -187.4169006347656 -137.4850616455078 -188.0148468017578 -138.0833892822266 -188.7498016357422 -138.0833892822266 Z" stroke="none" fill="#707070"/>
    </g>
  </g>
</svg>
