<svg xmlns="http://www.w3.org/2000/svg" width="24" height="24"><defs><clipPath id="a"><path d="M0 0h24v24H0z"/></clipPath></defs><g data-name="Group 84" fill="none" clip-path="url(#a)"><g stroke="#707070" stroke-width="1.5"><path stroke="none" d="M5.5 10.5h13V20h-13z"/><path d="M6.25 11.25h11.5v8H6.25z"/></g><g stroke="#707070" stroke-width="1.5"><path stroke="none" d="M4 7h16v5H4z"/><path d="M4.75 7.75h14.5v3.5H4.75z"/></g><path d="M6.26 4.085a2.331 2.331 0 013.187-.748c1.23.627 2.626 3.71 2.626 3.71s-3.315.684-4.546.057A2.331 2.331 0 016.26 4.085z"/><path d="M7.596 4.766c-.129.253.11.746.61 1 .004.002.356.156 1.515.083-.622-.98-.954-1.175-.955-1.176-.502-.255-1.04-.16-1.17.093m-1.336-.68c.53-1.04 1.957-1.376 3.187-.75 1.23.628 2.626 3.712 2.626 3.712s-3.315.683-4.545.056S5.73 5.126 6.26 4.085z" fill="#707070"/><path d="M17.772 4.086a2.331 2.331 0 00-3.187-.749c-1.23.626-2.626 3.71-2.626 3.71s3.316.684 4.545.057a2.331 2.331 0 001.268-3.018z"/><path d="M16.436 4.766c-.129-.253-.668-.348-1.167-.094-.004.002-.335.197-.958 1.177 1.16.073 1.511-.081 1.513-.082.275-.14.49-.358.592-.598.038-.09.09-.263.02-.403m1.336-.68c.53 1.04-.037 2.391-1.267 3.018-1.23.627-4.546-.057-4.546-.057s1.396-3.083 2.626-3.71c1.23-.627 2.657-.292 3.187.748z" fill="#707070"/><path stroke="#707070" stroke-width="1.5" d="M12 8v11"/></g></svg>