<svg xmlns="http://www.w3.org/2000/svg" xmlns:xlink="http://www.w3.org/1999/xlink" width="24" height="24" viewBox="0 0 24 24">
  <defs>
    <clipPath id="clip-gift">
      <rect width="24" height="24"/>
    </clipPath>
  </defs>
  <g id="gift" clip-path="url(#clip-gift)">
    <g id="Group_84" data-name="Group 84">
      <g id="box" transform="translate(5.5 10.5)" fill="none" stroke="#707070" stroke-width="1.5">
        <rect width="13" height="9.5" stroke="none"/>
        <rect x="0.75" y="0.75" width="11.5" height="8" fill="none"/>
      </g>
      <g id="lid" transform="translate(4 7)" fill="none" stroke="#707070" stroke-width="1.5">
        <rect width="16" height="5" stroke="none"/>
        <rect x="0.75" y="0.75" width="14.5" height="3.5" fill="none"/>
      </g>
      <g id="left_bow" transform="matrix(0.454, -0.891, 0.891, 0.454, 5.3, 5.969)" fill="none">
        <path d="M2.114,0A2.331,2.331,0,0,1,4.228,2.5c0,1.381-2.114,4.024-2.114,4.024S0,3.881,0,2.5A2.331,2.331,0,0,1,2.114,0Z" stroke="none"/>
        <path d="M 2.113960027694702 1.500001907348633 C 1.830039978027344 1.500001907348633 1.5 1.936821937561035 1.499959945678711 2.496921539306641 C 1.500131368637085 2.50108528137207 1.522718667984009 2.884948492050171 2.11396312713623 3.884636163711548 C 2.70506477355957 2.885226011276245 2.727785587310791 2.501435279846191 2.727920055389404 2.500001907348633 C 2.727920055389404 1.936821937561035 2.397880077362061 1.500001907348633 2.113960027694702 1.500001907348633 M 2.113960027694702 1.9073486328125e-06 C 3.281470060348511 1.9073486328125e-06 4.227920055389404 1.11929178237915 4.227920055389404 2.500001907348633 C 4.227920055389404 3.880711793899536 2.113960027694702 6.524381637573242 2.113960027694702 6.524381637573242 C 2.113960027694702 6.524381637573242 0 3.880711793899536 0 2.500001907348633 C 0 1.11929178237915 0.9464499950408936 1.9073486328125e-06 2.113960027694702 1.9073486328125e-06 Z" stroke="none" fill="#707070"/>
      </g>
      <g id="right_bow" transform="matrix(-0.454, -0.891, 0.891, -0.454, 12.919, 8.931)" fill="none">
        <path d="M2.114,6.524a2.331,2.331,0,0,0,2.114-2.5C4.228,2.644,2.114,0,2.114,0S0,2.644,0,4.024A2.331,2.331,0,0,0,2.114,6.524Z" stroke="none"/>
        <path d="M 2.113956689834595 5.024379253387451 C 2.397876739501953 5.024379253387451 2.727916717529297 4.587549209594727 2.727956771850586 4.027459144592285 C 2.727785587310791 4.023295879364014 2.705088138580322 3.639293432235718 2.113960742950439 2.639756917953491 C 1.522833943367004 3.639266490936279 1.500141859054565 4.022992610931396 1.500006675720215 4.024389266967773 C 1.500006675720215 4.333468914031982 1.596436738967896 4.624779224395752 1.764566659927368 4.823619365692139 C 1.827966690063477 4.898589134216309 1.957666635513306 5.024379253387451 2.113956689834595 5.024379253387451 M 2.113956689834595 6.524379253387451 C 0.9464467167854309 6.524379253387451 -3.310165311631863e-06 5.405089378356934 6.689834663120564e-06 4.024379253387451 C 6.689834663120564e-06 2.643669128417969 2.113956689834595 -8.501434081154002e-07 2.113956689834595 -8.501434081154002e-07 C 2.113956689834595 -8.501434081154002e-07 4.227916717529297 2.643669128417969 4.227916717529297 4.024379253387451 C 4.227906703948975 5.405089378356934 3.281456708908081 6.524379253387451 2.113956689834595 6.524379253387451 Z" stroke="none" fill="#707070"/>
      </g>
      <line id="ribbon" y2="11" transform="translate(12 8)" fill="none" stroke="#707070" stroke-width="1.5"/>
    </g>
  </g>
</svg>
