<svg xmlns="http://www.w3.org/2000/svg" width="24" height="24"><defs><clipPath id="a"><path d="M0 0h24v24H0z"/></clipPath></defs><g clip-path="url(#a)"><path d="M12 4.192a7.991 7.991 0 00-8 8 8.047 8.047 0 005.475 7.6c.4.075.55-.175.55-.375v-1.5c-2.225.475-2.7-.95-2.7-.95a2.182 2.182 0 00-.9-1.175c-.725-.5.05-.475.05-.475a1.669 1.669 0 011.225.825 1.709 1.709 0 002.325.675 1.732 1.732 0 01.5-1.075c-1.775-.2-3.65-.9-3.65-3.95a3.067 3.067 0 01.825-2.15 2.991 2.991 0 01.075-2.125s.675-.225 2.2.825a7.719 7.719 0 012-.275 7.573 7.573 0 012 .275c1.525-1.025 2.2-.825 2.2-.825a2.991 2.991 0 01.075 2.125 3.024 3.024 0 01.825 2.15c0 3.075-1.875 3.75-3.65 3.95a1.937 1.937 0 01.55 1.475v2.2c0 .225.15.45.55.375a8.047 8.047 0 005.475-7.6 7.991 7.991 0 00-8-8z" fill="#707070" fill-rule="evenodd"/></g></svg>