<svg xmlns="http://www.w3.org/2000/svg" width="24" height="24"><defs><clipPath id="a"><path d="M0 0h24v24H0z"/></clipPath></defs><g data-name="Group 100" fill="none" stroke="#707070" stroke-width="1.5" clip-path="url(#a)"><g data-name="Rectangle 45"><path d="M4 4h4v4H4z" stroke="none"/><path d="M4.75 4.75h2.5v2.5h-2.5z"/></g><g data-name="Rectangle 50"><path d="M4 10h4v4H4z" stroke="none"/><path d="M4.75 10.75h2.5v2.5h-2.5z"/></g><g data-name="Rectangle 53"><path d="M4 16h4v4H4z" stroke="none"/><path d="M4.75 16.75h2.5v2.5h-2.5z"/></g><g data-name="Rectangle 46"><path d="M10 4h4v4h-4z" stroke="none"/><path d="M10.75 4.75h2.5v2.5h-2.5z"/></g><g data-name="Rectangle 51"><path d="M10 10h4v4h-4z" stroke="none"/><path d="M10.75 10.75h2.5v2.5h-2.5z"/></g><g data-name="Rectangle 54"><path d="M10 16h4v4h-4z" stroke="none"/><path d="M10.75 16.75h2.5v2.5h-2.5z"/></g><g data-name="Rectangle 49"><path d="M16 4h4v4h-4z" stroke="none"/><path d="M16.75 4.75h2.5v2.5h-2.5z"/></g><g data-name="Rectangle 52"><path d="M16 10h4v4h-4z" stroke="none"/><path d="M16.75 10.75h2.5v2.5h-2.5z"/></g><g data-name="Rectangle 55"><path d="M16 16h4v4h-4z" stroke="none"/><path d="M16.75 16.75h2.5v2.5h-2.5z"/></g></g></svg>