<svg xmlns="http://www.w3.org/2000/svg" xmlns:xlink="http://www.w3.org/1999/xlink" width="24" height="24" viewBox="0 0 24 24">
  <defs>
    <clipPath id="clip-instagram">
      <rect width="24" height="24"/>
    </clipPath>
  </defs>
  <g id="instagram" clip-path="url(#clip-instagram)">
    <path id="Path_266" data-name="Path 266" d="M6632.948,6190h-6.011a4.948,4.948,0,0,0-4.937,4.955v6.011a4.947,4.947,0,0,0,4.937,4.938h6.011a4.947,4.947,0,0,0,4.938-4.937v-6.011a4.948,4.948,0,0,0-4.937-4.955Zm1.807,3.757a.608.608,0,1,0-1.216,0,.608.608,0,1,0,1.216,0Zm-4.812.269a3.936,3.936,0,0,0,0,7.871,3.86,3.86,0,0,0,2.773-1.163,3.909,3.909,0,0,0,0-5.563A3.845,3.845,0,0,0,6629.942,6194.025Zm0,6.511a2.595,2.595,0,1,1,1.825-.769A2.583,2.583,0,0,1,6629.942,6200.537Zm6.583.429a3.5,3.5,0,0,1-1.056,2.522,3.57,3.57,0,0,1-2.522,1.056h-6.011a3.645,3.645,0,0,1-2.54-1.056,3.554,3.554,0,0,1-1.038-2.522v-6.011a3.565,3.565,0,0,1,1.038-2.54,3.643,3.643,0,0,1,2.54-1.056h6.011a3.568,3.568,0,0,1,2.522,1.056,3.507,3.507,0,0,1,1.056,2.54Z" transform="translate(-6617.943 -6185.952)" fill="#707070" fill-rule="evenodd"/>
  </g>
</svg>
