<svg xmlns="http://www.w3.org/2000/svg" width="24" height="24"><defs><clipPath id="a"><path d="M0 0h24v24H0z"/></clipPath></defs><g clip-path="url(#a)"><path d="M15.005 4.048H8.994a4.948 4.948 0 00-4.937 4.955v6.011a4.947 4.947 0 004.937 4.938h6.011a4.947 4.947 0 004.938-4.937V9.004a4.948 4.948 0 00-4.937-4.955zm1.807 3.757a.608.608 0 10-1.216 0 .608.608 0 101.216 0zM12 8.074a3.936 3.936 0 000 7.871 3.86 3.86 0 002.773-1.163 3.909 3.909 0 000-5.563 3.845 3.845 0 00-2.774-1.146zm0 6.511a2.595 2.595 0 111.825-.769 2.583 2.583 0 01-1.826.769zm6.583.429a3.5 3.5 0 01-1.056 2.522 3.57 3.57 0 01-2.522 1.056H8.994a3.645 3.645 0 01-2.54-1.056 3.554 3.554 0 01-1.038-2.522V9.003a3.565 3.565 0 011.038-2.54 3.643 3.643 0 012.54-1.056h6.011a3.568 3.568 0 012.522 1.056 3.507 3.507 0 011.056 2.54z" fill="#707070" fill-rule="evenodd"/></g></svg>