<svg xmlns="http://www.w3.org/2000/svg" xmlns:xlink="http://www.w3.org/1999/xlink" width="24" height="24" viewBox="0 0 24 24">
  <defs>
    <clipPath id="clip-jsfiddle">
      <rect width="24" height="24"/>
    </clipPath>
  </defs>
  <g id="jsfiddle" clip-path="url(#clip-jsfiddle)">
    <g id="Group_110" data-name="Group 110" transform="translate(4 50.158)">
      <path id="Path_275" data-name="Path 275" d="M14.028-38.658c0-.1.025-.175.025-.275A4.693,4.693,0,0,0,9.31-43.6a4.779,4.779,0,0,0-4.293,2.671,2.242,2.242,0,0,0-1.348-.449,2.174,2.174,0,0,0-2.2,2.147,1.861,1.861,0,0,0,.1.649A3.076,3.076,0,0,0,0-35.887a3.207,3.207,0,0,0,3.17,3.17h9.685A3.122,3.122,0,0,0,16-35.812,3.157,3.157,0,0,0,14.028-38.658ZM4.293-35.088a1.874,1.874,0,0,1-.6-1.048,2.459,2.459,0,0,1-.05-.424,1.841,1.841,0,0,1,.649-1.448,2.385,2.385,0,0,1,1.622-.574,2.769,2.769,0,0,1,1.9.774,3.215,3.215,0,0,1,.4.424l.724.849a2.332,2.332,0,0,0,.4.449,1.8,1.8,0,0,0,1.123.5,1.041,1.041,0,0,0,.724-.275.925.925,0,0,0,.3-.574v-.1a.9.9,0,0,0-.05-.275.977.977,0,0,0-.25-.4,1.088,1.088,0,0,0-.724-.275,1.563,1.563,0,0,0-1.123.5l-.649-.749-.075-.1a2.465,2.465,0,0,1,1.872-.749,2.3,2.3,0,0,1,1.622.574,1.872,1.872,0,0,1,.624,1.473,2.2,2.2,0,0,1-.05.424,1.874,1.874,0,0,1-.6,1.048,2.153,2.153,0,0,1-1.148.549,2.866,2.866,0,0,1-.474.025,2.766,2.766,0,0,1-1.9-.749,2.437,2.437,0,0,1-.424-.449l-.649-.874a2.332,2.332,0,0,0-.4-.449,1.8,1.8,0,0,0-1.123-.5,1.253,1.253,0,0,0-.3.05,1.387,1.387,0,0,0-.424.225.851.851,0,0,0-.275.474c0,.05-.025.125-.025.2a1.011,1.011,0,0,0,.275.674l.025.025a1.1,1.1,0,0,0,.749.275,1.563,1.563,0,0,0,1.123-.5l.649.749.075.075a2.526,2.526,0,0,1-1.872.774A2.566,2.566,0,0,1,4.293-35.088Z" transform="translate(0 0)" fill="#707070"/>
    </g>
  </g>
</svg>
