<svg xmlns="http://www.w3.org/2000/svg" width="24" height="24"><defs><clipPath id="a"><path d="M0 0h24v24H0z"/></clipPath></defs><g data-name="Group 110" clip-path="url(#a)"><path data-name="Path 275" d="M18.028 11.5c0-.1.025-.175.025-.275a4.693 4.693 0 00-4.743-4.667 4.779 4.779 0 00-4.293 2.671 2.242 2.242 0 00-1.348-.449 2.174 2.174 0 00-2.2 2.147 1.861 1.861 0 00.1.649A3.076 3.076 0 004 14.271a3.207 3.207 0 003.17 3.17h9.685A3.122 3.122 0 0020 14.346a3.157 3.157 0 00-1.972-2.846zm-9.735 3.57a1.874 1.874 0 01-.6-1.048 2.459 2.459 0 01-.05-.424 1.841 1.841 0 01.649-1.448 2.385 2.385 0 011.622-.574 2.769 2.769 0 011.9.774 3.215 3.215 0 01.4.424l.724.849a2.332 2.332 0 00.4.449 1.8 1.8 0 001.123.5 1.041 1.041 0 00.724-.275.925.925 0 00.3-.574v-.1a.9.9 0 00-.05-.275.977.977 0 00-.25-.4 1.088 1.088 0 00-.724-.275 1.563 1.563 0 00-1.123.5l-.649-.749-.075-.1a2.465 2.465 0 011.872-.749 2.3 2.3 0 011.622.574 1.872 1.872 0 01.624 1.473 2.2 2.2 0 01-.05.424 1.874 1.874 0 01-.6 1.048 2.153 2.153 0 01-1.148.549 2.866 2.866 0 01-.474.025 2.766 2.766 0 01-1.9-.749 2.437 2.437 0 01-.424-.449l-.649-.874a2.332 2.332 0 00-.4-.449 1.8 1.8 0 00-1.123-.5 1.253 1.253 0 00-.3.05 1.387 1.387 0 00-.424.225.851.851 0 00-.275.474c0 .05-.025.125-.025.2a1.011 1.011 0 00.275.674l.025.025a1.1 1.1 0 00.749.275 1.563 1.563 0 001.123-.5l.649.749.075.075a2.526 2.526 0 01-1.872.774 2.566 2.566 0 01-1.671-.598z" fill="#707070"/></g></svg>