<svg xmlns="http://www.w3.org/2000/svg" xmlns:xlink="http://www.w3.org/1999/xlink" width="24" height="24" viewBox="0 0 24 24">
  <defs>
    <clipPath id="clip-lastfm">
      <rect width="24" height="24"/>
    </clipPath>
  </defs>
  <g id="lastfm" clip-path="url(#clip-lastfm)">
    <g id="Group_112" data-name="Group 112" transform="translate(4 43.93)">
      <path id="Path_277" data-name="Path 277" d="M12.945-32.769c-1.252-.376-1.7-.576-1.7-1,0-.7,1-.851,1.1-.876a1.73,1.73,0,0,1,1.953.926l1.7-.526a3.459,3.459,0,0,0-3.931-2.128,2.758,2.758,0,0,0-2.629,2.6c0,1.778,1.728,2.3,2.98,2.654,1.327.4,1.778.626,1.778,1.1,0,.4-.326.6-.977.776-1.277.326-3,0-3.455-.776a11.742,11.742,0,0,1-.776-1.753c-.751-2-1.8-4.732-4.808-4.732C2.629-36.475,0-35.849,0-31.567a4.125,4.125,0,0,0,4.131,4.207c2.4,0,2.8-.977,2.9-1.152L6.26-30.04a2.832,2.832,0,0,1-2.128.926c-2.254,0-2.354-2.429-2.354-2.454,0-2.228.726-3.155,2.4-3.155,1.653,0,2.3,1.427,3.13,3.581a11.747,11.747,0,0,0,.9,2.028c.751,1.227,2.454,1.753,4.081,1.753a5,5,0,0,0,1.4-.175c1.427-.376,2.3-1.252,2.3-2.454C16-31.843,14.247-32.369,12.945-32.769Z" fill="#707070"/>
    </g>
  </g>
</svg>
