<svg xmlns="http://www.w3.org/2000/svg" width="24" height="24"><defs><clipPath id="a"><path d="M0 0h24v24H0z"/></clipPath></defs><g data-name="Group 85" fill="#707070" clip-path="url(#a)"><path d="M13.389 15.353l-3.536 3.535a3 3 0 01-4.242 0 3 3 0 010-4.242l3.535-3.536 1.06 1.061-3.535 3.536a1.5 1.5 0 000 2.12 1.5 1.5 0 002.122 0l3.535-3.535a1.5 1.5 0 000-2.121l1.06-1.06a3 3 0 010 4.242z"/><path d="M11.122 9.636l3.535-3.535a3 3 0 114.243 4.242l-3.536 3.536-1.06-1.06 3.535-3.536a1.5 1.5 0 10-2.121-2.122l-3.536 3.536a1.5 1.5 0 000 2.121l-1.06 1.06a3 3 0 010-4.242z"/></g></svg>