<svg xmlns="http://www.w3.org/2000/svg" width="24" height="24"><defs><clipPath id="a"><path d="M0 0h24v24H0z"/></clipPath></defs><g fill="#707070" fill-rule="evenodd" clip-path="url(#a)"><path d="M5.924 4.044A1.913 1.913 0 114 5.944a1.929 1.929 0 011.924-1.9zM7.049 20H4.8a.531.531 0 01-.541-.519v-9.6a.535.535 0 01.541-.54h2.249a.53.53 0 01.519.54v9.6a.526.526 0 01-.519.519zM20 12.714a3.631 3.631 0 00-3.655-3.632h-.562a3.217 3.217 0 00-2.66 1.384 1.214 1.214 0 00-.173.281h-.043V9.558a.216.216 0 00-.216-.216H9.88a.232.232 0 00-.216.216v10.224a.232.232 0 00.216.216h2.876a.216.216 0 00.216-.216v-5.9a1.865 1.865 0 013.179-1.341 1.923 1.923 0 01.54 1.319v5.924a.217.217 0 00.216.216h2.875a.217.217 0 00.217-.216v-7.07z"/></g></svg>