<svg xmlns="http://www.w3.org/2000/svg" width="24" height="24"><defs><clipPath id="a"><path d="M0 0h24v24H0z"/></clipPath></defs><g data-name="Group 99" fill="#707070" stroke="#707070" stroke-width="1.5" clip-path="url(#a)"><g data-name="Rectangle 45"><path stroke="none" d="M4 4h4v4H4z"/><path fill="none" d="M4.75 4.75h2.5v2.5h-2.5z"/></g><g data-name="Rectangle 50"><path stroke="none" d="M4 10h4v4H4z"/><path fill="none" d="M4.75 10.75h2.5v2.5h-2.5z"/></g><g data-name="Rectangle 53"><path stroke="none" d="M4 16h4v4H4z"/><path fill="none" d="M4.75 16.75h2.5v2.5h-2.5z"/></g><g data-name="Rectangle 46"><path stroke="none" d="M10 4h10v4H10z"/><path fill="none" d="M10.75 4.75h8.5v2.5h-8.5z"/></g><g data-name="Rectangle 51"><path stroke="none" d="M10 10h10v4H10z"/><path fill="none" d="M10.75 10.75h8.5v2.5h-8.5z"/></g><g data-name="Rectangle 54"><path stroke="none" d="M10 16h10v4H10z"/><path fill="none" d="M10.75 16.75h8.5v2.5h-8.5z"/></g></g></svg>