<svg xmlns="http://www.w3.org/2000/svg" width="24" height="24"><defs><clipPath id="a"><path d="M0 0h24v24H0z"/></clipPath></defs><g data-name="Group 41" clip-path="url(#a)"><g data-name="Path 17" fill="none"><path d="M12 19.28s5.462-4.781 5.46-8.737A5.651 5.651 0 0012 4.719a5.651 5.651 0 00-5.46 5.824C6.54 14.5 12 19.28 12 19.28z"/><path d="M12.003 17.203c1.596-1.633 3.959-4.512 3.958-6.66 0-2.384-1.777-4.324-3.96-4.324-2.184 0-3.961 1.94-3.961 4.324 0 1.245.842 2.976 2.37 4.876.563.7 1.133 1.316 1.593 1.784M12 19.28s-5.46-4.78-5.46-8.737C6.54 7.327 8.985 4.72 12 4.72c3.016 0 5.46 2.608 5.46 5.824C17.463 14.5 12 19.28 12 19.28z" fill="#707070"/></g><g data-name="Ellipse 17" transform="translate(10.5 8.5)" fill="#fff" stroke="#707070" stroke-width="1.5"><circle cx="1.5" cy="1.5" r="1.5" stroke="none"/><circle cx="1.5" cy="1.5" r=".75" fill="none"/></g></g></svg>