<svg xmlns="http://www.w3.org/2000/svg" xmlns:xlink="http://www.w3.org/1999/xlink" width="24" height="24" viewBox="0 0 24 24">
  <defs>
    <clipPath id="clip-location">
      <rect width="24" height="24"/>
    </clipPath>
  </defs>
  <g id="location" clip-path="url(#clip-location)">
    <g id="Group_41" data-name="Group 41">
      <g id="Path_17" data-name="Path 17" transform="translate(6.54 7.719)" fill="none">
        <path d="M5.46,11.561s5.462-4.781,5.46-8.737A5.651,5.651,0,0,0,5.46-3,5.651,5.651,0,0,0,0,2.824C0,6.781,5.46,11.561,5.46,11.561Z" stroke="none"/>
        <path d="M 5.462740421295166 9.484404563903809 C 7.058746337890625 7.851093769073486 9.421664237976074 4.971555233001709 9.420901298522949 2.82448148727417 C 9.420901298522949 0.4399515092372894 7.644251346588135 -1.499998450279236 5.460451126098633 -1.499998450279236 C 3.27665114402771 -1.499998450279236 1.500001072883606 0.4399515092372894 1.500001072883606 2.82448148727417 C 1.500001072883606 4.068951606750488 2.341511011123657 5.80031156539917 3.869511127471924 7.699601650238037 C 4.433216094970703 8.400289535522461 5.002748966217041 9.015778541564941 5.462740421295166 9.484404563903809 M 5.460451126098633 11.56120109558105 C 5.460451126098633 11.56120109558105 1.123046899920155e-06 6.780591487884521 1.123046899920155e-06 2.82448148727417 C 1.123046899920155e-06 -0.3922885060310364 2.44473123550415 -2.999998569488525 5.460451126098633 -2.999998569488525 C 8.476171493530273 -2.999998569488525 10.92090129852295 -0.3922885060310364 10.92090129852295 2.82448148727417 C 10.92230129241943 6.780591487884521 5.460451126098633 11.56120109558105 5.460451126098633 11.56120109558105 Z" stroke="none" fill="#707070"/>
      </g>
      <g id="Ellipse_17" data-name="Ellipse 17" transform="translate(10.5 8.5)" fill="#fff" stroke="#707070" stroke-width="1.5">
        <circle cx="1.5" cy="1.5" r="1.5" stroke="none"/>
        <circle cx="1.5" cy="1.5" r="0.75" fill="none"/>
      </g>
    </g>
  </g>
</svg>
