<svg xmlns="http://www.w3.org/2000/svg" xmlns:xlink="http://www.w3.org/1999/xlink" width="24" height="24" viewBox="0 0 24 24">
  <defs>
    <clipPath id="clip-location_solid">
      <rect width="24" height="24"/>
    </clipPath>
  </defs>
  <g id="location_solid" clip-path="url(#clip-location_solid)">
    <g id="Subtraction_17" data-name="Subtraction 17" transform="translate(886.54 76.719)" fill="#707070">
      <path d="M -874.5399169921875 -58.46179580688477 C -875.04345703125 -58.94545745849609 -875.8639526367188 -59.77672958374023 -876.686767578125 -60.79510116577148 C -878.33984375 -62.84125137329102 -879.250244140625 -64.75194549560547 -879.250244140625 -66.17520141601562 C -879.250244140625 -68.97344970703125 -877.13720703125 -71.25 -874.5399169921875 -71.25 C -871.942138671875 -71.25 -869.8287353515625 -68.97344970703125 -869.8287353515625 -66.17520141601562 C -869.8284301757812 -64.75191497802734 -870.7388916015625 -62.84129333496094 -872.392333984375 -60.79513168334961 C -873.2145385742188 -59.77767944335938 -874.035888671875 -58.9458122253418 -874.5399169921875 -58.46179580688477 Z M -874.5399169921875 -68.96910095214844 C -875.7802124023438 -68.96910095214844 -876.789306640625 -67.96002197265625 -876.789306640625 -66.71968841552734 C -876.789306640625 -65.4788818359375 -875.7802124023438 -64.46939849853516 -874.5399169921875 -64.46939849853516 C -873.299072265625 -64.46939849853516 -872.2896118164062 -65.4788818359375 -872.2896118164062 -66.71968841552734 C -872.2896118164062 -67.96002197265625 -873.299072265625 -68.96910095214844 -874.5399169921875 -68.96910095214844 Z" stroke="none"/>
      <path d="M -874.5389404296875 -59.51742553710938 C -874.0888061523438 -59.97607803344727 -873.5331420898438 -60.57663726806641 -872.9756469726562 -61.26651000976562 C -871.4296875 -63.17964172363281 -870.5784912109375 -64.92279815673828 -870.5787353515625 -66.17520141601562 C -870.5787353515625 -68.55989837646484 -872.355712890625 -70.5 -874.5399169921875 -70.5 C -876.7236328125 -70.5 -878.500244140625 -68.55989837646484 -878.500244140625 -66.17520141601562 C -878.500244140625 -64.92290496826172 -877.6489868164062 -63.17959213256836 -876.1033935546875 -61.26644134521484 C -875.5502319335938 -60.58185577392578 -874.9918823242188 -59.97893142700195 -874.5389404296875 -59.51742553710938 M -874.5399169921875 -69.71910095214844 C -872.8855590820312 -69.71910095214844 -871.5396118164062 -68.37357330322266 -871.5396118164062 -66.71968841552734 C -871.5396118164062 -65.06532287597656 -872.8855590820312 -63.71940231323242 -874.5399169921875 -63.71940231323242 C -876.1937866210938 -63.71940231323242 -877.539306640625 -65.06532287597656 -877.539306640625 -66.71968841552734 C -877.539306640625 -68.37357330322266 -876.1937866210938 -69.71910095214844 -874.5399169921875 -69.71910095214844 M -874.5399169921875 -57.43890380859375 L -874.5405883789062 -57.43948364257812 C -874.5968627929688 -57.48896026611328 -875.9342651367188 -58.67034149169922 -877.2701416015625 -60.32376098632812 C -878.515625 -61.86539077758789 -880.000244140625 -64.13196563720703 -880.000244140625 -66.17520141601562 C -880.000244140625 -69.38700866699219 -877.55078125 -72 -874.5399169921875 -72 C -871.5286254882812 -72 -869.0787353515625 -69.38700866699219 -869.0787353515625 -66.17520141601562 C -869.0783081054688 -64.13191223144531 -870.563232421875 -61.86534118652344 -871.8089599609375 -60.3237419128418 C -873.14404296875 -58.67167282104492 -874.48291015625 -57.48902130126953 -874.5392456054688 -57.43948364257812 L -874.5399169921875 -57.43890380859375 Z M -874.5399169921875 -68.21910095214844 C -875.36669921875 -68.21910095214844 -876.039306640625 -67.54647064208984 -876.039306640625 -66.71968841552734 C -876.039306640625 -65.89243316650391 -875.36669921875 -65.21939849853516 -874.5399169921875 -65.21939849853516 C -873.712646484375 -65.21939849853516 -873.0396118164062 -65.89243316650391 -873.0396118164062 -66.71968841552734 C -873.0396118164062 -67.54647064208984 -873.712646484375 -68.21910095214844 -874.5399169921875 -68.21910095214844 Z" stroke="none" fill="#707070"/>
    </g>
  </g>
</svg>
