<svg xmlns="http://www.w3.org/2000/svg" width="24" height="24"><defs><clipPath id="a"><path d="M0 0h24v24H0z"/></clipPath></defs><g data-name="Subtraction 17" fill="#707070" clip-path="url(#a)"><path d="M12 18.257a25.843 25.843 0 01-2.147-2.333C8.2 13.878 7.29 11.967 7.29 10.544c0-2.798 2.113-5.075 4.71-5.075 2.598 0 4.711 2.277 4.711 5.075 0 1.423-.91 3.334-2.563 5.38A25.846 25.846 0 0112 18.257zM12 7.75A2.253 2.253 0 009.75 10c0 1.24 1.01 2.25 2.25 2.25s2.25-1.01 2.25-2.25c0-1.241-1.01-2.25-2.25-2.25z"/><path d="M12.001 17.202a24.64 24.64 0 001.563-1.75c1.546-1.913 2.398-3.656 2.397-4.908 0-2.385-1.777-4.325-3.96-4.325-2.185 0-3.961 1.94-3.961 4.325 0 1.252.851 2.995 2.397 4.909A24.672 24.672 0 0012 17.202M12 7c1.653 0 3 1.345 3 3 0 1.654-1.347 3-3 3-1.655 0-3-1.346-3-3 0-1.655 1.345-3 3-3m0 12.28h-.002a25.886 25.886 0 01-2.73-2.885c-1.245-1.541-2.73-3.808-2.73-5.851 0-3.212 2.45-5.825 5.461-5.825s5.461 2.613 5.461 5.825c0 2.043-1.484 4.31-2.73 5.851A25.91 25.91 0 0112 19.28zM12 8.5a1.501 1.501 0 000 3c.826 0 1.5-.673 1.5-1.5s-.674-1.5-1.5-1.5z"/></g></svg>