<svg xmlns="http://www.w3.org/2000/svg" width="24" height="24"><defs><clipPath id="a"><path d="M0 0h24v24H0z"/></clipPath></defs><g data-name="Group 90" clip-path="url(#a)"><path fill="none" stroke="#707070" stroke-width="1.5" d="M9 19.25h6M12 17v3"/><g fill="#707070"><path d="M12 17a5.508 5.508 0 01-5.478-5h.503a4.966 4.966 0 001.44 3.034A4.966 4.966 0 0012 16.5a5.007 5.007 0 004.975-4.5h.503A5.508 5.508 0 0112 17z"/><path d="M12 17.5c-3.309 0-6-2.692-6-6h1.5c0 1.2.469 2.33 1.32 3.18A4.47 4.47 0 0012 16c2.481 0 4.5-2.019 4.5-4.5H18c0 3.309-2.692 6-6 6z"/></g><g data-name="mic" transform="translate(8.5 4)" fill="none" stroke="#707070" stroke-width="1.5"><rect width="7" height="11" rx="3.5" stroke="none"/><rect x=".75" y=".75" width="5.5" height="9.5" rx="2.75"/></g></g></svg>