<svg xmlns="http://www.w3.org/2000/svg" xmlns:xlink="http://www.w3.org/1999/xlink" width="24" height="24" viewBox="0 0 24 24">
  <defs>
    <clipPath id="clip-mic_solid">
      <rect width="24" height="24"/>
    </clipPath>
  </defs>
  <g id="mic_solid" clip-path="url(#clip-mic_solid)">
    <g id="Group_90" data-name="Group 90">
      <line id="base" x2="6" transform="translate(9 19.25)" fill="none" stroke="#707070" stroke-width="1.5"/>
      <line id="neck" y2="3" transform="translate(12 17)" fill="none" stroke="#707070" stroke-width="1.5"/>
      <g id="frame" transform="translate(172 327.5)" fill="#707070">
        <path d="M -160.0001983642578 -310.5005187988281 C -162.8644256591797 -310.5005187988281 -165.224365234375 -312.7010803222656 -165.4779510498047 -315.4999084472656 L -164.9754333496094 -315.4999084472656 C -164.8617706298828 -314.3544311523438 -164.3599853515625 -313.2916259765625 -163.5341186523438 -312.4657287597656 C -162.5888366699219 -311.5204772949219 -161.3338012695312 -310.9999084472656 -160.0001983642578 -310.9999084472656 C -157.4119720458984 -310.9999084472656 -155.2767333984375 -312.9768371582031 -155.0250091552734 -315.4999084472656 L -154.5224456787109 -315.4999084472656 C -154.7760314941406 -312.7010803222656 -157.1359710693359 -310.5005187988281 -160.0001983642578 -310.5005187988281 Z" stroke="none"/>
        <path d="M -160.0001983642578 -310.0005187988281 C -163.3087768554688 -310.0005187988281 -166.00048828125 -312.6918334960938 -166.00048828125 -315.9999084472656 L -164.5001983642578 -315.9999084472656 C -164.4996795654297 -314.79931640625 -164.0313720703125 -313.6701049804688 -163.1805572509766 -312.8192749023438 C -162.3297424316406 -311.9684753417969 -161.2002716064453 -311.4999084472656 -160.0001983642578 -311.4999084472656 C -157.5188903808594 -311.4999084472656 -155.5001983642578 -313.5186157226562 -155.5001983642578 -315.9999084472656 L -153.9999084472656 -315.9999084472656 C -153.9999084472656 -312.6913757324219 -156.6920776367188 -310.0005187988281 -160.0001983642578 -310.0005187988281 Z" stroke="none" fill="#707070"/>
      </g>
      <g id="mic" transform="translate(8.5 4)" fill="#707070" stroke="#707070" stroke-width="1.5">
        <rect width="7" height="11" rx="3.5" stroke="none"/>
        <rect x="0.75" y="0.75" width="5.5" height="9.5" rx="2.75" fill="none"/>
      </g>
    </g>
  </g>
</svg>
