<svg xmlns="http://www.w3.org/2000/svg" width="24" height="24"><defs><clipPath id="a"><path d="M0 0h24v24H0z"/></clipPath></defs><g fill="#707070" stroke-linecap="round" stroke-linejoin="round" clip-path="url(#a)"><path d="M16 18.75H8a.25.25 0 01-.25-.25v-13A.25.25 0 018 5.25h8a.25.25 0 01.25.25v13a.25.25 0 01-.25.25zm-4-4.5c-.965 0-1.75.785-1.75 1.75s.785 1.75 1.75 1.75 1.75-.785 1.75-1.75-.785-1.75-1.75-1.75z"/><path d="M15.5 18V6h-7v12h2.002A2.498 2.498 0 0112 13.5a2.498 2.498 0 011.498 4.5H15.5m.5 1.5H8c-.551 0-1-.448-1-1v-13c0-.551.449-1 1-1h8c.552 0 1 .449 1 1v13a1 1 0 01-1 1zM12 15a1.001 1.001 0 000 2 1.001 1.001 0 000-2z"/></g></svg>