<svg xmlns="http://www.w3.org/2000/svg" xmlns:xlink="http://www.w3.org/1999/xlink" width="24" height="24" viewBox="0 0 24 24">
  <defs>
    <clipPath id="clip-package">
      <rect width="24" height="24"/>
    </clipPath>
  </defs>
  <g id="package" clip-path="url(#clip-package)">
    <g id="Group_77" data-name="Group 77">
      <g id="Polygon_2" data-name="Polygon 2" transform="translate(3.5 20.5) rotate(-90)" fill="none">
        <path d="M12.75,0,17,8.5,12.75,17H4.25L0,8.5,4.25,0Z" stroke="none"/>
        <path d="M 5.17704963684082 1.5 L 1.67704963684082 8.5 L 5.17704963684082 15.5 L 11.82295036315918 15.5 L 15.32295036315918 8.5 L 11.82295036315918 1.5 L 5.17704963684082 1.5 M 4.25 0 L 12.75 0 L 17 8.5 L 12.75 17 L 4.25 17 L 0 8.5 L 4.25 0 Z" stroke="none" fill="#707070"/>
      </g>
      <path id="Path_38" data-name="Path 38" d="M88.295,188.288,96,192l7.613-3.712" transform="translate(-84 -180)" fill="none" stroke="#707070" stroke-width="1.5"/>
      <path id="Path_39" data-name="Path 39" d="M96,192v7.15" transform="translate(-84 -180)" fill="none" stroke="#707070" stroke-width="1.5"/>
      <line id="Line_37" data-name="Line 37" x2="8" y2="4" transform="translate(8 6)" fill="none" stroke="#707070" stroke-width="1.5"/>
    </g>
  </g>
</svg>
