<svg xmlns="http://www.w3.org/2000/svg" xmlns:xlink="http://www.w3.org/1999/xlink" width="24" height="24" viewBox="0 0 24 24">
  <defs>
    <clipPath id="clip-paypal">
      <rect width="24" height="24"/>
    </clipPath>
  </defs>
  <g id="paypal" clip-path="url(#clip-paypal)">
    <g id="Group_118" data-name="Group 118" transform="translate(5.192 67.9)">
      <path id="Path_284" data-name="Path 284" d="M4.239-54.686l-.025.15a.7.7,0,0,1,.7-.6H6.368c2.829,0,5.058-1.152,5.709-4.482.025-.1.025-.2.05-.275a3.1,3.1,0,0,0-.676-2.829A5.007,5.007,0,0,0,7.67-63.9H2.762a.7.7,0,0,0-.7.6L.008-50.329a.408.408,0,0,0,.426.476h3.03l.776-4.833" transform="translate(0 0)" fill="#707070"/>
      <path id="Path_285" data-name="Path 285" d="M23.363-45.275c-.05-.05-.075-.1-.125-.125-.626,3.255-2.829,4.983-6.31,4.983H15.476c-.025,0-.05.025-.075.05l-.776,4.983a.237.237,0,0,1-.275.225h-.1a.371.371,0,0,0-.351.3l-.075.4a.382.382,0,0,0,.376.426h2.554a.617.617,0,0,0,.6-.526l.025-.125.476-3.055.025-.175a.617.617,0,0,1,.6-.526h.376c2.479,0,4.407-1,4.983-3.906A3.217,3.217,0,0,0,23.363-45.275Z" transform="translate(-10.36 -13.868)" fill="#707070"/>
    </g>
  </g>
</svg>
