<svg xmlns="http://www.w3.org/2000/svg" xmlns:xlink="http://www.w3.org/1999/xlink" width="24" height="24" viewBox="0 0 24 24">
  <defs>
    <clipPath id="clip-pie_chart_solid">
      <rect width="24" height="24"/>
    </clipPath>
  </defs>
  <g id="pie_chart_solid" clip-path="url(#clip-pie_chart_solid)">
    <g id="Group_66" data-name="Group 66">
      <g id="Subtraction_19" data-name="Subtraction 19" transform="translate(968 76)" fill="#707070">
        <path d="M -955.9998168945312 -56.74980926513672 C -959.99755859375 -56.74980926513672 -963.2499389648438 -60.00218963623047 -963.2499389648438 -63.99990844726562 C -963.2499389648438 -65.81763458251953 -962.5740966796875 -67.55636596679688 -961.3469848632812 -68.89579010009766 C -960.31591796875 -70.02109527587891 -958.9722290039062 -70.78459167480469 -957.5004272460938 -71.09447479248047 L -957.5004272460938 -63.00000762939453 L -957.5004272460938 -62.58060836791992 L -957.5004272460938 -61.33823776245117 L -956.4010620117188 -61.91693878173828 L -948.9805908203125 -65.82307434082031 C -948.8271484375 -65.23110961914062 -948.7496948242188 -64.62075805664062 -948.7496948242188 -63.99990844726562 C -948.7496948242188 -60.00218963623047 -952.0020751953125 -56.74980926513672 -955.9998168945312 -56.74980926513672 Z M -954.5001220703125 -66.37136840820312 L -954.5001220703125 -71.09395599365234 C -953.673095703125 -70.91896820068359 -952.8762817382812 -70.59891510009766 -952.16015625 -70.15084838867188 C -951.4639282226562 -69.71520233154297 -950.8408813476562 -69.15774536132812 -950.3275756835938 -68.51492309570312 L -954.5001220703125 -66.37136840820312 Z" stroke="none"/>
        <path d="M -955.9998168945312 -57.49980926513672 C -952.4156494140625 -57.49980926513672 -949.4996948242188 -60.41573715209961 -949.4996948242188 -63.99990844726562 C -949.4996948242188 -64.22963714599609 -949.5115356445312 -64.45769500732422 -949.5350341796875 -64.68365478515625 L -956.0516967773438 -61.25327682495117 L -958.2504272460938 -60.09587860107422 L -958.2504272460938 -62.58060836791992 L -958.2504272460938 -63.00000762939453 L -958.2504272460938 -70.09996032714844 C -959.2130126953125 -69.74481201171875 -960.085693359375 -69.16219329833984 -960.7939453125 -68.38914489746094 C -961.8941040039062 -67.18837738037109 -962.4999389648438 -65.62958526611328 -962.4999389648438 -63.99990844726562 C -962.4999389648438 -60.41573715209961 -959.583984375 -57.49980926513672 -955.9998168945312 -57.49980926513672 M -953.7501220703125 -67.59983825683594 L -951.5453491210938 -68.73251342773438 C -951.8565673828125 -69.02577972412109 -952.1962280273438 -69.28871917724609 -952.5579223632812 -69.51503753662109 C -952.93359375 -69.75006866455078 -953.333984375 -69.94578552246094 -953.7501220703125 -70.09913635253906 L -953.7501220703125 -67.59983825683594 M -955.9998168945312 -55.99980926513672 C -960.4111328125 -55.99980926513672 -963.9999389648438 -59.58863830566406 -963.9999389648438 -63.99990844726562 C -963.9999389648438 -66.00570678710938 -963.254150390625 -67.92435455322266 -961.8999633789062 -69.40243530273438 C -960.5542602539062 -70.87118530273438 -958.7254638671875 -71.78132629394531 -956.7504272460938 -71.9652099609375 L -956.7504272460938 -63.00000762939453 L -956.7504272460938 -62.58060836791992 L -948.542236328125 -66.90139770507812 C -948.1817626953125 -65.97544860839844 -947.9996948242188 -64.99942016601562 -947.9996948242188 -63.99990844726562 C -947.9996948242188 -59.58863830566406 -951.5885009765625 -55.99980926513672 -955.9998168945312 -55.99980926513672 Z M -955.2501220703125 -65.14289093017578 L -955.2501220703125 -65.14453125 L -955.2501220703125 -71.96528625488281 C -954.0164184570312 -71.85054016113281 -952.810791015625 -71.44263458251953 -951.7623291015625 -70.78665924072266 C -950.7382202148438 -70.14585876464844 -949.8577880859375 -69.26615142822266 -949.21630859375 -68.24263763427734 L -955.2486572265625 -65.14363861083984 L -955.2501220703125 -65.14289093017578 Z" stroke="none" fill="#707070"/>
      </g>
      <path id="Path_54" data-name="Path 54" d="M236,228" transform="translate(-224 -216)" fill="none" stroke="#707070" stroke-width="1.5"/>
    </g>
  </g>
</svg>
