<svg xmlns="http://www.w3.org/2000/svg" width="24" height="24"><defs><clipPath id="a"><path d="M0 0h24v24H0z"/></clipPath></defs><g fill="#707070" stroke-linecap="round" stroke-linejoin="round" clip-path="url(#a)"><path d="M12 19.25c-3.998 0-7.25-3.252-7.25-7.25a7.23 7.23 0 0 1 1.903-4.896A7.235 7.235 0 0 1 10.5 4.906v9.756l1.099-.579 7.42-3.906c.154.592.231 1.202.231 1.823 0 3.998-3.252 7.25-7.25 7.25zm1.5-9.621V4.906a7.254 7.254 0 0 1 4.172 2.58L13.5 9.628z"/><path d="M12 18.5a6.507 6.507 0 0 0 6.465-7.184l-6.517 3.43A1.499 1.499 0 0 1 9.75 13.42V5.9a6.5 6.5 0 0 0-2.544 1.71A6.481 6.481 0 0 0 5.5 12c0 3.584 2.916 6.5 6.5 6.5m2.25-10.1 2.205-1.133A6.462 6.462 0 0 0 14.25 5.9v2.5M12 20c-4.411 0-8-3.589-8-8 0-2.006.746-3.924 2.1-5.402a7.977 7.977 0 0 1 5.15-2.563v9.385l8.208-4.321A7.97 7.97 0 0 1 20 12c0 4.411-3.589 8-8 8zm.75-9.143V4.035a8.005 8.005 0 0 1 3.488 1.178 8.08 8.08 0 0 1 2.546 2.544l-6.033 3.1h-.001z"/></g></svg>