<svg xmlns="http://www.w3.org/2000/svg" xmlns:xlink="http://www.w3.org/1999/xlink" width="24" height="24" viewBox="0 0 24 24">
  <defs>
    <clipPath id="clip-pinterest">
      <rect width="24" height="24"/>
    </clipPath>
  </defs>
  <g id="pinterest" clip-path="url(#clip-pinterest)">
    <path id="Path_28" data-name="Path 28" d="M6611.759,549.08a8.041,8.041,0,1,1,.992.349c.257-.624.551-1.248.752-1.891.221-.643.349-1.322.515-1.946.128.11.275.239.422.349a2.711,2.711,0,0,0,2.5.441,3.715,3.715,0,0,0,2.24-1.542,6.086,6.086,0,0,0,1.047-4.443,4.188,4.188,0,0,0-2.736-3.433,5.868,5.868,0,0,0-6.371,1.065,4.611,4.611,0,0,0-1.229,5.1,2.436,2.436,0,0,0,1.194,1.3c.293.147.421.092.513-.22a.135.135,0,0,1,.019-.073,1.148,1.148,0,0,0-.166-1.193,2.7,2.7,0,0,1-.183-2.46,3.74,3.74,0,0,1,3.561-2.662,5.557,5.557,0,0,1,1.34.147,2.761,2.761,0,0,1,2.185,2.625,5.952,5.952,0,0,1-.551,3.029,3.133,3.133,0,0,1-.973,1.212,1.669,1.669,0,0,1-1.376.257,1.212,1.212,0,0,1-.9-1.487c.184-.716.4-1.414.588-2.111a3.363,3.363,0,0,0,.092-.936,1.045,1.045,0,0,0-1.616-.826,1.844,1.844,0,0,0-.881,1.322,3.228,3.228,0,0,0,.128,1.671.828.828,0,0,1,.018.367c-.349,1.469-.7,2.919-1.009,4.369a10.869,10.869,0,0,0-.111,1.322Z" transform="translate(-6602.856 -529.764)" fill="#707070" fill-rule="evenodd"/>
  </g>
</svg>
