<svg xmlns="http://www.w3.org/2000/svg" width="24" height="24"><defs><clipPath id="a"><path d="M0 0h24v24H0z"/></clipPath></defs><g clip-path="url(#a)"><path d="M8.903 19.316a8.041 8.041 0 11.992.349c.257-.624.551-1.248.752-1.891.221-.643.349-1.322.515-1.946.128.11.275.239.422.349a2.711 2.711 0 002.5.441 3.715 3.715 0 002.24-1.542 6.086 6.086 0 001.047-4.443A4.188 4.188 0 0014.635 7.2a5.868 5.868 0 00-6.371 1.065 4.611 4.611 0 00-1.229 5.1 2.436 2.436 0 001.194 1.3c.293.147.421.092.513-.22a.135.135 0 01.019-.073 1.148 1.148 0 00-.166-1.193 2.7 2.7 0 01-.183-2.46 3.74 3.74 0 013.561-2.662 5.557 5.557 0 011.34.147 2.761 2.761 0 012.185 2.625 5.952 5.952 0 01-.551 3.029 3.133 3.133 0 01-.973 1.212 1.669 1.669 0 01-1.376.257 1.212 1.212 0 01-.9-1.487c.184-.716.4-1.414.588-2.111a3.363 3.363 0 00.092-.936 1.045 1.045 0 00-1.616-.826 1.844 1.844 0 00-.881 1.322 3.228 3.228 0 00.128 1.671.828.828 0 01.018.367c-.349 1.469-.7 2.919-1.009 4.369a10.869 10.869 0 00-.111 1.322z" fill="#707070" fill-rule="evenodd"/></g></svg>