<svg xmlns="http://www.w3.org/2000/svg" width="24" height="24"><defs><clipPath id="a"><path d="M0 0h24v24H0z"/></clipPath></defs><g clip-path="url(#a)"><g data-name="Group 92"><g data-name="Path 85" fill="none"><path d="M12 4l7 4c0 8-7 12-7 12S5 16 5 8z"/><path d="M12 5.728L6.53 8.853c.183 2.581 1.2 4.96 3.033 7.084a15.063 15.063 0 002.439 2.258c1.57-1.154 5.102-4.288 5.467-9.342L12 5.728M12 4l7 4c0 8-7 12-7 12S5 16 5 8l7-4z" fill="#707070"/></g></g><path data-name="Line 3" fill="none" stroke="#707070" stroke-width="1.5" d="M12 8v5.966"/><path data-name="Line 4" fill="none" stroke="#707070" stroke-width="1.5" d="M9.017 10.983h5.966"/></g></svg>