<svg xmlns="http://www.w3.org/2000/svg" width="24" height="24"><defs><clipPath id="a"><path d="M0 0h24v24H0z"/></clipPath></defs><g clip-path="url(#a)"><path d="M12 20a8.009 8.009 0 0 1-8-8 8.009 8.009 0 0 1 8-8 8.009 8.009 0 0 1 8 8 8.009 8.009 0 0 1-8 8zm-3.339-8.911A.912.912 0 0 0 7.75 12a.912.912 0 0 0 .911.911h2.429v2.428a.911.911 0 0 0 .91.911.912.912 0 0 0 .911-.911v-2.428h2.429a.911.911 0 0 0 .91-.911.911.911 0 0 0-.91-.911h-2.429V8.661A.912.912 0 0 0 12 7.75a.911.911 0 0 0-.91.911v2.428z" fill="#707070"/></g></svg>