<svg xmlns="http://www.w3.org/2000/svg" xmlns:xlink="http://www.w3.org/1999/xlink" width="24" height="24" viewBox="0 0 24 24">
  <defs>
    <clipPath id="clip-reddit">
      <rect width="24" height="24"/>
    </clipPath>
  </defs>
  <g id="reddit" clip-path="url(#clip-reddit)">
    <g id="Group_120" data-name="Group 120" transform="translate(4 58.987)">
      <path id="Path_287" data-name="Path 287" d="M19.275-26.9a1.076,1.076,0,0,1,1.075,1.075,1.076,1.076,0,0,1-1.075,1.075A1.076,1.076,0,0,1,18.2-25.825,1.076,1.076,0,0,1,19.275-26.9Z" transform="translate(-13.65 -20.1)" fill="#707070" fill-rule="evenodd"/>
      <path id="Path_288" data-name="Path 288" d="M16-46.8a2.4,2.4,0,0,0-2.35-2.425,2.089,2.089,0,0,0-1.225.375A8.514,8.514,0,0,0,8.4-49.95l.875-2.525,1.825.425c0,.05-.025.125-.025.175A1.835,1.835,0,0,0,12.9-50.05a1.835,1.835,0,0,0,1.825-1.825A1.835,1.835,0,0,0,12.9-53.7a1.827,1.827,0,0,0-1.55.875l-2.6-.625-1.225,3.5a8.446,8.446,0,0,0-4,1.175c.025-.025.05-.025.05-.05a2.267,2.267,0,0,0-1.275-.4A2.388,2.388,0,0,0,0-46.8a2.374,2.374,0,0,0,1.175,2.075c.275,2.5,3.25,4.45,6.875,4.45,3.65,0,6.625-2,6.875-4.5A2.409,2.409,0,0,0,16-46.8Zm-3.1-6.075a1,1,0,0,1,1,1,1,1,0,0,1-1,1,1,1,0,0,1-1-1A1,1,0,0,1,12.9-52.875ZM2.35-48.4a1.947,1.947,0,0,1,.525.1A4.287,4.287,0,0,0,1.2-45.725,1.582,1.582,0,0,1,.8-46.8,1.585,1.585,0,0,1,2.35-48.4Zm5.7,7.325c-3.35,0-6.1-1.8-6.1-4.05,0-2.225,2.725-4.05,6.1-4.05,3.35,0,6.075,1.8,6.075,4.05S11.4-41.075,8.05-41.075Zm6.8-4.75a4.436,4.436,0,0,0-1.65-2.5,1.416,1.416,0,0,1,.45-.075,1.564,1.564,0,0,1,1.525,1.6A1.36,1.36,0,0,1,14.85-45.825Z" transform="translate(0 0)" fill="#707070"/>
      <path id="Path_289" data-name="Path 289" d="M37.775-26.9a1.076,1.076,0,0,1,1.075,1.075,1.076,1.076,0,0,1-1.075,1.075A1.076,1.076,0,0,1,36.7-25.825,1.076,1.076,0,0,1,37.775-26.9Z" transform="translate(-27.525 -20.1)" fill="#707070" fill-rule="evenodd"/>
      <path id="Path_290" data-name="Path 290" d="M25.68-13.2a3.615,3.615,0,0,1-4.2.025.425.425,0,0,0-.575.05.4.4,0,0,0,.05.575,4.446,4.446,0,0,0,2.6.85,4.557,4.557,0,0,0,2.575-.825.406.406,0,0,0,.125-.55A.409.409,0,0,0,25.68-13.2Z" transform="translate(-15.605 -30.321)" fill="#707070"/>
    </g>
  </g>
</svg>
