<svg xmlns="http://www.w3.org/2000/svg" width="24" height="24"><defs><clipPath id="a"><path d="M0 0h24v24H0z"/></clipPath></defs><g data-name="Group 120" fill="#707070" clip-path="url(#a)"><path data-name="Path 287" d="M9.625 11.987a1.076 1.076 0 011.075 1.075 1.076 1.076 0 01-1.075 1.075 1.076 1.076 0 01-1.075-1.075 1.076 1.076 0 011.075-1.075z" fill-rule="evenodd"/><path data-name="Path 288" d="M20 12.187a2.4 2.4 0 00-2.35-2.425 2.089 2.089 0 00-1.225.375 8.514 8.514 0 00-4.025-1.1l.875-2.525 1.825.425c0 .05-.025.125-.025.175A1.835 1.835 0 0016.9 8.937a1.835 1.835 0 001.825-1.825A1.835 1.835 0 0016.9 5.287a1.827 1.827 0 00-1.55.875l-2.6-.625-1.225 3.5a8.446 8.446 0 00-4 1.175c.025-.025.05-.025.05-.05a2.267 2.267 0 00-1.275-.4A2.388 2.388 0 004 12.187a2.374 2.374 0 001.175 2.075c.275 2.5 3.25 4.45 6.875 4.45 3.65 0 6.625-2 6.875-4.5A2.409 2.409 0 0020 12.187zm-3.1-6.075a1 1 0 011 1 1 1 0 01-1 1 1 1 0 01-1-1 1 1 0 011-1zM6.35 10.587a1.947 1.947 0 01.525.1A4.287 4.287 0 005.2 13.262a1.582 1.582 0 01-.4-1.075 1.585 1.585 0 011.55-1.6zm5.7 7.325c-3.35 0-6.1-1.8-6.1-4.05 0-2.225 2.725-4.05 6.1-4.05 3.35 0 6.075 1.8 6.075 4.05s-2.725 4.05-6.075 4.05zm6.8-4.75a4.436 4.436 0 00-1.65-2.5 1.416 1.416 0 01.45-.075 1.564 1.564 0 011.525 1.6 1.36 1.36 0 01-.325.975z"/><path data-name="Path 289" d="M14.25 11.987a1.076 1.076 0 011.075 1.075 1.076 1.076 0 01-1.075 1.075 1.076 1.076 0 01-1.075-1.075 1.076 1.076 0 011.075-1.075z" fill-rule="evenodd"/><path data-name="Path 290" d="M14.075 15.466a3.615 3.615 0 01-4.2.025.425.425 0 00-.575.05.4.4 0 00.05.575 4.446 4.446 0 002.6.85 4.557 4.557 0 002.575-.825.406.406 0 00.125-.55.409.409 0 00-.575-.125z"/></g></svg>