<svg xmlns="http://www.w3.org/2000/svg" width="24" height="24"><defs><clipPath id="a"><path d="M0 0h24v24H0z"/></clipPath></defs><g data-name="Group 68" clip-path="url(#a)"><path data-name="Subtraction 1" d="M12 20a8.009 8.009 0 01-8-8 8.009 8.009 0 018-8 7.932 7.932 0 014.8 1.6l-.9 1.2A6.442 6.442 0 0012 5.5 6.507 6.507 0 005.5 12a6.507 6.507 0 006.5 6.5 6.507 6.507 0 006.5-6.5H20a8.009 8.009 0 01-8 8z" fill="#707070"/><path data-name="Path 58" d="M12.988 7.208l3.97-.487-.488-3.97" fill="none" stroke="#707070" stroke-width="1.5"/></g></svg>