<svg xmlns="http://www.w3.org/2000/svg" xmlns:xlink="http://www.w3.org/1999/xlink" width="24" height="24" viewBox="0 0 24 24">
  <defs>
    <clipPath id="clip-refresh">
      <rect width="24" height="24"/>
    </clipPath>
  </defs>
  <g id="refresh" clip-path="url(#clip-refresh)">
    <g id="Group_70" data-name="Group 70">
      <path id="Subtraction_1" data-name="Subtraction 1" d="M6.925,0A8,8,0,0,0,0,3.992l1.295.759a6.5,6.5,0,0,1,11.261,0l1.295-.759A8,8,0,0,0,6.925,0ZM1.376,11.386h0L.09,12.16A8,8,0,0,0,10.9,14.944,8.054,8.054,0,0,0,13.76,12.16l-1.286-.772a6.5,6.5,0,0,1-11.1,0Z" transform="translate(5.075 4)" fill="#707070"/>
      <path id="Path_58" data-name="Path 58" d="M0,4H4V0" transform="translate(15 4.979)" fill="none" stroke="#707070" stroke-width="1.5"/>
      <path id="Path_59" data-name="Path 59" d="M4,0H0V4" transform="translate(5 15.2)" fill="none" stroke="#707070" stroke-width="1.5"/>
    </g>
  </g>
</svg>
