<svg xmlns="http://www.w3.org/2000/svg" width="24" height="24"><defs><clipPath id="a"><path d="M0 0h24v24H0z"/></clipPath></defs><g clip-path="url(#a)"><path d="M6.15 15.625A2.15 2.15 0 0 0 4 17.775a2.166 2.166 0 0 0 2.15 2.15 2.134 2.134 0 0 0 2.15-2.15 2.166 2.166 0 0 0-2.15-2.15zM4.175 9.35H4.05v2.975h.125a7.447 7.447 0 0 1 7.45 7.425v.175H14.6v-.175A10.413 10.413 0 0 0 4.175 9.35zm0-5.375H4.05V6.95h.125A12.83 12.83 0 0 1 17 19.75v.175h3v-.175A15.818 15.818 0 0 0 4.175 3.975z" fill="#707070"/></g></svg>