<svg xmlns="http://www.w3.org/2000/svg" width="24" height="24"><defs><clipPath id="a"><path d="M0 0h24v24H0z"/></clipPath></defs><g data-name="Group 119" clip-path="url(#a)"><path data-name="Path 286" d="M6.15 15.625A2.15 2.15 0 004 17.775a2.166 2.166 0 002.15 2.15 2.134 2.134 0 002.15-2.15 2.166 2.166 0 00-2.15-2.15zM4.175 9.35H4.05v2.975h.125a7.447 7.447 0 017.45 7.425v.175H14.6v-.175A10.413 10.413 0 004.175 9.35zm0-5.375H4.05V6.95h.125A12.83 12.83 0 0117 19.75v.175h3v-.175A15.818 15.818 0 004.175 3.975z" fill="#707070"/></g></svg>