<svg xmlns="http://www.w3.org/2000/svg" xmlns:xlink="http://www.w3.org/1999/xlink" width="24" height="24" viewBox="0 0 24 24">
  <defs>
    <clipPath id="clip-share_solid">
      <rect width="24" height="24"/>
    </clipPath>
  </defs>
  <g id="share_solid" clip-path="url(#clip-share_solid)">
    <g id="Group_76" data-name="Group 76">
      <g id="Ellipse_24" data-name="Ellipse 24" transform="translate(14 5)" fill="#707070" stroke="#707070" stroke-width="1.5">
        <circle cx="2.5" cy="2.5" r="2.5" stroke="none"/>
        <circle cx="2.5" cy="2.5" r="1.75" fill="none"/>
      </g>
      <g id="Path_98" data-name="Path 98" transform="translate(5 9.5)" fill="#707070">
        <path d="M 2.5 4.25 C 1.53505003452301 4.25 0.75 3.464950084686279 0.75 2.5 C 0.75 1.53505003452301 1.53505003452301 0.75 2.5 0.75 C 3.464950084686279 0.75 4.25 1.53505003452301 4.25 2.5 C 4.25 3.464950084686279 3.464950084686279 4.25 2.5 4.25 Z" stroke="none"/>
        <path d="M 2.5 1.5 C 1.948600053787231 1.5 1.5 1.948600053787231 1.5 2.5 C 1.5 3.051399946212769 1.948600053787231 3.5 2.5 3.5 C 3.051399946212769 3.5 3.5 3.051399946212769 3.5 2.5 C 3.5 1.948600053787231 3.051399946212769 1.5 2.5 1.5 M 2.5 0 C 3.880710124969482 0 5 1.119290113449097 5 2.5 C 5 3.880710124969482 3.880710124969482 5 2.5 5 C 1.119290113449097 5 0 3.880710124969482 0 2.5 C 0 1.119290113449097 1.119290113449097 0 2.5 0 Z" stroke="none" fill="#707070"/>
      </g>
      <g id="Ellipse_26" data-name="Ellipse 26" transform="translate(14 14)" fill="#707070" stroke="#707070" stroke-width="1.5">
        <circle cx="2.5" cy="2.5" r="2.5" stroke="none"/>
        <circle cx="2.5" cy="2.5" r="1.75" fill="none"/>
      </g>
      <line id="Line_35" data-name="Line 35" x2="8" transform="translate(8.375 11.381) rotate(-25)" fill="none" stroke="#707070" stroke-width="1.5"/>
      <line id="Line_36" data-name="Line 36" x2="6.75" y2="3.5" transform="translate(8.5 12.5)" fill="none" stroke="#707070" stroke-width="1.5"/>
    </g>
  </g>
</svg>
