<svg xmlns="http://www.w3.org/2000/svg" width="24" height="24"><defs><clipPath id="a"><path d="M0 0h24v24H0z"/></clipPath></defs><g data-name="Group 76" clip-path="url(#a)"><g data-name="Ellipse 24" transform="translate(14 5)" fill="#707070" stroke="#707070" stroke-width="1.5"><circle cx="2.5" cy="2.5" r="2.5" stroke="none"/><circle cx="2.5" cy="2.5" r="1.75" fill="none"/></g><g data-name="Path 98" fill="#707070"><path d="M7.5 13.75c-.965 0-1.75-.785-1.75-1.75s.785-1.75 1.75-1.75 1.75.785 1.75 1.75-.785 1.75-1.75 1.75z"/><path d="M7.5 11a1.001 1.001 0 000 2 1.001 1.001 0 000-2m0-1.5a2.5 2.5 0 110 5 2.5 2.5 0 010-5z"/></g><g data-name="Ellipse 26" transform="translate(14 14)" fill="#707070" stroke="#707070" stroke-width="1.5"><circle cx="2.5" cy="2.5" r="2.5" stroke="none"/><circle cx="2.5" cy="2.5" r="1.75" fill="none"/></g><path data-name="Line 35" fill="none" stroke="#707070" stroke-width="1.5" d="M8.375 11.381l7.25-3.38"/><path data-name="Line 36" fill="none" stroke="#707070" stroke-width="1.5" d="M8.5 12.5l6.75 3.5"/></g></svg>