<svg xmlns="http://www.w3.org/2000/svg" width="24" height="24"><defs><clipPath id="a"><path d="M0 0h24v24H0z"/></clipPath></defs><g data-name="Group 92"><g data-name="Path 85" fill="#707070" clip-path="url(#a)"><path d="M12 19.112a15.577 15.577 0 01-2.97-2.645 13.817 13.817 0 01-2.262-3.546 12.25 12.25 0 01-1.01-4.49L12 4.864l6.243 3.567a12.251 12.251 0 01-1.024 4.518 13.843 13.843 0 01-2.283 3.557A15.481 15.481 0 0112 19.112z"/><path d="M12 5.728L6.53 8.853c.183 2.581 1.2 4.96 3.033 7.084a15.063 15.063 0 002.439 2.258c1.57-1.154 5.102-4.288 5.467-9.342L12 5.728M12 4l7 4c0 8-7 12-7 12S5 16 5 8l7-4z"/></g></g></svg>