<svg xmlns="http://www.w3.org/2000/svg" xmlns:xlink="http://www.w3.org/1999/xlink" width="24" height="24" viewBox="0 0 24 24">
  <defs>
    <clipPath id="clip-shield_solid">
      <rect width="24" height="24"/>
    </clipPath>
  </defs>
  <g id="shield_solid" clip-path="url(#clip-shield_solid)">
    <g id="Group_92" data-name="Group 92" transform="translate(1)">
      <g id="Path_85" data-name="Path 85" transform="translate(4 4)" fill="#707070">
        <path d="M 7.000760078430176 15.11180591583252 C 6.412687301635742 14.7161693572998 5.213847637176514 13.82884216308594 4.030489921569824 12.46720027923584 C 3.073570013046265 11.36610984802246 2.312459945678711 10.1728401184082 1.768290042877197 8.920550346374512 C 1.149512410163879 7.496543884277344 0.8100823163986206 5.98837423324585 0.7572917938232422 4.431070327758789 L 7 0.8638085722923279 L 13.24270915985107 4.431070804595947 C 13.18954753875732 5.998843669891357 12.84588813781738 7.51680850982666 12.21912956237793 8.949390411376953 C 11.66932964324951 10.20608043670654 10.90102958679199 11.40273952484131 9.935569763183594 12.50611972808838 C 8.75721263885498 13.85280895233154 7.581288814544678 14.72221565246582 7.000760078430176 15.11180591583252 Z" stroke="none"/>
        <path d="M 7 1.727622985839844 L 1.529987335205078 4.853343963623047 C 1.712790489196777 7.434159278869629 2.730866432189941 9.813320159912109 4.56326961517334 11.93675994873047 C 5.468532562255859 12.98580265045166 6.386085510253906 13.74221992492676 7.001584529876709 14.19516658782959 C 8.572139739990234 13.04132843017578 12.10449409484863 9.906782150268555 12.46942520141602 4.853008270263672 L 7 1.727622985839844 M 7 0 C 7 0 10.5 2 14 4 C 14 12 7 16 7 16 C 7 16 0 12 0 4 C 3.5 2 7 0 7 0 Z" stroke="none" fill="#707070"/>
      </g>
    </g>
  </g>
</svg>
