<svg xmlns="http://www.w3.org/2000/svg" xmlns:xlink="http://www.w3.org/1999/xlink" width="24" height="24" viewBox="0 0 24 24">
  <defs>
    <clipPath id="clip-sliders_solid">
      <rect width="24" height="24"/>
    </clipPath>
  </defs>
  <g id="sliders_solid" clip-path="url(#clip-sliders_solid)">
    <g id="Group_73" data-name="Group 73">
      <g id="Path_99" data-name="Path 99" transform="translate(14 5)" fill="#707070">
        <path d="M 2 3.25 C 1.310750007629395 3.25 0.75 2.689249992370605 0.75 2 C 0.75 1.310750007629395 1.310750007629395 0.75 2 0.75 C 2.689249992370605 0.75 3.25 1.310750007629395 3.25 2 C 3.25 2.689249992370605 2.689249992370605 3.25 2 3.25 Z" stroke="none"/>
        <path d="M 2 1.5 C 1.724299907684326 1.5 1.5 1.724299907684326 1.5 2 C 1.5 2.275700092315674 1.724299907684326 2.5 2 2.5 C 2.275700092315674 2.5 2.5 2.275700092315674 2.5 2 C 2.5 1.724299907684326 2.275700092315674 1.5 2 1.5 M 2 0 C 3.104569911956787 0 4 0.8954300880432129 4 2 C 4 3.104569911956787 3.104569911956787 4 2 4 C 0.8954300880432129 4 0 3.104569911956787 0 2 C 0 0.8954300880432129 0.8954300880432129 0 2 0 Z" stroke="none" fill="#707070"/>
      </g>
      <g id="Ellipse_25" data-name="Ellipse 25" transform="translate(7 10)" fill="#707070" stroke="#707070" stroke-width="1.5">
        <circle cx="2" cy="2" r="2" stroke="none"/>
        <circle cx="2" cy="2" r="1.25" fill="none"/>
      </g>
      <g id="Ellipse_26" data-name="Ellipse 26" transform="translate(14 15)" fill="#707070" stroke="#707070" stroke-width="1.5">
        <circle cx="2" cy="2" r="2" stroke="none"/>
        <circle cx="2" cy="2" r="1.25" fill="none"/>
      </g>
      <line id="Line_29" data-name="Line 29" x1="3" transform="translate(17 7)" fill="none" stroke="#707070" stroke-width="1.5"/>
      <line id="Line_32" data-name="Line 32" x1="10" transform="translate(10 12)" fill="none" stroke="#707070" stroke-width="1.5"/>
      <line id="Line_34" data-name="Line 34" x1="3" transform="translate(17 17)" fill="none" stroke="#707070" stroke-width="1.5"/>
      <line id="Line_30" data-name="Line 30" x1="11" transform="translate(4 7)" fill="none" stroke="#707070" stroke-width="1.5"/>
      <line id="Line_31" data-name="Line 31" x1="4" transform="translate(4 12)" fill="none" stroke="#707070" stroke-width="1.5"/>
      <line id="Line_33" data-name="Line 33" x1="11" transform="translate(4 17)" fill="none" stroke="#707070" stroke-width="1.5"/>
    </g>
  </g>
</svg>
