<svg xmlns="http://www.w3.org/2000/svg" width="24" height="24"><defs><clipPath id="a"><path d="M0 0h24v24H0z"/></clipPath></defs><g data-name="Group 73" clip-path="url(#a)"><g data-name="Path 99" fill="#707070"><path d="M16 8.25a1.25 1.25 0 110-2.5 1.25 1.25 0 010 2.5z"/><path d="M16 6.5a.5.5 0 10.001 1.001A.5.5 0 0016 6.5M16 5a2 2 0 110 4 2 2 0 010-4z"/></g><g data-name="Ellipse 25" transform="translate(7 10)" fill="#707070" stroke="#707070" stroke-width="1.5"><circle cx="2" cy="2" r="2" stroke="none"/><circle cx="2" cy="2" r="1.25" fill="none"/></g><g data-name="Ellipse 26" transform="translate(14 15)" fill="#707070" stroke="#707070" stroke-width="1.5"><circle cx="2" cy="2" r="2" stroke="none"/><circle cx="2" cy="2" r="1.25" fill="none"/></g><path data-name="Line 29" fill="none" stroke="#707070" stroke-width="1.5" d="M20 7h-3"/><path data-name="Line 32" fill="none" stroke="#707070" stroke-width="1.5" d="M20 12H10"/><path data-name="Line 34" fill="none" stroke="#707070" stroke-width="1.5" d="M20 17h-3"/><path data-name="Line 30" fill="none" stroke="#707070" stroke-width="1.5" d="M15 7H4"/><path data-name="Line 31" fill="none" stroke="#707070" stroke-width="1.5" d="M8 12H4"/><path data-name="Line 33" fill="none" stroke="#707070" stroke-width="1.5" d="M15 17H4"/></g></svg>