<svg xmlns="http://www.w3.org/2000/svg" width="24" height="24"><defs><clipPath id="a"><path d="M0 0h24v24H0z"/></clipPath></defs><g clip-path="url(#a)" stroke-linecap="round"><g fill="#707070"><path d="M16.25 8.5c-.827 0-1.5-.673-1.5-1.5s.673-1.5 1.5-1.5 1.5.673 1.5 1.5-.673 1.5-1.5 1.5z"/><path d="M16.25 6.25a.75.75 0 10.002 1.502.75.75 0 00-.002-1.502m0-1.5a2.25 2.25 0 110 4.5 2.25 2.25 0 010-4.5z"/></g><g transform="translate(7 9.75)" fill="#707070" stroke="#707070" stroke-width="1.5"><circle cx="2.25" cy="2.25" r="2.25" stroke="none"/><circle cx="2.25" cy="2.25" r="1.5" fill="none"/></g><g transform="translate(14 14.75)" fill="#707070" stroke="#707070" stroke-width="1.5"><circle cx="2.25" cy="2.25" r="2.25" stroke="none"/><circle cx="2.25" cy="2.25" r="1.5" fill="none"/></g><path fill="none" stroke="#707070" stroke-width="1.5" d="M20 7h-3M20 12H10M20 17h-3M15 7H4M8 12H4M15 17H4"/></g></svg>