<svg xmlns="http://www.w3.org/2000/svg" width="24" height="24"><defs><clipPath id="a"><path d="M0 0h24v24H0z"/></clipPath></defs><g clip-path="url(#a)"><path d="M12 4a7.991 7.991 0 0 0-8 8 7.991 7.991 0 0 0 8 8 7.991 7.991 0 0 0 8-8 7.991 7.991 0 0 0-8-8zm3.075 11.8a.664.664 0 0 1-.35-.125 8.01 8.01 0 0 0-4.15-1.075 12.02 12.02 0 0 0-2.525.275 2.761 2.761 0 0 1-.4.075.5.5 0 0 1-.5-.5.527.527 0 0 1 .425-.55 13.475 13.475 0 0 1 3-.35 8.947 8.947 0 0 1 4.65 1.2.533.533 0 0 1 .325.525.461.461 0 0 1-.475.525zm.875-2.125a.709.709 0 0 1-.4-.15 10.356 10.356 0 0 0-5.075-1.275 10.826 10.826 0 0 0-2.6.325 1.177 1.177 0 0 1-.4.1.619.619 0 0 1-.625-.625.651.651 0 0 1 .5-.675 10.94 10.94 0 0 1 3.15-.45 11.177 11.177 0 0 1 5.7 1.475.646.646 0 0 1 .375.625.625.625 0 0 1-.625.65zm1-2.45a.755.755 0 0 1-.4-.125 12.215 12.215 0 0 0-5.875-1.35 12.456 12.456 0 0 0-3.2.375 2.251 2.251 0 0 1-.4.075.758.758 0 0 1-.75-.775.8.8 0 0 1 .55-.775 13.976 13.976 0 0 1 3.8-.5A13.373 13.373 0 0 1 17.3 9.7a.756.756 0 0 1 .4.725.764.764 0 0 1-.75.8z" fill="#707070"/></g></svg>