<svg xmlns="http://www.w3.org/2000/svg" width="24" height="24"><defs><clipPath id="a"><path d="M0 0h24v24H0z"/></clipPath></defs><g data-name="Group 121" clip-path="url(#a)"><path data-name="Path 291" d="M12 4a7.991 7.991 0 00-8 8 7.991 7.991 0 008 8 7.991 7.991 0 008-8 7.991 7.991 0 00-8-8zm3.075 11.8a.664.664 0 01-.35-.125 8.01 8.01 0 00-4.15-1.075 12.02 12.02 0 00-2.525.275 2.761 2.761 0 01-.4.075.5.5 0 01-.5-.5.527.527 0 01.425-.55 13.475 13.475 0 013-.35 8.947 8.947 0 014.65 1.2.533.533 0 01.325.525.461.461 0 01-.475.525zm.875-2.125a.709.709 0 01-.4-.15 10.356 10.356 0 00-5.075-1.275 10.826 10.826 0 00-2.6.325 1.177 1.177 0 01-.4.1.619.619 0 01-.625-.625.651.651 0 01.5-.675 10.94 10.94 0 013.15-.45 11.177 11.177 0 015.7 1.475.646.646 0 01.375.625.625.625 0 01-.625.65zm1-2.45a.755.755 0 01-.4-.125 12.215 12.215 0 00-5.875-1.35 12.456 12.456 0 00-3.2.375 2.251 2.251 0 01-.4.075.758.758 0 01-.75-.775.8.8 0 01.55-.775 13.976 13.976 0 013.8-.5A13.373 13.373 0 0117.3 9.7a.756.756 0 01.4.725.764.764 0 01-.75.8z" fill="#707070"/></g></svg>