<svg xmlns="http://www.w3.org/2000/svg" width="24" height="24"><defs><clipPath id="a"><path d="M0 0h24v24H0z"/></clipPath></defs><g data-name="Group 60"><g data-name="Polygon 3" fill="#707070" clip-path="url(#a)"><path d="M16.462 19.48l-4.007-3.061L12 16.07l-.455.348-4.007 3.06 1.55-5.015.154-.5-.415-.317-4.11-3.14h5.594l.163-.528L12 5.04l1.526 4.939.163.528h5.594l-4.11 3.14-.415.317.154.5 1.55 5.016z"/><path d="M12 7.58l-.81 2.62-.326 1.057h-3.93l2.348 1.794.831.635-.309 1-.857 2.773 2.142-1.636.911-.696.91.696 2.143 1.636-.857-2.773-.31-1 .832-.635 2.348-1.794h-3.93L12.81 10.2 12 7.58m0-5.08l2.243 7.257H21.5l-5.871 4.486L17.87 21.5 12 17.015 6.129 21.5l2.242-7.257L2.5 9.757h7.257L12 2.5z"/></g></g></svg>