<svg xmlns="http://www.w3.org/2000/svg" xmlns:xlink="http://www.w3.org/1999/xlink" width="24" height="24" viewBox="0 0 24 24">
  <defs>
    <clipPath id="clip-star_solid">
      <rect width="24" height="24"/>
    </clipPath>
  </defs>
  <g id="star_solid" clip-path="url(#clip-star_solid)">
    <g id="Group_60" data-name="Group 60">
      <g id="Polygon_3" data-name="Polygon 3" transform="translate(2.5 2.5)" fill="#707070">
        <path d="M 13.96197032928467 16.97954368591309 L 9.955300331115723 13.91872024536133 L 9.5 13.57089996337891 L 9.044699668884277 13.91872024536133 L 5.038029193878174 16.97954368591309 L 6.587890148162842 11.96407985687256 L 6.742340087890625 11.46424961090088 L 6.326620101928711 11.14665985107422 L 2.217223644256592 8.007360458374023 L 7.257349967956543 8.007360458374023 L 7.810579776763916 8.007360458374023 L 7.973919868469238 7.478789806365967 L 9.5 2.540296792984009 L 11.02608013153076 7.478789806365967 L 11.18941974639893 8.007360458374023 L 11.74265003204346 8.007360458374023 L 16.78277587890625 8.007352828979492 L 12.67337989807129 11.14665985107422 L 12.25765991210938 11.46424961090088 L 12.41211032867432 11.96407985687256 L 13.96197032928467 16.97954368591309 Z" stroke="none"/>
        <path d="M 9.5 5.080554962158203 L 8.69048023223877 7.700209617614746 L 8.363809585571289 8.757349967956543 L 7.257349967956543 8.757349967956543 L 4.434429168701172 8.757349967956543 L 6.781909942626953 10.55066967010498 L 7.613369941711426 11.18584060668945 L 7.304450035095215 12.18551063537598 L 6.447362899780273 14.95910835266113 L 8.589409828186035 13.32273006439209 L 9.5 12.62709999084473 L 10.41059017181396 13.32273006439209 L 12.55263710021973 14.95910835266113 L 11.69554996490479 12.18551063537598 L 11.38663005828857 11.18584060668945 L 12.21809005737305 10.55066967010498 L 14.56557083129883 8.757349967956543 L 11.74265003204346 8.757349967956543 L 10.63619041442871 8.757349967956543 L 10.30951976776123 7.700209617614746 L 9.5 5.080554962158203 M 9.5 0 L 11.74265003204346 7.257349967956543 L 19 7.257349967956543 L 13.12868022918701 11.74265003204346 L 15.37131977081299 19 L 9.5 14.51470947265625 L 3.628680229187012 19 L 5.871319770812988 11.74265003204346 L 0 7.257349967956543 L 7.257349967956543 7.257349967956543 L 9.5 0 Z" stroke="none" fill="#707070"/>
      </g>
    </g>
  </g>
</svg>
