<svg xmlns="http://www.w3.org/2000/svg" width="24" height="24"><defs><clipPath id="a"><path d="M0 0h24v24H0z"/></clipPath></defs><g data-name="Group 60" clip-path="url(#a)"><g data-name="Polygon 3" fill="none"><path d="M12 2.5l2.243 7.257H21.5l-5.871 4.485 2.242 7.258L12 17.015 6.129 21.5l2.243-7.257L2.5 9.757h7.257z"/><path d="M12 7.58l-.81 2.62-.326 1.057H6.934l2.348 1.794.831.635-.309 1-.857 2.773 2.142-1.636.911-.696.91.696 2.143 1.636-.857-2.773-.31-1 .832-.635 2.348-1.794H13.136L12.81 10.2 12 7.58m0-5.08l2.243 7.257H21.5l-5.871 4.486L17.87 21.5 12 17.015 6.129 21.5l2.242-7.257L2.5 9.757h7.257L12 2.5z" fill="#707070"/></g></g></svg>