<svg xmlns="http://www.w3.org/2000/svg" xmlns:xlink="http://www.w3.org/1999/xlink" width="24" height="24" viewBox="0 0 24 24">
  <defs>
    <clipPath id="clip-star">
      <rect width="24" height="24"/>
    </clipPath>
  </defs>
  <g id="star" clip-path="url(#clip-star)">
    <g id="Group_60" data-name="Group 60">
      <g id="Polygon_3" data-name="Polygon 3" transform="translate(2.5 2.5)" fill="none">
        <path d="M9.5,0l2.243,7.257H19l-5.871,4.485L15.371,19,9.5,14.515,3.629,19l2.243-7.257L0,7.257H7.257Z" stroke="none"/>
        <path d="M 9.5 5.080554962158203 L 8.69048023223877 7.700209617614746 L 8.363809585571289 8.757349967956543 L 7.257349967956543 8.757349967956543 L 4.434429168701172 8.757349967956543 L 6.781909942626953 10.55066967010498 L 7.613369941711426 11.18584060668945 L 7.304450035095215 12.18551063537598 L 6.447362899780273 14.95910835266113 L 8.589409828186035 13.32273006439209 L 9.5 12.62709999084473 L 10.41059017181396 13.32273006439209 L 12.55263710021973 14.95910835266113 L 11.69554996490479 12.18551063537598 L 11.38663005828857 11.18584060668945 L 12.21809005737305 10.55066967010498 L 14.56557083129883 8.757349967956543 L 11.74265003204346 8.757349967956543 L 10.63619041442871 8.757349967956543 L 10.30951976776123 7.700209617614746 L 9.5 5.080554962158203 M 9.5 0 L 11.74265003204346 7.257349967956543 L 19 7.257349967956543 L 13.12868022918701 11.74265003204346 L 15.37131977081299 19 L 9.5 14.51470947265625 L 3.628680229187012 19 L 5.871319770812988 11.74265003204346 L 0 7.257349967956543 L 7.257349967956543 7.257349967956543 L 9.5 0 Z" stroke="none" fill="#707070"/>
      </g>
    </g>
  </g>
</svg>
