<svg xmlns="http://www.w3.org/2000/svg" xmlns:xlink="http://www.w3.org/1999/xlink" width="24" height="24" viewBox="0 0 24 24">
  <defs>
    <clipPath id="clip-tablet_solid">
      <rect width="24" height="24"/>
    </clipPath>
  </defs>
  <g id="tablet_solid" clip-path="url(#clip-tablet_solid)">
    <g id="Exclusion_5" data-name="Exclusion 5" transform="translate(773.5 148.5)" fill="#707070">
      <path d="M -755.7501220703125 -129.7496948242188 L -767.2496948242188 -129.7496948242188 L -767.2496948242188 -143.25 L -755.7501220703125 -143.2499847412109 L -755.7501220703125 -129.7496948242188 Z M -761.4999389648438 -134.2496948242188 C -762.46484375 -134.2496948242188 -763.2498168945312 -133.4646911621094 -763.2498168945312 -132.4998016357422 C -763.2498168945312 -131.534912109375 -762.46484375 -130.7499084472656 -761.4999389648438 -130.7499084472656 C -760.5350341796875 -130.7499084472656 -759.75 -131.534912109375 -759.75 -132.4998016357422 C -759.75 -133.4646911621094 -760.5350341796875 -134.2496948242188 -761.4999389648438 -134.2496948242188 Z" stroke="none"/>
      <path d="M -756.5001220703125 -130.4996948242188 L -756.5001220703125 -142.4999847412109 L -766.4996948242188 -142.5 L -766.4996948242188 -130.4996948242188 L -762.998046875 -130.4996948242188 C -763.6058959960938 -130.9561614990234 -763.9998168945312 -131.682861328125 -763.9998168945312 -132.4998016357422 C -763.9998168945312 -133.8782501220703 -762.8783569335938 -134.9996948242188 -761.4999389648438 -134.9996948242188 C -760.1214599609375 -134.9996948242188 -759 -133.8782501220703 -759 -132.4998016357422 C -759 -131.682861328125 -759.3939208984375 -130.9561614990234 -760.0017700195312 -130.4996948242188 L -756.5001220703125 -130.4996948242188 M -755.0001220703125 -128.9996948242188 L -755.0010986328125 -128.9996948242188 L -767.9996948242188 -128.9996948242188 L -767.9996948242188 -144 L -755.0001220703125 -143.9999847412109 L -755.0001220703125 -129.0007019042969 L -755.0001220703125 -128.9996948242188 Z M -761.4999389648438 -133.4996948242188 C -762.05126953125 -133.4996948242188 -762.4998168945312 -133.0511474609375 -762.4998168945312 -132.4998016357422 C -762.4998168945312 -131.9484558105469 -762.05126953125 -131.4999084472656 -761.4999389648438 -131.4999084472656 C -760.9486083984375 -131.4999084472656 -760.5 -131.9484558105469 -760.5 -132.4998016357422 C -760.5 -133.0511474609375 -760.9486083984375 -133.4996948242188 -761.4999389648438 -133.4996948242188 Z" stroke="none" fill="#707070"/>
    </g>
  </g>
</svg>
