<svg xmlns="http://www.w3.org/2000/svg" width="24" height="24"><defs><clipPath id="a"><path d="M0 0h24v24H0z"/></clipPath></defs><g clip-path="url(#a)"><path d="M12 20a8.009 8.009 0 01-8-8 8.009 8.009 0 018-8 8.009 8.009 0 018 8 8.009 8.009 0 01-8 8zM9.425 8.567a.851.851 0 00-.607.252.858.858 0 000 1.211L10.787 12l-1.969 1.969a.859.859 0 000 1.213.848.848 0 00.6.251.851.851 0 00.607-.252l1.97-1.969 1.97 1.969a.85.85 0 00.606.251.852.852 0 00.606-.25.853.853 0 00.252-.607.851.851 0 00-.251-.607l-1.97-1.969 1.969-1.97a.858.858 0 000-1.211.853.853 0 00-.607-.252.849.849 0 00-.6.251L12 10.787l-1.969-1.97a.851.851 0 00-.606-.25z" fill="#707070"/></g></svg>