<svg xmlns="http://www.w3.org/2000/svg" xmlns:xlink="http://www.w3.org/1999/xlink" width="24" height="24" viewBox="0 0 24 24">
  <defs>
    <clipPath id="clip-times_circle_solid">
      <rect width="24" height="24"/>
    </clipPath>
  </defs>
  <g id="times_circle_solid" clip-path="url(#clip-times_circle_solid)">
    <path id="Exclusion_10" data-name="Exclusion 10" d="M-872-164a8.009,8.009,0,0,1-8-8,8.009,8.009,0,0,1,8-8,8.009,8.009,0,0,1,8,8A8.009,8.009,0,0,1-872-164Zm0-6.789h0l2.222,2.222,1.211-1.211L-870.789-172l2.223-2.223-1.211-1.211L-872-173.211l-2.223-2.223-1.211,1.211,2.223,2.223-2.223,2.223,1.211,1.211,2.222-2.222Z" transform="translate(884 184)" fill="#707070"/>
  </g>
</svg>
