<svg xmlns="http://www.w3.org/2000/svg" width="24" height="24"><defs><clipPath id="a"><path d="M0 0h24v24H0z"/></clipPath></defs><g clip-path="url(#a)"><path d="M12 20a8.009 8.009 0 01-8-8 8.009 8.009 0 018-8 8.009 8.009 0 018 8 8.009 8.009 0 01-8 8zm0-6.788l1.616 1.616a.851.851 0 00.605.251.853.853 0 00.607-.252.851.851 0 00.251-.606.851.851 0 00-.251-.606L13.212 12l1.616-1.616a.851.851 0 00.251-.606.851.851 0 00-.251-.606.853.853 0 00-.607-.252.85.85 0 00-.605.251L12 10.788l-1.615-1.615a.853.853 0 00-.607-.252.85.85 0 00-.605.251.859.859 0 000 1.213L10.789 12l-1.616 1.616a.859.859 0 000 1.213.85.85 0 00.605.251.853.853 0 00.607-.252L12 13.213z" fill="#707070"/></g></svg>