<svg xmlns="http://www.w3.org/2000/svg" width="24" height="24"><defs><clipPath id="a"><path d="M0 0h24v24H0z"/></clipPath></defs><g clip-path="url(#a)"><path d="M12 20a8.009 8.009 0 0 1-8-8 8.009 8.009 0 0 1 8-8 8.009 8.009 0 0 1 8 8 8.009 8.009 0 0 1-8 8zm-.249-13.051A.751.751 0 0 0 11 7.7v5a.748.748 0 0 0 .109.391.747.747 0 0 0 .291.3l2.165 1.25a.747.747 0 0 0 .374.1.751.751 0 0 0 .65-.375.745.745 0 0 0 .075-.569.744.744 0 0 0-.349-.455L12.5 12.3V7.7a.751.751 0 0 0-.75-.751z" fill="#707070"/></g></svg>