<svg xmlns="http://www.w3.org/2000/svg" width="24" height="24"><defs><clipPath id="a"><path d="M0 0h24v24H0z"/></clipPath></defs><g stroke="#707070" stroke-linecap="round" stroke-width="1.5" clip-path="url(#a)"><path d="M17.25 19.25H6.75V6.75h10.5v12.5zM15 8a1 1 0 00-1 1v8.883a1 1 0 001 1h.5a1 1 0 001-1V9a1 1 0 00-1-1zm-3.25 0a1 1 0 00-1 1v8.883a1 1 0 001 1h.5a1 1 0 001-1V9a1 1 0 00-1-1zm-3 0a1 1 0 00-1 1v8.883a1 1 0 001 1h.5a1 1 0 001-1V9a1 1 0 00-1-1z" fill="#707070" stroke-linejoin="round"/><path fill="none" d="M5.5 6.75h13"/><path fill="none" stroke-linejoin="round" d="M9.5 4.75h5v2h-5z"/></g></svg>