<svg xmlns="http://www.w3.org/2000/svg" width="24" height="24"><defs><clipPath id="a"><path d="M0 0h24v24H0z"/></clipPath></defs><g fill="#707070" clip-path="url(#a)"><path d="M13.776 7.417a12.613 12.613 0 011.324.3 8.188 8.188 0 012.123.974.361.361 0 00.175.05h2.548v.025a1.086 1.086 0 00-.1.175 4.164 4.164 0 00-.624 1.3.118.118 0 00.025.15 3.875 3.875 0 01.624 3.3A3.8 3.8 0 0118.1 16.11a4.017 4.017 0 01-2.123.6 3.953 3.953 0 01-.949-.125 4.06 4.06 0 01-1.973-1.149 2.252 2.252 0 01-.225-.25c-.275.425-.574.849-.849 1.274-.3-.425-.574-.849-.849-1.249l-.05.05a3.893 3.893 0 01-2.473 1.4 3.693 3.693 0 01-1.649-.1 3.833 3.833 0 01-1.948-1.224 3.9 3.9 0 01-.953-2.027 3.432 3.432 0 01.075-1.574 3.346 3.346 0 01.6-1.324.187.187 0 00.025-.125 5.214 5.214 0 00-.55-1.2 1.906 1.906 0 00-.2-.275v-.025h2.473c.025 0 .075-.025.1-.025a8.539 8.539 0 011.8-.874 12.784 12.784 0 011.4-.375 8.566 8.566 0 011.4-.175 10.341 10.341 0 012.594.079zm-1 5.32a3.187 3.187 0 003.2 3.2 3.172 3.172 0 003.2-3.2 3.182 3.182 0 00-3.247-3.2 3.193 3.193 0 00-3.152 3.201zm-4.8-3.2a3.163 3.163 0 00-3.167 3.251 3.178 3.178 0 003.222 3.122 3.188 3.188 0 003.147-3.172 3.187 3.187 0 00-3.197-3.197zm.175-.824a3.953 3.953 0 012.523 1.049 4.009 4.009 0 011.3 2.423 4.044 4.044 0 011.274-2.4 3.889 3.889 0 012.5-1.049 9.123 9.123 0 00-3.548-.744 9.7 9.7 0 00-4.044.724z"/><path d="M15.949 10.714a1.962 1.962 0 011.973 1.973 1.963 1.963 0 01-1.9 1.973 1.985 1.985 0 01-2.073-1.973 2 2 0 012-1.973zm1.3 1.973a1.285 1.285 0 00-1.274-1.3 1.285 1.285 0 00-1.3 1.274 1.306 1.306 0 001.3 1.3 1.248 1.248 0 001.273-1.273zm-9.293-1.973a1.962 1.962 0 011.973 1.973 1.976 1.976 0 01-1.873 1.973 1.985 1.985 0 01-2.073-1.973 1.931 1.931 0 011.973-1.973zm1.274 1.973a1.254 1.254 0 00-1.3-1.274 1.3 1.3 0 00-1.274 1.3 1.306 1.306 0 001.3 1.3 1.323 1.323 0 001.274-1.325z"/><path d="M15.949 12.038a.645.645 0 01.649.649.661.661 0 01-.649.649.645.645 0 01-.649-.649.661.661 0 01.649-.649zm-8.018 0a.667.667 0 01.674.649.688.688 0 01-.674.674.672.672 0 01-.674-.674.666.666 0 01.674-.649z"/></g></svg>