<svg xmlns="http://www.w3.org/2000/svg" xmlns:xlink="http://www.w3.org/1999/xlink" width="24" height="24" viewBox="0 0 24 24">
  <defs>
    <clipPath id="clip-tripadvisor">
      <rect width="24" height="24"/>
    </clipPath>
  </defs>
  <g id="tripadvisor" clip-path="url(#clip-tripadvisor)">
    <g id="Group_122" data-name="Group 122" transform="translate(4 45.01)">
      <path id="Path_292" data-name="Path 292" d="M9.776-37.593a12.613,12.613,0,0,1,1.324.3,8.188,8.188,0,0,1,2.123.974.361.361,0,0,0,.175.05h2.548v.025a1.086,1.086,0,0,0-.1.175,4.164,4.164,0,0,0-.624,1.3.118.118,0,0,0,.025.15,3.875,3.875,0,0,1,.624,3.3A3.8,3.8,0,0,1,14.1-28.9a4.017,4.017,0,0,1-2.123.6,3.953,3.953,0,0,1-.949-.125,4.06,4.06,0,0,1-1.973-1.149,2.252,2.252,0,0,1-.225-.25c-.275.425-.574.849-.849,1.274-.3-.425-.574-.849-.849-1.249l-.05.05a3.893,3.893,0,0,1-2.473,1.4,3.693,3.693,0,0,1-1.649-.1,3.833,3.833,0,0,1-1.948-1.224A3.9,3.9,0,0,1,.059-31.7a3.432,3.432,0,0,1,.075-1.574,3.346,3.346,0,0,1,.6-1.324.187.187,0,0,0,.025-.125,5.214,5.214,0,0,0-.55-1.2,1.906,1.906,0,0,0-.2-.275v-.025H2.482c.025,0,.075-.025.1-.025a8.539,8.539,0,0,1,1.8-.874,12.784,12.784,0,0,1,1.4-.375,8.566,8.566,0,0,1,1.4-.175A10.341,10.341,0,0,1,9.776-37.593Zm-1,5.32a3.187,3.187,0,0,0,3.2,3.2,3.172,3.172,0,0,0,3.2-3.2,3.182,3.182,0,0,0-3.247-3.2A3.193,3.193,0,0,0,8.777-32.272Zm-4.8-3.2A3.163,3.163,0,0,0,.809-32.222,3.178,3.178,0,0,0,4.031-29.1a3.188,3.188,0,0,0,3.147-3.172A3.187,3.187,0,0,0,3.981-35.469Zm.175-.824a3.953,3.953,0,0,1,2.523,1.049,4.009,4.009,0,0,1,1.3,2.423,4.044,4.044,0,0,1,1.274-2.4,3.889,3.889,0,0,1,2.5-1.049A9.123,9.123,0,0,0,8.2-37.018,9.7,9.7,0,0,0,4.156-36.294Z" transform="translate(0 0)" fill="#707070"/>
      <path id="Path_293" data-name="Path 293" d="M41.836-24.01a1.962,1.962,0,0,1,1.973,1.973,1.963,1.963,0,0,1-1.9,1.973,1.985,1.985,0,0,1-2.073-1.973A2,2,0,0,1,41.836-24.01Zm1.3,1.973a1.285,1.285,0,0,0-1.274-1.3,1.285,1.285,0,0,0-1.3,1.274,1.306,1.306,0,0,0,1.3,1.3A1.248,1.248,0,0,0,43.135-22.036Z" transform="translate(-29.887 -10.286)" fill="#707070"/>
      <path id="Path_294" data-name="Path 294" d="M9.91-24.01a1.962,1.962,0,0,1,1.973,1.973,1.976,1.976,0,0,1-1.873,1.973,1.985,1.985,0,0,1-2.073-1.973A1.931,1.931,0,0,1,9.91-24.01Zm1.274,1.973a1.254,1.254,0,0,0-1.3-1.274,1.3,1.3,0,0,0-1.274,1.3,1.306,1.306,0,0,0,1.3,1.3A1.323,1.323,0,0,0,11.184-22.036Z" transform="translate(-5.954 -10.286)" fill="#707070"/>
      <path id="Path_295" data-name="Path 295" d="M45.887-18.708a.645.645,0,0,1,.649.649.661.661,0,0,1-.649.649.645.645,0,0,1-.649-.649A.661.661,0,0,1,45.887-18.708Z" transform="translate(-33.938 -14.264)" fill="#707070"/>
      <path id="Path_296" data-name="Path 296" d="M13.712-18.708a.667.667,0,0,1,.674.649.688.688,0,0,1-.674.674.672.672,0,0,1-.674-.674A.666.666,0,0,1,13.712-18.708Z" transform="translate(-9.781 -14.264)" fill="#707070"/>
    </g>
  </g>
</svg>
