<svg xmlns="http://www.w3.org/2000/svg" xmlns:xlink="http://www.w3.org/1999/xlink" width="24" height="24" viewBox="0 0 24 24">
  <defs>
    <clipPath id="clip-twitter">
      <rect width="24" height="24"/>
    </clipPath>
  </defs>
  <g id="twitter" clip-path="url(#clip-twitter)">
    <path id="Path_238" data-name="Path 238" d="M537,6285.58a10.207,10.207,0,0,0,15.655-8.624v-.413a7.931,7.931,0,0,0,1.762-1.837,7.825,7.825,0,0,1-2.025.524h0a3.715,3.715,0,0,0,1.556-1.987,11.37,11.37,0,0,1-1.725.731c-.169.056-.356.112-.525.169a3.553,3.553,0,0,0-2.625-1.144,3.593,3.593,0,0,0-3.581,3.581,3.79,3.79,0,0,0,.094.806,10.713,10.713,0,0,1-7.349-3.712s-1.706,2.344,1.031,4.743a3.7,3.7,0,0,1-1.556-.469,3.414,3.414,0,0,0,2.831,3.563,3.269,3.269,0,0,1-1.575.056,3.544,3.544,0,0,0,3.281,2.512,6.882,6.882,0,0,1-5.25,1.5Z" transform="translate(-533.709 -6268.078)" fill="#707070" fill-rule="evenodd"/>
  </g>
</svg>
