<svg xmlns="http://www.w3.org/2000/svg" width="24" height="24"><defs><clipPath id="a"><path d="M0 0h24v24H0z"/></clipPath></defs><g stroke="#707070" stroke-linecap="round" stroke-linejoin="round" stroke-width="1.5" clip-path="url(#a)"><path d="M15.509 9.584V6.603s-.277-2.6-3.6-2.6-3.509 2.6-3.509 2.6" fill="none"/><path d="M18.125 19.793H5.875v-10h12.25v10zm-6.112-7.966A2.1 2.1 0 0 0 9.9 13.913a2.069 2.069 0 0 0 .544 1.4v.863a1 1 0 0 0 1 1h1.113a1 1 0 0 0 1-1v-.837a2.062 2.062 0 0 0 .57-1.426 2.1 2.1 0 0 0-2.114-2.086z" fill="#707070"/></g></svg>