<svg xmlns="http://www.w3.org/2000/svg" width="24" height="24"><defs><clipPath id="a"><path d="M0 0h24v24H0z"/></clipPath></defs><g clip-path="url(#a)"><path d="M6.997 16.791a3.433 3.433 0 01.428-1.822H1.997s-.3-3.114 3.976-3.114c2.063 0 3.074.725 3.568 1.475a7.353 7.353 0 012.285-.319 7.047 7.047 0 012.55.411c.457-.782 1.45-1.567 3.6-1.567 4.277 0 4.032 3.114 4.032 3.114h-5.745a3.468 3.468 0 01.46 1.822zm3.11-7.833a1.749 1.749 0 011.75-1.75 1.75 1.75 0 011.751 1.75 1.751 1.751 0 01-1.751 1.751 1.75 1.75 0 01-1.749-1.751zm6.583-.441a1.309 1.309 0 011.309-1.309 1.309 1.309 0 011.309 1.309 1.309 1.309 0 01-1.309 1.309 1.309 1.309 0 01-1.307-1.309zm-12 0A1.309 1.309 0 016 7.208a1.309 1.309 0 011.309 1.309A1.309 1.309 0 016 9.826a1.309 1.309 0 01-1.308-1.309z" fill="#707070" stroke="#707070" stroke-linecap="round" stroke-linejoin="round" stroke-width="1.5"/></g></svg>