<svg xmlns="http://www.w3.org/2000/svg" xmlns:xlink="http://www.w3.org/1999/xlink" width="24" height="24" viewBox="0 0 24 24">
  <defs>
    <clipPath id="clip-user_group">
      <rect width="24" height="24"/>
    </clipPath>
  </defs>
  <g id="user_group" clip-path="url(#clip-user_group)">
    <g id="Group_95" data-name="Group 95">
      <g id="Ellipse_13" data-name="Ellipse 13" transform="translate(9.404 6.5)" fill="none" stroke="#707070" stroke-width="1.5">
        <ellipse cx="2.661" cy="2.661" rx="2.661" ry="2.661" stroke="none"/>
        <ellipse cx="2.661" cy="2.661" rx="1.911" ry="1.911" fill="none"/>
      </g>
      <g id="Ellipse_35" data-name="Ellipse 35" transform="translate(15.17 7.644)" fill="none" stroke="#707070" stroke-width="1.5">
        <ellipse cx="2.218" cy="2.218" rx="2.218" ry="2.218" stroke="none"/>
        <ellipse cx="2.218" cy="2.218" rx="1.468" ry="1.468" fill="none"/>
      </g>
      <g id="Ellipse_36" data-name="Ellipse 36" transform="translate(4.524 7.644)" fill="none" stroke="#707070" stroke-width="1.5">
        <ellipse cx="2.218" cy="2.218" rx="2.218" ry="2.218" stroke="none"/>
        <ellipse cx="2.218" cy="2.218" rx="1.468" ry="1.468" fill="none"/>
      </g>
      <g id="Path_91" data-name="Path 91" transform="translate(6.947 12.777)" fill="none">
        <path d="M5.118,0a5,5,0,0,1,5.118,4.882H0A5,5,0,0,1,5.118,0Z" stroke="none"/>
        <path d="M 5.118487358093262 1.500000953674316 C 3.699143886566162 1.500000953674316 2.468064308166504 2.267811059951782 1.875631332397461 3.382461071014404 L 8.361343383789062 3.382461071014404 C 7.76891040802002 2.267811059951782 6.537830829620361 1.500000953674316 5.118487358093262 1.500000953674316 M 5.118487358093262 9.5367431640625e-07 C 7.945347309112549 9.5367431640625e-07 10.23697757720947 2.185950994491577 10.23697757720947 4.882461071014404 C 8.156317710876465 4.882461071014404 3.374577522277832 4.882461071014404 -2.86102294921875e-06 4.882461071014404 C -2.86102294921875e-06 2.185950994491577 2.291627407073975 9.5367431640625e-07 5.118487358093262 9.5367431640625e-07 Z" stroke="none" fill="#707070"/>
      </g>
      <g id="Union_8" data-name="Union 8" transform="translate(170.75 372.634)" fill="none">
        <path d="M-163.8-354.974a4.678,4.678,0,0,1,.141-1.144H-168A3.9,3.9,0,0,1-164.075-360a3.937,3.937,0,0,1,2.572.949,5.271,5.271,0,0,1,2.817-.806,5.277,5.277,0,0,1,2.742.759,3.938,3.938,0,0,1,2.516-.9,3.9,3.9,0,0,1,3.928,3.882h-4.208a4.678,4.678,0,0,1,.141,1.144Z" stroke="none"/>
        <path d="M -155.3439788818359 -356.4743957519531 L -155.5886383056641 -357.4459228515625 L -155.8099212646484 -357.2631530761719 L -156.7211303710938 -357.8153991699219 C -157.3056793212891 -358.1696472167969 -157.9848785400391 -358.3569030761719 -158.685302734375 -358.3569030761719 C -159.4084167480469 -358.3569030761719 -160.1060791015625 -358.1581115722656 -160.7028503417969 -357.7820129394531 L -161.6393585205078 -357.1918029785156 L -161.8085784912109 -357.3370361328125 L -162.0257568359375 -356.4743957519531 L -155.3439788818359 -356.4743957519531 M -151.5431671142578 -357.6183166503906 C -151.9886474609375 -358.1559753417969 -152.6678619384766 -358.5 -153.4275054931641 -358.5 C -154.0065002441406 -358.5 -154.5462493896484 -358.3069458007812 -154.9884338378906 -357.9417114257812 L -155.3799591064453 -357.6183166503906 L -153.7074890136719 -357.6183166503906 L -151.5431671142578 -357.6183166503906 M -162.1363830566406 -357.6183166503906 L -162.4794311523438 -357.9126892089844 C -162.9207916259766 -358.2914123535156 -163.4872741699219 -358.5 -164.0745086669922 -358.5 C -164.8336029052734 -358.5 -165.5122985839844 -358.1559753417969 -165.9574432373047 -357.6183166503906 L -163.6622161865234 -357.6183166503906 L -162.1363830566406 -357.6183166503906 M -153.5661010742188 -354.9743957519531 C -155.6468963623047 -354.9743957519531 -160.4286041259766 -354.9743957519531 -163.8036041259766 -354.9743957519531 C -163.8036041259766 -355.368408203125 -163.7546081542969 -355.7513427734375 -163.6622161865234 -356.1183166503906 C -165.1130981445312 -356.1183166503906 -166.694091796875 -356.1183166503906 -168.0003051757812 -356.1183166503906 C -168.0003051757812 -358.2621154785156 -166.2425994873047 -360 -164.0745086669922 -360 C -163.0907592773438 -360 -162.1915130615234 -359.6421813964844 -161.5026092529297 -359.051025390625 C -160.6944580078125 -359.5603332519531 -159.72607421875 -359.8569030761719 -158.685302734375 -359.8569030761719 C -157.6768035888672 -359.8569030761719 -156.7362976074219 -359.5785522460938 -155.9436950683594 -359.0982055664062 C -155.2621917724609 -359.6611328125 -154.3847808837891 -360 -153.4275054931641 -360 C -151.2584991455078 -360 -149.4999084472656 -358.2621154785156 -149.4999084472656 -356.1183166503906 C -150.41748046875 -356.1183166503906 -152.0194244384766 -356.1183166503906 -153.7074890136719 -356.1183166503906 C -153.6150817871094 -355.7513427734375 -153.5661010742188 -355.368408203125 -153.5661010742188 -354.9743957519531 Z" stroke="none" fill="#707070"/>
      </g>
    </g>
  </g>
</svg>
