<svg xmlns="http://www.w3.org/2000/svg" width="24" height="24"><defs><clipPath id="a"><path d="M0 0h24v24H0z"/></clipPath></defs><g data-name="Group 53" fill="#707070" clip-path="url(#a)"><g data-name="Ellipse 13" transform="translate(8 4)" stroke="#707070" stroke-width="1.5"><circle cx="4" cy="4" r="4" stroke="none"/><circle cx="4" cy="4" r="3.25" fill="none"/></g><g data-name="Path 36"><path d="M19.198 19.25H4.802c.43-3.094 3.495-5.5 7.198-5.5 3.703 0 6.767 2.406 7.198 5.5z"/><path d="M12 14.5c-2.97 0-5.48 1.694-6.254 4h12.508c-.773-2.306-3.284-4-6.254-4m0-1.5c4.418 0 8 3.134 8 7H4c0-3.866 3.582-7 8-7z"/></g></g></svg>