<svg xmlns="http://www.w3.org/2000/svg" xmlns:xlink="http://www.w3.org/1999/xlink" width="24" height="24" viewBox="0 0 24 24">
  <defs>
    <clipPath id="clip-user_group_solid">
      <rect width="24" height="24"/>
    </clipPath>
  </defs>
  <g id="user_group_solid" clip-path="url(#clip-user_group_solid)">
    <g id="Group_95" data-name="Group 95">
      <g id="Ellipse_13" data-name="Ellipse 13" transform="translate(9.404 6.5)" fill="#707070" stroke="#707070" stroke-width="1.5">
        <ellipse cx="2.661" cy="2.661" rx="2.661" ry="2.661" stroke="none"/>
        <ellipse cx="2.661" cy="2.661" rx="1.911" ry="1.911" fill="none"/>
      </g>
      <g id="Ellipse_35" data-name="Ellipse 35" transform="translate(15.17 7.644)" fill="#707070" stroke="#707070" stroke-width="1.5">
        <ellipse cx="2.218" cy="2.218" rx="2.218" ry="2.218" stroke="none"/>
        <ellipse cx="2.218" cy="2.218" rx="1.468" ry="1.468" fill="none"/>
      </g>
      <g id="Ellipse_36" data-name="Ellipse 36" transform="translate(4.524 7.644)" fill="#707070" stroke="#707070" stroke-width="1.5">
        <ellipse cx="2.218" cy="2.218" rx="2.218" ry="2.218" stroke="none"/>
        <ellipse cx="2.218" cy="2.218" rx="1.468" ry="1.468" fill="none"/>
      </g>
      <g id="Path_91" data-name="Path 91" transform="translate(6.947 12.777)" fill="#707070">
        <path d="M 9.414892196655273 4.132461071014404 L 0.8220829367637634 4.132461071014404 C 1.196072697639465 2.210614919662476 2.980362892150879 0.7500010132789612 5.118487358093262 0.7500010132789612 C 7.256611824035645 0.7500010132789612 9.040902137756348 2.210614919662476 9.414892196655273 4.132461071014404 Z" stroke="none"/>
        <path d="M 5.118487358093262 1.500000953674316 C 3.699143886566162 1.500000953674316 2.468064308166504 2.267811059951782 1.875631332397461 3.382461071014404 L 8.361343383789062 3.382461071014404 C 7.76891040802002 2.267811059951782 6.537830829620361 1.500000953674316 5.118487358093262 1.500000953674316 M 5.118487358093262 9.5367431640625e-07 C 7.945347309112549 9.5367431640625e-07 10.23697757720947 2.185950994491577 10.23697757720947 4.882461071014404 C 8.156317710876465 4.882461071014404 3.374577522277832 4.882461071014404 -2.86102294921875e-06 4.882461071014404 C -2.86102294921875e-06 2.185950994491577 2.291627407073975 9.5367431640625e-07 5.118487358093262 9.5367431640625e-07 Z" stroke="none" fill="#707070"/>
      </g>
      <g id="Union_8" data-name="Union 8" transform="translate(170.75 372.634)" fill="#707070">
        <path d="M -154.3878784179688 -355.7243957519531 L -162.9818115234375 -355.7243957519531 C -162.9681243896484 -355.7951049804688 -162.9524841308594 -355.8654174804688 -162.9349212646484 -355.9352111816406 L -162.6999816894531 -356.8683166503906 L -163.6622161865234 -356.8683166503906 L -167.1582641601562 -356.8683166503906 C -166.8165740966797 -358.234130859375 -165.5635681152344 -359.25 -164.0745086669922 -359.25 C -163.3082122802734 -359.25 -162.5682830810547 -358.9772033691406 -161.9910125732422 -358.4818420410156 L -161.5709838867188 -358.1213989257812 L -161.1027221679688 -358.41650390625 C -160.3860626220703 -358.8681640625 -159.5501403808594 -359.1069030761719 -158.685302734375 -359.1069030761719 C -157.8477935791016 -359.1069030761719 -157.0341796875 -358.8821105957031 -156.3324127197266 -358.4568176269531 L -155.8768005371094 -358.1806945800781 L -155.466064453125 -358.5199584960938 C -154.8961181640625 -358.99072265625 -154.1721496582031 -359.25 -153.4275054931641 -359.25 C -151.9375915527344 -359.25 -150.6838836669922 -358.234130859375 -150.3419952392578 -356.8683166503906 L -153.7074890136719 -356.8683166503906 L -154.6697692871094 -356.8683166503906 L -154.4347839355469 -355.9351501464844 C -154.4172058105469 -355.8653869628906 -154.4015655517578 -355.7951049804688 -154.3878784179688 -355.7243957519531 Z" stroke="none"/>
        <path d="M -155.3439788818359 -356.4743957519531 L -155.5886383056641 -357.4459228515625 L -155.8099212646484 -357.2631530761719 L -156.7211303710938 -357.8153991699219 C -157.3056793212891 -358.1696472167969 -157.9848785400391 -358.3569030761719 -158.685302734375 -358.3569030761719 C -159.4084167480469 -358.3569030761719 -160.1060791015625 -358.1581115722656 -160.7028503417969 -357.7820129394531 L -161.6393585205078 -357.1918029785156 L -161.8085784912109 -357.3370361328125 L -162.0257568359375 -356.4743957519531 L -155.3439788818359 -356.4743957519531 M -151.5431671142578 -357.6183166503906 C -151.9886474609375 -358.1559753417969 -152.6678619384766 -358.5 -153.4275054931641 -358.5 C -154.0065002441406 -358.5 -154.5462493896484 -358.3069458007812 -154.9884338378906 -357.9417114257812 L -155.3799591064453 -357.6183166503906 L -153.7074890136719 -357.6183166503906 L -151.5431671142578 -357.6183166503906 M -162.1363830566406 -357.6183166503906 L -162.4794311523438 -357.9126892089844 C -162.9207916259766 -358.2914123535156 -163.4872741699219 -358.5 -164.0745086669922 -358.5 C -164.8336029052734 -358.5 -165.5122985839844 -358.1559753417969 -165.9574432373047 -357.6183166503906 L -163.6622161865234 -357.6183166503906 L -162.1363830566406 -357.6183166503906 M -153.5661010742188 -354.9743957519531 C -155.6468963623047 -354.9743957519531 -160.4286041259766 -354.9743957519531 -163.8036041259766 -354.9743957519531 C -163.8036041259766 -355.368408203125 -163.7546081542969 -355.7513427734375 -163.6622161865234 -356.1183166503906 C -165.1130981445312 -356.1183166503906 -166.694091796875 -356.1183166503906 -168.0003051757812 -356.1183166503906 C -168.0003051757812 -358.2621154785156 -166.2425994873047 -360 -164.0745086669922 -360 C -163.0907592773438 -360 -162.1915130615234 -359.6421813964844 -161.5026092529297 -359.051025390625 C -160.6944580078125 -359.5603332519531 -159.72607421875 -359.8569030761719 -158.685302734375 -359.8569030761719 C -157.6768035888672 -359.8569030761719 -156.7362976074219 -359.5785522460938 -155.9436950683594 -359.0982055664062 C -155.2621917724609 -359.6611328125 -154.3847808837891 -360 -153.4275054931641 -360 C -151.2584991455078 -360 -149.4999084472656 -358.2621154785156 -149.4999084472656 -356.1183166503906 C -150.41748046875 -356.1183166503906 -152.0194244384766 -356.1183166503906 -153.7074890136719 -356.1183166503906 C -153.6150817871094 -355.7513427734375 -153.5661010742188 -355.368408203125 -153.5661010742188 -354.9743957519531 Z" stroke="none" fill="#707070"/>
      </g>
    </g>
  </g>
</svg>
