<svg xmlns="http://www.w3.org/2000/svg" width="24" height="24"><defs><clipPath id="a"><path d="M0 0h24v24H0z"/></clipPath></defs><g data-name="Group 95" fill="none" clip-path="url(#a)"><g data-name="Ellipse 13" transform="translate(9.404 6.5)" stroke="#707070" stroke-width="1.5"><circle cx="2.661" cy="2.661" stroke="none" r="2.661"/><circle cx="2.661" cy="2.661" r="1.911"/></g><g data-name="Ellipse 35" transform="translate(15.17 7.644)" stroke="#707070" stroke-width="1.5"><circle cx="2.218" cy="2.218" stroke="none" r="2.218"/><circle cx="2.218" cy="2.218" r="1.468"/></g><g data-name="Ellipse 36" transform="translate(4.524 7.644)" stroke="#707070" stroke-width="1.5"><circle cx="2.218" cy="2.218" stroke="none" r="2.218"/><circle cx="2.218" cy="2.218" r="1.468"/></g><g data-name="Path 91"><path d="M12.065 12.777a5 5 0 015.118 4.882H6.947a5 5 0 015.118-4.882z"/><path d="M12.065 14.277c-1.419 0-2.65.768-3.242 1.882h6.485c-.592-1.114-1.823-1.882-3.243-1.882m0-1.5c2.827 0 5.119 2.186 5.119 4.882H6.947c0-2.696 2.292-4.882 5.118-4.882z" fill="#707070"/></g><g data-name="Union 8"><path d="M6.95 17.66a4.678 4.678 0 01.141-1.144H2.75a3.9 3.9 0 013.925-3.882 3.937 3.937 0 012.572.949 5.271 5.271 0 012.817-.806 5.277 5.277 0 012.742.759 3.938 3.938 0 012.516-.9 3.9 3.9 0 013.928 3.882h-4.208a4.678 4.678 0 01.141 1.144z"/><path d="M15.406 16.16l-.245-.972-.22.183-.912-.552a3.786 3.786 0 00-1.964-.542c-.723 0-1.421.199-2.018.575l-.936.59-.17-.145-.217.863h6.682m3.8-1.144a2.442 2.442 0 00-1.884-.882c-.579 0-1.118.193-1.56.558l-.392.324h3.837m-10.593 0l-.343-.295a2.45 2.45 0 00-1.596-.587 2.44 2.44 0 00-1.882.882H8.614m8.57 2.644H6.946c0-.394.05-.777.142-1.144H2.75c0-2.144 1.757-3.882 3.925-3.882.984 0 1.883.358 2.572.949a5.271 5.271 0 012.818-.806c1.008 0 1.949.278 2.741.759a3.938 3.938 0 012.516-.902c2.17 0 3.928 1.738 3.928 3.882h-4.207c.092.367.14.75.14 1.144z" fill="#707070"/></g></g></svg>