<svg xmlns="http://www.w3.org/2000/svg" xmlns:xlink="http://www.w3.org/1999/xlink" width="24" height="24" viewBox="0 0 24 24">
  <defs>
    <clipPath id="clip-video">
      <rect width="24" height="24"/>
    </clipPath>
  </defs>
  <g id="video" clip-path="url(#clip-video)">
    <g id="Union_9" data-name="Union 9" transform="translate(254 368)" fill="none">
      <path d="M-250-350.5v-10h12.571v2.038l3.429-1.482v8.889l-3.429-1.482v2.037Z" stroke="none"/>
      <path d="M -238.9290466308594 -352.0003967285156 L -238.9290466308594 -352.5373840332031 L -238.9290466308594 -354.8197021484375 L -236.8340148925781 -353.914306640625 L -235.4997863769531 -353.3377075195312 L -235.4997863769531 -357.6623229980469 L -236.8341217041016 -357.0858154296875 L -238.9290466308594 -356.1806945800781 L -238.9290466308594 -358.4627990722656 L -238.9290466308594 -359.0004272460938 L -248.5002136230469 -359.0004272460938 L -248.5002136230469 -352.0003967285156 L -238.9290466308594 -352.0003967285156 M -237.4290466308594 -350.5003967285156 L -250.0002136230469 -350.5003967285156 L -250.0002136230469 -360.5004272460938 L -237.4290466308594 -360.5004272460938 L -237.4290466308594 -358.4627990722656 L -233.9997863769531 -359.9444274902344 L -233.9997863769531 -351.055419921875 L -237.4290466308594 -352.5373840332031 L -237.4290466308594 -350.5003967285156 Z" stroke="none" fill="#707070"/>
    </g>
  </g>
</svg>
