<svg xmlns="http://www.w3.org/2000/svg" xmlns:xlink="http://www.w3.org/1999/xlink" width="24" height="24" viewBox="0 0 24 24">
  <defs>
    <clipPath id="clip-vimeo">
      <rect width="24" height="24"/>
    </clipPath>
  </defs>
  <g id="vimeo" clip-path="url(#clip-vimeo)">
    <g id="Group_125" data-name="Group 125" transform="translate(4 61)">
      <path id="Path_300" data-name="Path 300" d="M13.475-56C11.45-56,9.85-54.675,9.15-52.2c.75-.35,2.1-.55,2.225.7.1,1.25-1.775,4.45-2.6,4.45s-1.425-3.625-1.65-5.275c-.2-1.675-.6-3.5-2.15-3.5C3.4-55.825,1.4-53.375,0-52.275l.725,1s1.05-.825,1.4-.75c.95.25,1.75,4.1,2.175,5.575S5.225-42,7.275-42C10.55-42,16-50.15,16-52.825,16-54.575,15.5-56,13.475-56Z" fill="#707070"/>
    </g>
  </g>
</svg>
