<svg xmlns="http://www.w3.org/2000/svg" width="24" height="24"><defs><clipPath id="a"><path d="M0 0h24v24H0z"/></clipPath></defs><g data-name="Group 103" fill="#707070" fill-rule="evenodd" clip-path="url(#a)"><path data-name="Path 26" d="M4.457 19.549l1.057-3.759a7.513 7.513 0 112.815 2.767zm4.063-2.368l.24.144a6.263 6.263 0 10-2.016-1.968l.16.24-.608 2.16z"/><path data-name="Path 27" d="M9.897 8.48l-.5-.032a.661.661 0 00-.416.144 2.326 2.326 0 00-.736 1.12 3.369 3.369 0 00.8 2.672 7.872 7.872 0 004.271 3.1 2.069 2.069 0 001.76-.224 1.579 1.579 0 00.688-.992l.08-.368a.307.307 0 00-.144-.288l-1.648-.752a.275.275 0 00-.32.08l-.64.832a.174.174 0 01-.208.064 5.108 5.108 0 01-2.752-2.352.2.2 0 01.032-.208l.607-.72a.25.25 0 00.048-.256l-.72-1.664a.221.221 0 00-.202-.156z"/></g></svg>