<svg xmlns="http://www.w3.org/2000/svg" xmlns:xlink="http://www.w3.org/1999/xlink" width="24" height="24" viewBox="0 0 24 24">
  <defs>
    <clipPath id="clip-whatsapp">
      <rect width="24" height="24"/>
    </clipPath>
  </defs>
  <g id="whatsapp" clip-path="url(#clip-whatsapp)">
    <g id="Group_103" data-name="Group 103" transform="translate(8.244 8.283)">
      <path id="Path_26" data-name="Path 26" d="M6635,3340.1l1.057-3.759a7.513,7.513,0,1,1,2.815,2.767Zm4.063-2.368.24.144a6.263,6.263,0,1,0-2.016-1.968l.16.24-.608,2.16Z" transform="translate(-6638.787 -3328.834)" fill="#707070" fill-rule="evenodd"/>
      <path id="Path_27" data-name="Path 27" d="M6870.451,3575.031l-.5-.032a.661.661,0,0,0-.416.144,2.326,2.326,0,0,0-.736,1.12,3.369,3.369,0,0,0,.8,2.672,7.872,7.872,0,0,0,4.271,3.1,2.069,2.069,0,0,0,1.76-.224,1.579,1.579,0,0,0,.688-.992l.08-.368a.307.307,0,0,0-.144-.288l-1.648-.752a.275.275,0,0,0-.32.08l-.64.832a.174.174,0,0,1-.208.064,5.108,5.108,0,0,1-2.752-2.352.2.2,0,0,1,.032-.208l.607-.72a.25.25,0,0,0,.048-.256l-.72-1.664A.221.221,0,0,0,6870.451,3575.031Z" transform="translate(-6868.798 -3574.834)" fill="#707070" fill-rule="evenodd"/>
    </g>
  </g>
</svg>
