<svg xmlns="http://www.w3.org/2000/svg" xmlns:xlink="http://www.w3.org/1999/xlink" width="24" height="24" viewBox="0 0 24 24">
  <defs>
    <clipPath id="clip-wikipedia">
      <rect width="24" height="24"/>
    </clipPath>
  </defs>
  <g id="wikipedia" clip-path="url(#clip-wikipedia)">
    <g id="Group_126" data-name="Group 126" transform="translate(4 51.059)">
      <path id="Path_301" data-name="Path 301" d="M8.887-44.253c0,.05,0,.075.025.1a.092.092,0,0,0,.075.025h.1c.349.025.5.125.524.175.075.1.125.225-.075.7L8.363-40.684,7.315-43.055c-.349-.749-.424-1.023.225-1.073.1,0,.075-.05.075-.125v-.324s0-.025-.05-.025H4.794a.024.024,0,0,0-.025.025v.324c0,.075.075.1.2.125.5.075.474.125.973,1.173.1.175.3.649.3.649l1.1,2.371s.125.3.324.774l-1.6,3.519c-.025.05-.075,0-.1-.025,0,0-2.471-5.765-3.195-7.687a1.336,1.336,0,0,1-.1-.449c0-.2.15-.3.474-.324l.5-.025c.1,0,.275-.05.275-.125v-.275s0-.05-.15-.05H.1c-.125,0-.1.075-.1.075v.3c0,.05.075.1.225.125a1.425,1.425,0,0,1,.749.2,2.593,2.593,0,0,1,.424.824c.9,2.371,2.82,6.639,3.769,9.06.275.649.6.774,1.023-.025.424-.849,1.273-2.77,1.9-4.168.574,1.4,1.373,3.319,1.747,4.168.3.7.649.749,1,.025.9-2.271,3.594-9.035,3.594-9.035a1.737,1.737,0,0,1,.5-.774,1.432,1.432,0,0,1,.948-.3c.1,0,.125-.05.125-.125v-.324a.049.049,0,0,0-.05-.05H12.681s-.225,0-.225.075v.3c0,.025.05.05.15.1a.355.355,0,0,0,.15.05l.3.025a.728.728,0,0,1,.574.225.623.623,0,0,1,.05.649l-2.97,7.587c-.025.05-.075.025-.1-.025L8.762-39.811a.273.273,0,0,1,.05-.1l1.5-3.145c.175-.324.349-.624.424-.749.15-.25.225-.3.674-.324.1,0,.125-.05.125-.125v-.324a.024.024,0,0,0-.025-.025H8.887" transform="translate(0)" fill="#707070"/>
    </g>
  </g>
</svg>
