<svg xmlns="http://www.w3.org/2000/svg" xmlns:xlink="http://www.w3.org/1999/xlink" width="24" height="24" viewBox="0 0 24 24">
  <defs>
    <clipPath id="clip-yelp">
      <rect width="24" height="24"/>
    </clipPath>
  </defs>
  <g id="yelp" clip-path="url(#clip-yelp)">
    <g id="Group_127" data-name="Group 127" transform="translate(5.474 68.024)">
      <path id="Path_302" data-name="Path 302" d="M5.754-56.959a.742.742,0,0,0,.8-.825c0-.55.2-5.7-.225-6.073s-2.1-.025-2.574.125c-.975.325-2.074.825-2.1,1.25S5.3-57.009,5.754-56.959Zm5.1-3.124c-.375,0-3.3,3.5-2.8,4.148.3.4.65.35,1.474.2s3.474-.65,3.524-1.325S11.5-60.082,10.852-60.082ZM5.129-54.934c0-.45-1.4-1.075-1.4-1.075a16.7,16.7,0,0,0-3.024-1.05c-.475.05-.65,1.25-.7,2.149-.1,2.474,1.1,1.824,1.1,1.824s2.524-.8,3.024-1C4.629-54.26,5.129-54.485,5.129-54.934ZM6.4-53.185c-.575-.05-1.25,1-1.6,1.4S3.055-49.961,3.03-49.561c0,.375.75.8,1.774,1.175s2.2.65,2.249-.175,0-3.124,0-3.4C7.053-52.21,7.078-53.11,6.4-53.185Zm5.8.25c-.55-.2-3.5-1.524-4.024-.95-.325.35-.125.95.225,1.5S10-49.911,10-49.911s.225.5.625.5,1.175-.725,1.574-1.275A3.726,3.726,0,0,0,13-52.26C13-52.635,12.751-52.76,12.2-52.935Z" fill="#707070"/>
    </g>
  </g>
</svg>
