<svg xmlns="http://www.w3.org/2000/svg" width="24" height="24"><defs><clipPath id="a"><path d="M0 0h24v24H0z"/></clipPath></defs><g clip-path="url(#a)"><path d="M11.228 11.065a.742.742 0 00.8-.825c0-.55.2-5.7-.225-6.073s-2.1-.025-2.574.125c-.975.325-2.074.825-2.1 1.25s3.645 5.473 4.099 5.523zm5.1-3.124c-.375 0-3.3 3.5-2.8 4.148.3.4.65.35 1.474.2s3.474-.65 3.524-1.325-1.552-3.022-2.2-3.022zm-5.725 5.149c0-.45-1.4-1.075-1.4-1.075a16.7 16.7 0 00-3.024-1.05c-.475.05-.65 1.25-.7 2.149-.1 2.474 1.1 1.824 1.1 1.824s2.524-.8 3.024-1c.5-.174 1-.399 1-.848zm1.271 1.749c-.575-.05-1.25 1-1.6 1.4s-1.745 1.824-1.77 2.224c0 .375.75.8 1.774 1.175s2.2.65 2.249-.175 0-3.124 0-3.4c0-.249.025-1.149-.653-1.224zm5.8.25c-.55-.2-3.5-1.524-4.024-.95-.325.35-.125.95.225 1.5s1.599 2.474 1.599 2.474.225.5.625.5 1.175-.725 1.574-1.275a3.726 3.726 0 00.801-1.574c0-.375-.249-.5-.8-.675z" fill="#707070"/></g></svg>