<svg xmlns="http://www.w3.org/2000/svg" width="24" height="24"><defs><clipPath id="a"><path d="M0 0h24v24H0z"/></clipPath></defs><g clip-path="url(#a)"><path d="M9.319 11.695a2.626 2.626 0 0 1 .449-.774 2.3 2.3 0 0 1 1.648-.824 3.043 3.043 0 0 1 2.347.874 5.874 5.874 0 0 1 .749.824c.05.05.075.075.125 0a6.457 6.457 0 0 1 1-1.024 2.723 2.723 0 0 1 1.473-.653 2.467 2.467 0 0 1 2.822 2.023 3.3 3.3 0 0 1-.125 1.773 2.421 2.421 0 0 1-2.4 1.673 3.031 3.031 0 0 1-1.823-.674 6.622 6.622 0 0 1-.949-.924c-.05-.05-.075-.075-.125 0-.3.3-.574.624-.9.9a2.8 2.8 0 0 1-1.423.674 2.589 2.589 0 0 1-2.447-.874 2.718 2.718 0 0 1-.35-.574c0-.025-.05-.075-.05-.075a2.459 2.459 0 0 1-.5.749 2.669 2.669 0 0 1-1.923.874 3.387 3.387 0 0 1-1.573-.275A2.211 2.211 0 0 1 4 13.418c0-.075.025-.1.075-.1h1.348c.075 0 .075.025.1.075a1.114 1.114 0 0 0 .874 1 1.274 1.274 0 0 0 1.573-.975 1.562 1.562 0 0 0-.25-1.4 1.18 1.18 0 0 0-.874-.425 1.311 1.311 0 0 0-1.224.549c-.025.05-.05.05-.1.05H4.3c-.025-.075-.05-.1-.025-.15.199-1.171.425-2.324.625-3.493.025-.15.05-.325.075-.474A.066.066 0 0 1 5.05 8h4.02c.075 0 .075.025.075.075v1.074c0 .075-.025.1-.1.1H6.173c-.075 0-.125 0-.125.1-.075.5-.175 1.024-.275 1.523 0 .025-.025.05 0 .075s.05-.025.05-.025a2.024 2.024 0 0 1 1.577-.525 2.109 2.109 0 0 1 1.448.649 2.167 2.167 0 0 1 .4.574q.071.038.071.075zm9.289 1.1a.621.621 0 0 0-.025-.2 1.137 1.137 0 0 0-1.323-1.024 2.09 2.09 0 0 0-.924.425 8.555 8.555 0 0 0-.824.824.047.047 0 0 0 0 .075 4.529 4.529 0 0 0 .6.6 2.112 2.112 0 0 0 1.224.549 1.078 1.078 0 0 0 1.174-.7 1.2 1.2 0 0 0 .098-.55zm-8.066.075v.15a1.117 1.117 0 0 0 .9 1.024 1.356 1.356 0 0 0 .824-.1 3.607 3.607 0 0 0 1.373-1.049.047.047 0 0 0 0-.075 7.038 7.038 0 0 0-.9-.824 1.77 1.77 0 0 0-.749-.375 1.066 1.066 0 0 0-1.124.3 1.5 1.5 0 0 0-.323.948z" fill="#707070"/></g></svg>