<svg xmlns="http://www.w3.org/2000/svg" width="24" height="24"><defs><clipPath id="a"><path d="M0 0h24v24H0z"/></clipPath></defs><g fill="none" stroke-linecap="round" stroke-linejoin="round" clip-path="url(#a)"><path d="M12 4s6 4 6 9.6a6.21 6.21 0 0 1-6 6.4 6.21 6.21 0 0 1-6-6.4C6 8 12 4 12 4z"/><path d="M12 5.885c-1.5 1.239-4.5 4.16-4.5 7.715 0 2.702 2.019 4.9 4.5 4.9s4.5-2.198 4.5-4.9c0-3.556-3-6.476-4.5-7.715M12 4s6 3.996 6 9.6c0 3.535-2.686 6.4-6 6.4s-6-2.865-6-6.4C6 7.995 12 4 12 4z" fill="#707070"/></g></svg>