<svg xmlns="http://www.w3.org/2000/svg" width="24" height="24"><defs><clipPath id="a"><path d="M0 0h24v24H0z"/></clipPath></defs><g clip-path="url(#a)"><path d="M16.322 4H7.803a1.411 1.411 0 0 0-1.524 1.445v13.54a.986.986 0 0 0 .525.949.942.942 0 0 0 1.024-.225s4.022-4.664 4.097-4.742c.1-.1.1-.1.2-.1h2.6a1.292 1.292 0 0 0 1.374-1.249c.1-.375 1.174-5.846 1.524-7.595C17.921 4.725 17.571 4 16.322 4zm-.2 9.618c.1-.375 1.174-5.846 1.524-7.595m-1.824.275-.35 1.874a.622.622 0 0 1-.525.425h-3.322a.61.61 0 0 0-.65.625v.4a.63.63 0 0 0 .65.65h2.823a.515.515 0 0 1 .475.575c-.05.275-.325 1.674-.35 1.824a.546.546 0 0 1-.525.425h-2.3a.807.807 0 0 0-.824.4c-.275.35-2.8 3.373-2.8 3.373-.025.025-.05.025-.05 0V6.274a.527.527 0 0 1 .525-.525h6.849a.473.473 0 0 1 .374.549z" fill="#707070"/></g></svg>