<svg xmlns="http://www.w3.org/2000/svg" width="24" height="24"><defs><clipPath id="a"><path d="M0 0h24v24H0z"/></clipPath></defs><g clip-path="url(#a)" fill="none" stroke="#707070" stroke-linecap="round" stroke-linejoin="round" stroke-width="1.5"><path d="M4 4h4v4H4z" stroke="none"/><path d="M4.75 4.75h2.5v2.5h-2.5z"/><path d="M4 10h4v4H4z" stroke="none"/><path d="M4.75 10.75h2.5v2.5h-2.5z"/><path d="M4 16h4v4H4z" stroke="none"/><path d="M4.75 16.75h2.5v2.5h-2.5z"/><path d="M10 4h4v4h-4z" stroke="none"/><path d="M10.75 4.75h2.5v2.5h-2.5z"/><path d="M10 10h4v4h-4z" stroke="none"/><path d="M10.75 10.75h2.5v2.5h-2.5z"/><path d="M10 16h4v4h-4z" stroke="none"/><path d="M10.75 16.75h2.5v2.5h-2.5z"/><path d="M16 4h4v4h-4z" stroke="none"/><path d="M16.75 4.75h2.5v2.5h-2.5z"/><path d="M16 10h4v4h-4z" stroke="none"/><path d="M16.75 10.75h2.5v2.5h-2.5z"/><path d="M16 16h4v4h-4z" stroke="none"/><path d="M16.75 16.75h2.5v2.5h-2.5z"/></g></svg>