<svg xmlns="http://www.w3.org/2000/svg" width="24" height="24"><defs><clipPath id="a"><path d="M0 0h24v24H0z"/></clipPath></defs><g clip-path="url(#a)"><path d="M12 20a8.009 8.009 0 0 1-8-8 8.009 8.009 0 0 1 8-8 8.009 8.009 0 0 1 8 8 8.009 8.009 0 0 1-8 8zm-1.5-5.5a.751.751 0 0 0-.75.75.751.751 0 0 0 .75.75h3a.751.751 0 0 0 .75-.75.751.751 0 0 0-.75-.75h-.751v-3a.751.751 0 0 0-.75-.75h-1a.751.751 0 0 0-.75.75.751.751 0 0 0 .75.751h.25v2.25zM12 8a.751.751 0 0 0-.751.751.751.751 0 0 0 .751.75.751.751 0 0 0 .75-.75A.751.751 0 0 0 12 8z" fill="#707070"/></g></svg>