<svg xmlns="http://www.w3.org/2000/svg" width="24" height="24"><defs><clipPath id="a"><path d="M0 0h24v24H0z"/></clipPath></defs><g clip-path="url(#a)"><path d="M16.945 11.161c-1.252-.376-1.7-.576-1.7-1 0-.7 1-.851 1.1-.876a1.73 1.73 0 0 1 1.953.926l1.7-.526a3.459 3.459 0 0 0-3.931-2.128 2.758 2.758 0 0 0-2.629 2.6c0 1.778 1.728 2.3 2.98 2.654 1.327.4 1.778.626 1.778 1.1 0 .4-.326.6-.977.776-1.277.326-3 0-3.455-.776a11.742 11.742 0 0 1-.776-1.753c-.751-2-1.8-4.732-4.808-4.732C6.629 7.455 4 8.081 4 12.363a4.125 4.125 0 0 0 4.131 4.207c2.4 0 2.8-.977 2.9-1.152l-.771-1.528a2.832 2.832 0 0 1-2.128.926c-2.254 0-2.354-2.429-2.354-2.454 0-2.228.726-3.155 2.4-3.155 1.653 0 2.3 1.427 3.13 3.581a11.747 11.747 0 0 0 .9 2.028c.751 1.227 2.454 1.753 4.081 1.753a5 5 0 0 0 1.4-.175c1.427-.376 2.3-1.252 2.3-2.454.011-1.853-1.742-2.379-3.044-2.779z" fill="#707070"/></g></svg>