<svg xmlns="http://www.w3.org/2000/svg" width="24" height="24"><defs><clipPath id="a"><path d="M0 0h24v24H0z"/></clipPath></defs><g data-name="Subtraction 22" fill="#707070" clip-path="url(#a)"><path d="M15.003 19.25H8.997L4.75 15.003V8.997L8.997 4.75h6.006l4.247 4.247v6.006l-4.247 4.247zM10.501 14v3H13.5V7h-3v7z"/><path d="m14.693 18.5 3.807-3.807V9.308L14.693 5.5H9.308L5.5 9.308v5.385L9.308 18.5h5.385M9.75 13.25v-7h4.5v11.5h-4.5v-4.5M15.315 20H8.686L4 15.314V8.686L8.686 4h6.628L20 8.686v6.628L15.314 20zm-4.063-5.25v1.5h1.499v-1.5h-1.5zm0-7v6h1.499v-6h-1.5z"/></g></svg>