<svg xmlns="http://www.w3.org/2000/svg" width="24" height="24"><defs><clipPath id="a"><path d="M0 0h24v24H0z"/></clipPath></defs><g fill="#707070" clip-path="url(#a)"><path d="m9.431 13.214-.025.15a.7.7 0 0 1 .7-.6h1.454c2.829 0 5.058-1.152 5.709-4.482.025-.1.025-.2.05-.275a3.1 3.1 0 0 0-.676-2.829A5.007 5.007 0 0 0 12.862 4H7.954a.7.7 0 0 0-.7.6L5.2 17.571a.408.408 0 0 0 .426.476h3.03l.776-4.833"/><path d="M18.195 8.757c-.05-.05-.075-.1-.125-.125-.626 3.255-2.829 4.983-6.31 4.983h-1.452c-.025 0-.05.025-.075.05l-.776 4.983a.237.237 0 0 1-.275.225h-.1a.371.371 0 0 0-.351.3l-.075.4a.382.382 0 0 0 .376.426h2.554a.617.617 0 0 0 .6-.526l.025-.125.476-3.055.025-.175a.617.617 0 0 1 .6-.526h.376c2.479 0 4.407-1 4.983-3.906a3.217 3.217 0 0 0-.476-2.929z"/></g></svg>