<svg xmlns="http://www.w3.org/2000/svg" width="24" height="24"><defs><clipPath id="a"><path d="M0 0h24v24H0z"/></clipPath></defs><g clip-path="url(#a)"><g transform="translate(14 5)" fill="#707070" stroke="#707070" stroke-width="1.5"><circle cx="2.5" cy="2.5" r="2.5" stroke="none"/><circle cx="2.5" cy="2.5" r="1.75" fill="none"/></g><g fill="#707070"><path d="M7.5 13.75c-.965 0-1.75-.785-1.75-1.75s.785-1.75 1.75-1.75 1.75.785 1.75 1.75-.785 1.75-1.75 1.75z"/><path d="M7.5 11a1.001 1.001 0 0 0 0 2 1.001 1.001 0 0 0 0-2m0-1.5a2.5 2.5 0 1 1 0 5 2.5 2.5 0 0 1 0-5z"/></g><g transform="translate(14 14)" fill="#707070" stroke="#707070" stroke-width="1.5"><circle cx="2.5" cy="2.5" r="2.5" stroke="none"/><circle cx="2.5" cy="2.5" r="1.75" fill="none"/></g><path fill="none" stroke="#707070" stroke-width="1.5" d="m8.375 11.381 7.25-3.38M8.5 12.5l6.75 3.5"/></g></svg>