<svg xmlns="http://www.w3.org/2000/svg" width="24" height="24"><defs><clipPath id="a"><path d="M0 0h24v24H0z"/></clipPath></defs><g clip-path="url(#a)"><path d="M12.11 19.961a.373.373 0 0 1-.136-.017.154.154 0 0 1-.085.017 3.741 3.741 0 0 1-2.28-.9 3.343 3.343 0 0 0-1.31-.68 4.818 4.818 0 0 0-.7-.051 6.037 6.037 0 0 0-.953.1 1.5 1.5 0 0 1-.357.051.212.212 0 0 1-.238-.17c-.051-.136-.068-.272-.1-.391-.068-.323-.119-.527-.255-.544-1.6-.255-2.058-.6-2.16-.833a.215.215 0 0 1-.017-.1.182.182 0 0 1 .153-.187 5.223 5.223 0 0 0 3.589-3.011.884.884 0 0 0 .085-.783c-.17-.408-.714-.578-1.072-.7-.085-.017-.17-.051-.238-.068-.731-.289-.782-.578-.766-.731a.7.7 0 0 1 .681-.442.342.342 0 0 1 .187.051 2.1 2.1 0 0 0 .868.221c.357 0 .51-.136.527-.17a5.5 5.5 0 0 0-.034-.51 8.84 8.84 0 0 1 .2-3.419 4.439 4.439 0 0 1 4.121-2.655h.34a4.445 4.445 0 0 1 4.134 2.654 8.547 8.547 0 0 1 .187 3.419v.051c0 .153-.017.323-.017.459a.705.705 0 0 0 .476.17 2.106 2.106 0 0 0 .817-.221.489.489 0 0 1 .255-.051.8.8 0 0 1 .289.051h.017a.561.561 0 0 1 .408.442c0 .17-.136.425-.765.68-.068.017-.153.051-.238.068-.374.119-.918.289-1.089.7a.96.96 0 0 0 .1.783 5.181 5.181 0 0 0 3.59 3.011.2.2 0 0 1 .153.187.241.241 0 0 1-.034.1c-.1.238-.544.578-2.143.833-.136.017-.187.187-.255.544a8.822 8.822 0 0 0-.1.391.22.22 0 0 1-.221.17h-.017a1.617 1.617 0 0 1-.357-.051 4.992 4.992 0 0 0-.97-.1 4.582 4.582 0 0 0-.68.051 3.529 3.529 0 0 0-1.327.68 3.649 3.649 0 0 1-2.263.9z" fill="#707070" fill-rule="evenodd"/></g></svg>