<svg xmlns="http://www.w3.org/2000/svg" width="24" height="24"><defs><clipPath id="a"><path d="M0 0h24v24H0z"/></clipPath></defs><g fill="#707070" stroke-linecap="round" stroke-linejoin="round" clip-path="url(#a)"><path d="M17.5 18.75h-11a.25.25 0 0 1-.25-.25v-13a.25.25 0 0 1 .25-.25h11a.25.25 0 0 1 .25.25v13a.25.25 0 0 1-.25.25zm-5.5-4.5c-.965 0-1.75.785-1.75 1.75s.785 1.75 1.75 1.75 1.75-.785 1.75-1.75-.785-1.75-1.75-1.75z"/><path d="M17 18V6H7v12h3.502A2.498 2.498 0 0 1 12 13.5a2.498 2.498 0 0 1 1.498 4.5H17m.5 1.5h-11c-.551 0-1-.448-1-1v-13c0-.551.449-1 1-1h11c.551 0 1 .449 1 1v13c0 .552-.449 1-1 1zM12 15a1.001 1.001 0 0 0 0 2 1.001 1.001 0 0 0 0-2z"/></g></svg>