<svg xmlns="http://www.w3.org/2000/svg" width="24" height="24"><defs><clipPath id="a"><path d="M0 0h24v24H0z"/></clipPath></defs><g clip-path="url(#a)"><path d="M19.021 8.01a4.031 4.031 0 0 1-2.436-.814 4.041 4.041 0 0 1-1.533-2.436 4.062 4.062 0 0 1-.081-.76h-2.609v11.049a2.365 2.365 0 0 1-1.624 2.243 2.374 2.374 0 0 1-.878.116 2.353 2.353 0 0 1-1.082-.332 2.364 2.364 0 0 1-1.156-1.992 2.367 2.367 0 0 1 2.37-2.4 2.377 2.377 0 0 1 .746.12v-2.653a5.141 5.141 0 0 0-.753-.056 5.01 5.01 0 0 0-3.764 1.684 4.9 4.9 0 0 0-1.24 2.958 4.894 4.894 0 0 0 1.458 3.813 5.094 5.094 0 0 0 .472.412A5.01 5.01 0 0 0 9.981 20a5.132 5.132 0 0 0 .753-.055 4.992 4.992 0 0 0 2.789-1.395 4.891 4.891 0 0 0 1.467-3.481l-.013-5.839a6.6 6.6 0 0 0 1.467.856 6.6 6.6 0 0 0 2.583.521v-2.6z" fill="#707070"/></g></svg>