<svg xmlns="http://www.w3.org/2000/svg" width="24" height="24"><defs><clipPath id="a"><path d="M0 0h24v24H0z"/></clipPath></defs><g stroke="#707070" stroke-linecap="round" stroke-width="1.5" clip-path="url(#a)"><path d="M16.5 17.75h-9v-11h9v11zm-1.786-9.9a1 1 0 0 0-1 1v7.577a1 1 0 0 0 1 1h.143a1 1 0 0 0 1-1V8.85a1 1 0 0 0-1-1zm-2.786 0a1 1 0 0 0-1 1v7.577a1 1 0 0 0 1 1h.143a1 1 0 0 0 1-1V8.85a1 1 0 0 0-1-1zm-2.571 0a1 1 0 0 0-1 1v7.577a1 1 0 0 0 1 1H9.5a1 1 0 0 0 1-1V8.85a1 1 0 0 0-1-1z" fill="#707070" stroke-linejoin="round"/><path fill="none" d="M6.5 6.75h11"/><path fill="none" stroke-linejoin="round" d="M9.5 4.75h5v2h-5z"/></g></svg>