<svg xmlns="http://www.w3.org/2000/svg" width="24" height="24"><defs><clipPath id="a"><path d="M0 0h24v24H0z"/></clipPath></defs><g clip-path="url(#a)"><path d="M19.662 8.152a2 2 0 0 0-1.417-1.417 58.038 58.038 0 0 0-12.507 0 2.028 2.028 0 0 0-1.416 1.417 23.146 23.146 0 0 0 0 7.694 2.028 2.028 0 0 0 1.416 1.416A47.486 47.486 0 0 0 12 17.6a49.518 49.518 0 0 0 6.246-.322 2 2 0 0 0 1.417-1.417 22.154 22.154 0 0 0 0-7.71zm-9.256 6.246 4.153-2.4-4.153-2.4z" fill="#707070" fill-rule="evenodd"/></g></svg>